<?xml version="1.0" encoding="UTF-8" standalone="no"?>
<!DOCTYPE svg PUBLIC "-//W3C//DTD SVG 1.1//EN"
 "http://www.w3.org/Graphics/SVG/1.1/DTD/svg11.dtd">
<!-- Generated by graphviz version 2.40.1 (20161225.0304)
 -->
<!-- Title: %3 Pages: 1 -->
<svg width="488pt" height="206pt"
 viewBox="0.00 0.00 488.28 206.00" xmlns="http://www.w3.org/2000/svg" xmlns:xlink="http://www.w3.org/1999/xlink">
<g id="graph0" class="graph" transform="scale(1 1) rotate(0) translate(4 202)">
<title>%3</title>
<!-- David -->
<g id="node1" class="node">
<title>David</title>
<ellipse fill="none" stroke="#000000" cx="179.1234" cy="-126" rx="37.4092" ry="25.4118"/>
<text text-anchor="middle" x="179.1234" y="-128.8" font-family="Times,serif" font-size="14.00" fill="#000000">David</text>
<text text-anchor="middle" x="179.1234" y="-114.8" font-family="Times,serif" font-size="14.00" fill="#000000">Waller</text>
</g>
<!-- teacher -->
<g id="node5" class="node">
<title>teacher</title>
<ellipse fill="none" stroke="#000000" cx="306.3926" cy="-180" rx="35.7627" ry="18"/>
<text text-anchor="middle" x="306.3926" y="-175.8" font-family="Times,serif" font-size="14.00" fill="#000000">teacher</text>
</g>
<!-- David&#45;&gt;teacher -->
<g id="edge4" class="edge">
<title>David&#45;&gt;teacher</title>
<path fill="none" stroke="#000000" d="M210.9105,-139.4872C228.7163,-147.0422 251.0045,-156.499 269.5677,-164.3753"/>
<polygon fill="#000000" stroke="#000000" points="268.3194,-167.6476 278.8921,-168.3316 271.0536,-161.2037 268.3194,-167.6476"/>
</g>
<!-- programmer -->
<g id="node6" class="node">
<title>programmer</title>
<ellipse fill="none" stroke="#000000" cx="306.3926" cy="-72" rx="53.6299" ry="18"/>
<text text-anchor="middle" x="306.3926" y="-67.8" font-family="Times,serif" font-size="14.00" fill="#000000">programmer</text>
</g>
<!-- David&#45;&gt;programmer -->
<g id="edge5" class="edge">
<title>David&#45;&gt;programmer</title>
<path fill="none" stroke="#000000" d="M210.9105,-112.5128C226.8136,-105.7652 246.2922,-97.5004 263.4991,-90.1996"/>
<polygon fill="#000000" stroke="#000000" points="264.949,-93.3865 272.7876,-86.2585 262.2149,-86.9425 264.949,-93.3865"/>
</g>
<!-- singing -->
<g id="node2" class="node">
<title>singing</title>
<ellipse fill="none" stroke="#000000" cx="52.8344" cy="-180" rx="36.2992" ry="18"/>
<text text-anchor="middle" x="52.8344" y="-175.8" font-family="Times,serif" font-size="14.00" fill="#000000">singing</text>
</g>
<!-- singing&#45;&gt;David -->
<g id="edge1" class="edge">
<title>singing&#45;&gt;David</title>
<path fill="none" stroke="#000000" d="M80.5491,-168.1495C97.3198,-160.9785 119.0204,-151.6995 137.7898,-143.6738"/>
<polygon fill="#000000" stroke="#000000" points="139.1955,-146.8794 147.0142,-139.7296 136.4434,-140.4431 139.1955,-146.8794"/>
</g>
<!-- boardgames -->
<g id="node3" class="node">
<title>boardgames</title>
<ellipse fill="none" stroke="#000000" cx="52.8344" cy="-126" rx="52.6693" ry="18"/>
<text text-anchor="middle" x="52.8344" y="-121.8" font-family="Times,serif" font-size="14.00" fill="#000000">boardgames</text>
</g>
<!-- boardgames&#45;&gt;David -->
<g id="edge2" class="edge">
<title>boardgames&#45;&gt;David</title>
<path fill="none" stroke="#000000" d="M106.0263,-126C114.3683,-126 122.948,-126 131.1631,-126"/>
<polygon fill="#000000" stroke="#000000" points="131.3288,-129.5001 141.3288,-126 131.3287,-122.5001 131.3288,-129.5001"/>
</g>
<!-- metal -->
<g id="node4" class="node">
<title>metal</title>
<ellipse fill="none" stroke="#000000" cx="52.8344" cy="-72" rx="30.0018" ry="18"/>
<text text-anchor="middle" x="52.8344" y="-67.8" font-family="Times,serif" font-size="14.00" fill="#000000">metal</text>
</g>
<!-- metal&#45;&gt;David -->
<g id="edge3" class="edge">
<title>metal&#45;&gt;David</title>
<path fill="none" stroke="#000000" d="M77.1842,-82.4117C94.3859,-89.767 117.8588,-99.8038 137.9444,-108.3923"/>
<polygon fill="#000000" stroke="#000000" points="136.6234,-111.6339 147.1941,-112.3474 139.3755,-105.1976 136.6234,-111.6339"/>
</g>
<!-- Edument -->
<g id="node7" class="node">
<title>Edument</title>
<ellipse fill="none" stroke="#000000" cx="438.242" cy="-126" rx="42.0697" ry="18"/>
<text text-anchor="middle" x="438.242" y="-121.8" font-family="Times,serif" font-size="14.00" fill="#000000">Edument</text>
</g>
<!-- teacher&#45;&gt;Edument -->
<g id="edge6" class="edge">
<title>teacher&#45;&gt;Edument</title>
<path fill="none" stroke="#000000" d="M334.3544,-168.548C352.8875,-160.9576 377.4927,-150.8804 398.1051,-142.4384"/>
<polygon fill="#000000" stroke="#000000" points="399.6305,-145.5959 407.5579,-138.5669 396.9774,-139.1181 399.6305,-145.5959"/>
</g>
<!-- subs -->
<g id="node9" class="node">
<title>subs</title>
<polygon fill="none" stroke="#8b4513" points="360.2829,-144 252.5022,-144 252.5022,-108 360.2829,-108 360.2829,-144"/>
<text text-anchor="middle" x="306.3926" y="-128.8" font-family="Times,serif" font-size="14.00" fill="#8b4513">maths, Swedish,</text>
<text text-anchor="middle" x="306.3926" y="-114.8" font-family="Times,serif" font-size="14.00" fill="#8b4513">programming</text>
</g>
<!-- teacher&#45;&gt;subs -->
<g id="edge9" class="edge">
<title>teacher&#45;&gt;subs</title>
<path fill="none" stroke="#8b4513" d="M306.3926,-161.7902C306.3926,-155.907 306.3926,-150.0238 306.3926,-144.1406"/>
</g>
<!-- programmer&#45;&gt;Edument -->
<g id="edge7" class="edge">
<title>programmer&#45;&gt;Edument</title>
<path fill="none" stroke="#000000" d="M340.6903,-86.0469C358.3636,-93.2852 380.0112,-102.1511 398.4202,-109.6907"/>
<polygon fill="#000000" stroke="#000000" points="397.133,-112.9456 407.7135,-113.4968 399.7861,-106.4678 397.133,-112.9456"/>
</g>
<!-- JS -->
<g id="node8" class="node">
<title>JS</title>
<polygon fill="none" stroke="#8b4513" points="333.3926,-36 279.3926,-36 279.3926,0 333.3926,0 333.3926,-36"/>
<text text-anchor="middle" x="306.3926" y="-13.8" font-family="Times,serif" font-size="14.00" fill="#8b4513">JS</text>
</g>
<!-- programmer&#45;&gt;JS -->
<g id="edge8" class="edge">
<title>programmer&#45;&gt;JS</title>
<path fill="none" stroke="#8b4513" d="M306.3926,-53.7902C306.3926,-47.907 306.3926,-42.0238 306.3926,-36.1406"/>
</g>
</g>
</svg>
