<?xml version="1.0" encoding="UTF-8" standalone="no"?>
<!DOCTYPE svg PUBLIC "-//W3C//DTD SVG 1.1//EN"
 "http://www.w3.org/Graphics/SVG/1.1/DTD/svg11.dtd">
<!-- Generated by graphviz version 2.40.1 (20161225.0304)
 -->
<!-- Title: %3 Pages: 1 -->
<svg width="327pt" height="206pt"
 viewBox="0.00 0.00 326.95 206.00" xmlns="http://www.w3.org/2000/svg" xmlns:xlink="http://www.w3.org/1999/xlink">
<g id="graph0" class="graph" transform="scale(1 1) rotate(0) translate(4 202)">
<title>%3</title>
<!-- math -->
<g id="node1" class="node">
<title>math</title>
<ellipse fill="none" stroke="#000000" cx="38.5976" cy="-180" rx="27.5804" ry="18"/>
<text text-anchor="middle" x="38.5976" y="-175.8" font-family="Times,serif" font-size="14.00" fill="#000000">math</text>
</g>
<!-- Carl -->
<g id="node2" class="node">
<title>Carl</title>
<ellipse fill="none" stroke="#000000" cx="140.1953" cy="-99" rx="27" ry="18"/>
<text text-anchor="middle" x="140.1953" y="-94.8" font-family="Times,serif" font-size="14.00" fill="#000000">Carl</text>
</g>
<!-- math&#45;&gt;Carl -->
<g id="edge1" class="edge">
<title>math&#45;&gt;Carl</title>
<path fill="none" stroke="#000000" d="M58.1067,-166.9062C64.3026,-162.6016 71.1202,-157.7102 77.1953,-153 90.5152,-142.6727 104.8191,-130.5058 116.4254,-120.3379"/>
<polygon fill="#000000" stroke="#000000" points="118.8038,-122.9071 123.9843,-113.6652 114.1712,-117.6593 118.8038,-122.9071"/>
</g>
<!-- Compilers -->
<g id="node6" class="node">
<title>Compilers</title>
<ellipse fill="none" stroke="#000000" cx="261.0732" cy="-153" rx="46.9064" ry="18"/>
<text text-anchor="middle" x="261.0732" y="-148.8" font-family="Times,serif" font-size="14.00" fill="#000000">Compilers</text>
</g>
<!-- Carl&#45;&gt;Compilers -->
<g id="edge5" class="edge">
<title>Carl&#45;&gt;Compilers</title>
<path fill="none" stroke="#000000" d="M162.6482,-109.0304C178.9596,-116.3173 201.4787,-126.3772 220.8608,-135.0358"/>
<polygon fill="#000000" stroke="#000000" points="219.5248,-138.2723 230.0827,-139.1556 222.38,-131.8811 219.5248,-138.2723"/>
</g>
<!-- Parsers -->
<g id="node7" class="node">
<title>Parsers</title>
<ellipse fill="none" stroke="#000000" cx="261.0732" cy="-99" rx="35.7974" ry="18"/>
<text text-anchor="middle" x="261.0732" y="-94.8" font-family="Times,serif" font-size="14.00" fill="#000000">Parsers</text>
</g>
<!-- Carl&#45;&gt;Parsers -->
<g id="edge6" class="edge">
<title>Carl&#45;&gt;Parsers</title>
<path fill="none" stroke="#000000" d="M167.3226,-99C181.3691,-99 198.9066,-99 215.0012,-99"/>
<polygon fill="#000000" stroke="#000000" points="215.3182,-102.5001 225.3182,-99 215.3181,-95.5001 215.3182,-102.5001"/>
</g>
<!-- Types -->
<g id="node8" class="node">
<title>Types</title>
<ellipse fill="none" stroke="#000000" cx="261.0732" cy="-45" rx="57.7561" ry="18"/>
<text text-anchor="middle" x="261.0732" y="-40.8" font-family="Times,serif" font-size="14.00" fill="#000000">Type systems</text>
</g>
<!-- Carl&#45;&gt;Types -->
<g id="edge7" class="edge">
<title>Carl&#45;&gt;Types</title>
<path fill="none" stroke="#000000" d="M162.6482,-88.9696C178.3014,-81.9768 199.6714,-72.4301 218.4997,-64.0189"/>
<polygon fill="#000000" stroke="#000000" points="220.0826,-67.1452 227.7854,-59.8707 217.2274,-60.754 220.0826,-67.1452"/>
</g>
<!-- writing -->
<g id="node3" class="node">
<title>writing</title>
<ellipse fill="none" stroke="#000000" cx="38.5976" cy="-126" rx="35.806" ry="18"/>
<text text-anchor="middle" x="38.5976" y="-121.8" font-family="Times,serif" font-size="14.00" fill="#000000">writing</text>
</g>
<!-- writing&#45;&gt;Carl -->
<g id="edge2" class="edge">
<title>writing&#45;&gt;Carl</title>
<path fill="none" stroke="#000000" d="M70.1868,-117.605C81.2471,-114.6657 93.7322,-111.3477 105.0643,-108.3362"/>
<polygon fill="#000000" stroke="#000000" points="106.3075,-111.6274 115.0731,-105.6763 104.5096,-104.8622 106.3075,-111.6274"/>
</g>
<!-- cooking -->
<g id="node4" class="node">
<title>cooking</title>
<ellipse fill="none" stroke="#000000" cx="38.5976" cy="-72" rx="38.6955" ry="18"/>
<text text-anchor="middle" x="38.5976" y="-67.8" font-family="Times,serif" font-size="14.00" fill="#000000">cooking</text>
</g>
<!-- cooking&#45;&gt;Carl -->
<g id="edge3" class="edge">
<title>cooking&#45;&gt;Carl</title>
<path fill="none" stroke="#000000" d="M72.1461,-80.9156C82.7459,-83.7326 94.4828,-86.8517 105.1823,-89.6951"/>
<polygon fill="#000000" stroke="#000000" points="104.4882,-93.1321 115.0517,-92.318 106.2861,-86.3669 104.4882,-93.1321"/>
</g>
<!-- beer -->
<g id="node5" class="node">
<title>beer</title>
<ellipse fill="none" stroke="#000000" cx="38.5976" cy="-18" rx="27" ry="18"/>
<text text-anchor="middle" x="38.5976" y="-13.8" font-family="Times,serif" font-size="14.00" fill="#000000">beer</text>
</g>
<!-- beer&#45;&gt;Carl -->
<g id="edge4" class="edge">
<title>beer&#45;&gt;Carl</title>
<path fill="none" stroke="#000000" d="M57.7121,-30.8199C64.0121,-35.1902 70.991,-40.1896 77.1953,-45 90.5152,-55.3273 104.8191,-67.4942 116.4254,-77.6621"/>
<polygon fill="#000000" stroke="#000000" points="114.1712,-80.3407 123.9843,-84.3348 118.8038,-75.0929 114.1712,-80.3407"/>
</g>
</g>
</svg>
