<?xml version="1.0" encoding="UTF-8" standalone="no"?>
<!DOCTYPE svg PUBLIC "-//W3C//DTD SVG 1.1//EN"
 "http://www.w3.org/Graphics/SVG/1.1/DTD/svg11.dtd">
<!-- Generated by graphviz version 2.40.1 (20161225.0304)
 -->
<!-- Title: %3 Pages: 1 -->
<svg width="230pt" height="152pt"
 viewBox="0.00 0.00 229.83 152.00" xmlns="http://www.w3.org/2000/svg" xmlns:xlink="http://www.w3.org/1999/xlink">
<g id="graph0" class="graph" transform="scale(1 1) rotate(0) translate(4 148)">
<title>%3</title>
<!-- Edument -->
<g id="node1" class="node">
<title>Edument</title>
<ellipse fill="none" stroke="#000000" cx="42.0348" cy="-72" rx="42.0697" ry="18"/>
<text text-anchor="middle" x="42.0348" y="-67.8" font-family="Times,serif" font-size="14.00" fill="#000000">Edument</text>
</g>
<!-- Teaching -->
<g id="node2" class="node">
<title>Teaching</title>
<ellipse fill="none" stroke="#000000" cx="170.9523" cy="-126" rx="42.2781" ry="18"/>
<text text-anchor="middle" x="170.9523" y="-121.8" font-family="Times,serif" font-size="14.00" fill="#000000">Teaching</text>
</g>
<!-- Edument&#45;&gt;Teaching -->
<g id="edge1" class="edge">
<title>Edument&#45;&gt;Teaching</title>
<path fill="none" stroke="#000000" d="M72.2603,-84.6606C89.832,-92.0209 112.1852,-101.3841 131.1731,-109.3376"/>
<polygon fill="#000000" stroke="#000000" points="129.8938,-112.5963 140.4696,-113.2316 132.5983,-106.1398 129.8938,-112.5963"/>
</g>
<!-- Mentorship -->
<g id="node3" class="node">
<title>Mentorship</title>
<ellipse fill="none" stroke="#000000" cx="170.9523" cy="-72" rx="50.7655" ry="18"/>
<text text-anchor="middle" x="170.9523" y="-67.8" font-family="Times,serif" font-size="14.00" fill="#000000">Mentorship</text>
</g>
<!-- Edument&#45;&gt;Mentorship -->
<g id="edge2" class="edge">
<title>Edument&#45;&gt;Mentorship</title>
<path fill="none" stroke="#000000" d="M84.2472,-72C92.3754,-72 101.0414,-72 109.6329,-72"/>
<polygon fill="#000000" stroke="#000000" points="109.6477,-75.5001 119.6477,-72 109.6476,-68.5001 109.6477,-75.5001"/>
</g>
<!-- Consulting -->
<g id="node4" class="node">
<title>Consulting</title>
<ellipse fill="none" stroke="#000000" cx="170.9523" cy="-18" rx="48.8532" ry="18"/>
<text text-anchor="middle" x="170.9523" y="-13.8" font-family="Times,serif" font-size="14.00" fill="#000000">Consulting</text>
</g>
<!-- Edument&#45;&gt;Consulting -->
<g id="edge3" class="edge">
<title>Edument&#45;&gt;Consulting</title>
<path fill="none" stroke="#000000" d="M72.2603,-59.3394C89.2448,-52.225 110.6965,-43.2395 129.2584,-35.4644"/>
<polygon fill="#000000" stroke="#000000" points="130.7914,-38.617 138.6627,-31.5252 128.0869,-32.1605 130.7914,-38.617"/>
</g>
<!-- Teaching&#45;&gt;Mentorship -->
<g id="edge4" class="edge">
<title>Teaching&#45;&gt;Mentorship</title>
<path fill="none" stroke="#000000" d="M170.9523,-97.5865C170.9523,-95.1046 170.9523,-92.6226 170.9523,-90.1406"/>
<polygon fill="#000000" stroke="#000000" points="167.4524,-97.7901 170.9523,-107.7902 174.4524,-97.7902 167.4524,-97.7901"/>
</g>
<!-- Mentorship&#45;&gt;Consulting -->
<g id="edge5" class="edge">
<title>Mentorship&#45;&gt;Consulting</title>
<path fill="none" stroke="#000000" d="M170.9523,-53.7902C170.9523,-51.3082 170.9523,-48.8262 170.9523,-46.3443"/>
<polygon fill="#000000" stroke="#000000" points="174.4524,-46.1406 170.9523,-36.1406 167.4524,-46.1407 174.4524,-46.1406"/>
</g>
</g>
</svg>
