<?xml version="1.0" encoding="UTF-8" standalone="no"?>
<!DOCTYPE svg PUBLIC "-//W3C//DTD SVG 1.1//EN"
 "http://www.w3.org/Graphics/SVG/1.1/DTD/svg11.dtd">
<!-- Generated by graphviz version 2.40.1 (20161225.0304)
 -->
<!-- Title: %3 Pages: 1 -->
<svg width="662pt" height="314pt"
 viewBox="0.00 0.00 662.00 314.00" xmlns="http://www.w3.org/2000/svg" xmlns:xlink="http://www.w3.org/1999/xlink">
<g id="graph0" class="graph" transform="scale(1 1) rotate(0) translate(4 310)">
<title>%3</title>
<g id="clust1" class="cluster">
<title>cluster_course</title>
<polygon fill="transparent" stroke="#000000" points="8,-8 8,-298 646,-298 646,-8 8,-8"/>
<text text-anchor="middle" x="327" y="-282.8" font-family="Times,serif" font-size="14.00" fill="#000000">Chapter structure</text>
</g>
<!-- page1_1 -->
<g id="node1" class="node">
<title>page1_1</title>
<ellipse fill="none" stroke="#000000" cx="353" cy="-178" rx="40.1317" ry="18"/>
<text text-anchor="middle" x="353" y="-173.8" font-family="Times,serif" font-size="14.00" fill="#000000">page1_1</text>
</g>
<!-- page1_2 -->
<g id="node2" class="node">
<title>page1_2</title>
<ellipse fill="none" stroke="#000000" cx="353" cy="-106" rx="40.1317" ry="18"/>
<text text-anchor="middle" x="353" y="-101.8" font-family="Times,serif" font-size="14.00" fill="#000000">page1_2</text>
</g>
<!-- page1_1&#45;&gt;page1_2 -->
<g id="edge8" class="edge">
<title>page1_1&#45;&gt;page1_2</title>
<path fill="none" stroke="#000000" d="M353,-159.8314C353,-152.131 353,-142.9743 353,-134.4166"/>
<polygon fill="#000000" stroke="#000000" points="356.5001,-134.4132 353,-124.4133 349.5001,-134.4133 356.5001,-134.4132"/>
</g>
<!-- page1_3 -->
<!-- page1_2&#45;&gt;page1_3 -->
<g id="edge12" class="edge">
<title>page1_2&#45;&gt;page1_3</title>
<path fill="none" stroke="#000000" stroke-dasharray="5,2" d="M353,-87.8314C353,-80.131 353,-70.9743 353,-62.4166"/>
<polygon fill="#000000" stroke="#000000" points="356.5001,-62.4132 353,-52.4133 349.5001,-62.4133 356.5001,-62.4132"/>
</g>
<!-- page2_1 -->
<g id="node4" class="node">
<title>page2_1</title>
<ellipse fill="none" stroke="#000000" cx="453" cy="-178" rx="40.1317" ry="18"/>
<text text-anchor="middle" x="453" y="-173.8" font-family="Times,serif" font-size="14.00" fill="#000000">page2_1</text>
</g>
<!-- page2_2 -->
<g id="node5" class="node">
<title>page2_2</title>
<ellipse fill="none" stroke="#000000" cx="453" cy="-106" rx="40.1317" ry="18"/>
<text text-anchor="middle" x="453" y="-101.8" font-family="Times,serif" font-size="14.00" fill="#000000">page2_2</text>
</g>
<!-- page2_1&#45;&gt;page2_2 -->
<g id="edge10" class="edge">
<title>page2_1&#45;&gt;page2_2</title>
<path fill="none" stroke="#000000" d="M453,-159.8314C453,-152.131 453,-142.9743 453,-134.4166"/>
<polygon fill="#000000" stroke="#000000" points="456.5001,-134.4132 453,-124.4133 449.5001,-134.4133 456.5001,-134.4132"/>
</g>
<!-- page2_3 -->
<!-- page2_2&#45;&gt;page2_3 -->
<g id="edge11" class="edge">
<title>page2_2&#45;&gt;page2_3</title>
<path fill="none" stroke="#000000" stroke-dasharray="5,2" d="M453,-87.8314C453,-80.131 453,-70.9743 453,-62.4166"/>
<polygon fill="#000000" stroke="#000000" points="456.5001,-62.4132 453,-52.4133 449.5001,-62.4133 456.5001,-62.4132"/>
</g>
<!-- Title -->
<g id="node6" class="node">
<title>Title</title>
<ellipse fill="none" stroke="#000000" cx="43" cy="-250" rx="27" ry="18"/>
<text text-anchor="middle" x="43" y="-245.8" font-family="Times,serif" font-size="14.00" fill="#000000">Title</text>
</g>
<!-- Motivation -->
<g id="node7" class="node">
<title>Motivation</title>
<ellipse fill="none" stroke="#000000" cx="137" cy="-250" rx="49.3205" ry="18"/>
<text text-anchor="middle" x="137" y="-245.8" font-family="Times,serif" font-size="14.00" fill="#000000">Motivation</text>
</g>
<!-- Title&#45;&gt;Motivation -->
<g id="edge1" class="edge">
<title>Title&#45;&gt;Motivation</title>
<path fill="none" stroke="#000000" d="M70.1719,-250C72.505,-250 74.8381,-250 77.1712,-250"/>
<polygon fill="#000000" stroke="#000000" points="77.401,-253.5001 87.401,-250 77.401,-246.5001 77.401,-253.5001"/>
</g>
<!-- Overview -->
<g id="node8" class="node">
<title>Overview</title>
<ellipse fill="none" stroke="#000000" cx="249" cy="-250" rx="44.9509" ry="18"/>
<text text-anchor="middle" x="249" y="-245.8" font-family="Times,serif" font-size="14.00" fill="#000000">Overview</text>
</g>
<!-- Motivation&#45;&gt;Overview -->
<g id="edge2" class="edge">
<title>Motivation&#45;&gt;Overview</title>
<path fill="none" stroke="#000000" d="M186.4375,-250C188.7541,-250 191.0706,-250 193.3872,-250"/>
<polygon fill="#000000" stroke="#000000" points="193.5445,-253.5001 203.5444,-250 193.5444,-246.5001 193.5445,-253.5001"/>
</g>
<!-- Section1 -->
<g id="node9" class="node">
<title>Section1</title>
<ellipse fill="none" stroke="#000000" cx="353" cy="-250" rx="41.1093" ry="18"/>
<text text-anchor="middle" x="353" y="-245.8" font-family="Times,serif" font-size="14.00" fill="#000000">Section1</text>
</g>
<!-- Overview&#45;&gt;Section1 -->
<g id="edge3" class="edge">
<title>Overview&#45;&gt;Section1</title>
<path fill="none" stroke="#000000" d="M294.0938,-250C296.553,-250 299.0122,-250 301.4714,-250"/>
<polygon fill="#000000" stroke="#000000" points="301.5816,-253.5001 311.5815,-250 301.5815,-246.5001 301.5816,-253.5001"/>
</g>
<!-- Section1&#45;&gt;page1_1 -->
<g id="edge7" class="edge">
<title>Section1&#45;&gt;page1_1</title>
<path fill="none" stroke="#000000" d="M353,-231.8314C353,-224.131 353,-214.9743 353,-206.4166"/>
<polygon fill="#000000" stroke="#000000" points="356.5001,-206.4132 353,-196.4133 349.5001,-206.4133 356.5001,-206.4132"/>
</g>
<!-- Section2 -->
<g id="node10" class="node">
<title>Section2</title>
<ellipse fill="none" stroke="#000000" cx="453" cy="-250" rx="41.1093" ry="18"/>
<text text-anchor="middle" x="453" y="-245.8" font-family="Times,serif" font-size="14.00" fill="#000000">Section2</text>
</g>
<!-- Section1&#45;&gt;Section2 -->
<g id="edge4" class="edge">
<title>Section1&#45;&gt;Section2</title>
<path fill="none" stroke="#000000" d="M394.4063,-250C396.8524,-250 399.2986,-250 401.7448,-250"/>
<polygon fill="#000000" stroke="#000000" points="401.8013,-253.5001 411.8013,-250 401.8012,-246.5001 401.8013,-253.5001"/>
</g>
<!-- Section2&#45;&gt;page2_1 -->
<g id="edge9" class="edge">
<title>Section2&#45;&gt;page2_1</title>
<path fill="none" stroke="#000000" d="M453,-231.8314C453,-224.131 453,-214.9743 453,-206.4166"/>
<polygon fill="#000000" stroke="#000000" points="456.5001,-206.4132 453,-196.4133 449.5001,-206.4133 456.5001,-206.4132"/>
</g>
<!-- rest -->
<g id="node11" class="node">
<title>rest</title>
<ellipse fill="none" stroke="#000000" stroke-dasharray="5,2" cx="539" cy="-250" rx="27" ry="18"/>
<text text-anchor="middle" x="539" y="-245.8" font-family="Times,serif" font-size="14.00" fill="#000000">...</text>
</g>
<!-- Section2&#45;&gt;rest -->
<g id="edge5" class="edge">
<title>Section2&#45;&gt;rest</title>
<path fill="none" stroke="#000000" d="M494.3203,-250C496.7746,-250 499.229,-250 501.6833,-250"/>
<polygon fill="#000000" stroke="#000000" points="501.7734,-253.5001 511.7733,-250 501.7733,-246.5001 501.7734,-253.5001"/>
</g>
<!-- End -->
<g id="node12" class="node">
<title>End</title>
<ellipse fill="none" stroke="#000000" cx="611" cy="-250" rx="27" ry="18"/>
<text text-anchor="middle" x="611" y="-245.8" font-family="Times,serif" font-size="14.00" fill="#000000">End</text>
</g>
<!-- rest&#45;&gt;End -->
<g id="edge6" class="edge">
<title>rest&#45;&gt;End</title>
<path fill="none" stroke="#000000" d="M566,-250C568.6147,-250 571.2295,-250 573.8442,-250"/>
<polygon fill="#000000" stroke="#000000" points="573.9297,-253.5001 583.9297,-250 573.9297,-246.5001 573.9297,-253.5001"/>
</g>
</g>
</svg>
