<?xml version="1.0" encoding="UTF-8" standalone="no"?>
<!DOCTYPE svg PUBLIC "-//W3C//DTD SVG 1.1//EN"
 "http://www.w3.org/Graphics/SVG/1.1/DTD/svg11.dtd">
<!-- Generated by graphviz version 2.40.1 (20161225.0304)
 -->
<!-- Title: %3 Pages: 1 -->
<svg width="404pt" height="170pt"
 viewBox="0.00 0.00 404.00 170.00" xmlns="http://www.w3.org/2000/svg" xmlns:xlink="http://www.w3.org/1999/xlink">
<g id="graph0" class="graph" transform="scale(1 1) rotate(0) translate(4 166)">
<title>%3</title>
<g id="clust1" class="cluster">
<title>cluster_course</title>
<polygon fill="transparent" stroke="#000000" points="8,-8 8,-154 388,-154 388,-8 8,-8"/>
<text text-anchor="middle" x="198" y="-138.8" font-family="Times,serif" font-size="14.00" fill="#000000">Course structure</text>
</g>
<!-- Chapter1 -->
<g id="node1" class="node">
<title>Chapter1</title>
<ellipse fill="none" stroke="#000000" cx="59" cy="-34" rx="42.5456" ry="18"/>
<text text-anchor="middle" x="59" y="-29.8" font-family="Times,serif" font-size="14.00" fill="#000000">Chapter1</text>
</g>
<!-- Chapter2 -->
<g id="node2" class="node">
<title>Chapter2</title>
<ellipse fill="none" stroke="#000000" cx="162" cy="-34" rx="42.5456" ry="18"/>
<text text-anchor="middle" x="162" y="-29.8" font-family="Times,serif" font-size="14.00" fill="#000000">Chapter2</text>
</g>
<!-- Chapter3 -->
<g id="node3" class="node">
<title>Chapter3</title>
<ellipse fill="none" stroke="#000000" cx="265" cy="-34" rx="42.5456" ry="18"/>
<text text-anchor="middle" x="265" y="-29.8" font-family="Times,serif" font-size="14.00" fill="#000000">Chapter3</text>
</g>
<!-- rest -->
<g id="node4" class="node">
<title>rest</title>
<ellipse fill="none" stroke="#000000" cx="353" cy="-34" rx="27" ry="18"/>
<text text-anchor="middle" x="353" y="-29.8" font-family="Times,serif" font-size="14.00" fill="#000000">...</text>
</g>
<!-- Index -->
<g id="node5" class="node">
<title>Index</title>
<ellipse fill="none" stroke="#000000" cx="213" cy="-106" rx="30.4862" ry="18"/>
<text text-anchor="middle" x="213" y="-101.8" font-family="Times,serif" font-size="14.00" fill="#000000">Index</text>
</g>
<!-- Index&#45;&gt;Chapter1 -->
<g id="edge1" class="edge">
<title>Index&#45;&gt;Chapter1</title>
<path fill="none" stroke="#000000" d="M188.9375,-94.75C164.3125,-83.237 125.6872,-65.1784 96.9408,-51.7386"/>
<polygon fill="#000000" stroke="#000000" points="98.1465,-48.4387 87.6053,-47.3739 95.1818,-54.7799 98.1465,-48.4387"/>
</g>
<!-- Index&#45;&gt;Chapter2 -->
<g id="edge2" class="edge">
<title>Index&#45;&gt;Chapter2</title>
<path fill="none" stroke="#000000" d="M201.1714,-89.3008C194.981,-80.5614 187.2644,-69.6674 180.321,-59.8649"/>
<polygon fill="#000000" stroke="#000000" points="183.1123,-57.7504 174.476,-51.6132 177.4001,-61.7965 183.1123,-57.7504"/>
</g>
<!-- Index&#45;&gt;Chapter3 -->
<g id="edge3" class="edge">
<title>Index&#45;&gt;Chapter3</title>
<path fill="none" stroke="#000000" d="M225.0605,-89.3008C231.3723,-80.5614 239.2402,-69.6674 246.3198,-59.8649"/>
<polygon fill="#000000" stroke="#000000" points="249.2618,-61.7692 252.2794,-51.6132 243.587,-57.6708 249.2618,-61.7692"/>
</g>
<!-- Index&#45;&gt;rest -->
<g id="edge4" class="edge">
<title>Index&#45;&gt;rest</title>
<path fill="none" stroke="#000000" d="M236.1182,-94.1107C259.6358,-82.0159 296.2194,-63.2014 322.1876,-49.8464"/>
<polygon fill="#000000" stroke="#000000" points="323.9385,-52.8817 331.2306,-45.1957 320.737,-46.6567 323.9385,-52.8817"/>
</g>
</g>
</svg>
