<?xml version="1.0" encoding="UTF-8" standalone="no"?>
<!DOCTYPE svg PUBLIC "-//W3C//DTD SVG 1.1//EN"
 "http://www.w3.org/Graphics/SVG/1.1/DTD/svg11.dtd">
<!-- Generated by graphviz version 2.40.1 (20161225.0304)
 -->
<!-- Title: %3 Pages: 1 -->
<svg width="860pt" height="112pt"
 viewBox="0.00 0.00 859.72 112.00" xmlns="http://www.w3.org/2000/svg" xmlns:xlink="http://www.w3.org/1999/xlink">
<g id="graph0" class="graph" transform="scale(1 1) rotate(0) translate(4 108)">
<title>%3</title>
<g id="clust1" class="cluster">
<title>cluster_seven</title>
<polygon fill="transparent" stroke="#000000" points="8,-15 8,-89 327.5858,-89 327.5858,-15 8,-15"/>
<text text-anchor="middle" x="167.7929" y="-73.8" font-family="Times,serif" font-size="14.00" fill="#000000">Wednesday nov 7th</text>
</g>
<g id="clust2" class="cluster">
<title>cluster_eight</title>
<polygon fill="transparent" stroke="#000000" points="347.5858,-8 347.5858,-96 565.4883,-96 565.4883,-8 347.5858,-8"/>
<text text-anchor="middle" x="456.537" y="-80.8" font-family="Times,serif" font-size="14.00" fill="#000000">Thursday nov 8th</text>
</g>
<g id="clust3" class="cluster">
<title>cluster_twenty</title>
<polygon fill="transparent" stroke="#000000" points="585.4883,-15 585.4883,-89 700.9898,-89 700.9898,-15 585.4883,-15"/>
<text text-anchor="middle" x="643.239" y="-73.8" font-family="Times,serif" font-size="14.00" fill="#000000">Tuesday nov 20th</text>
</g>
<g id="clust4" class="cluster">
<title>cluster_twentyone</title>
<polygon fill="transparent" stroke="#000000" points="720.9898,-8 720.9898,-96 851.716,-96 851.716,-8 720.9898,-8"/>
<text text-anchor="middle" x="786.3529" y="-80.8" font-family="Times,serif" font-size="14.00" fill="#000000">Wednesday nov 21st</text>
</g>
<!-- NodeJS -->
<g id="node1" class="node">
<title>NodeJS</title>
<ellipse fill="none" stroke="#000000" cx="53.6217" cy="-41" rx="37.7439" ry="18"/>
<text text-anchor="middle" x="53.6217" y="-36.8" font-family="Times,serif" font-size="14.00" fill="#000000">NodeJS</text>
</g>
<!-- Express -->
<g id="node2" class="node">
<title>Express</title>
<ellipse fill="none" stroke="#000000" cx="165.3489" cy="-41" rx="38.211" ry="18"/>
<text text-anchor="middle" x="165.3489" y="-36.8" font-family="Times,serif" font-size="14.00" fill="#000000">Express</text>
</g>
<!-- NodeJS&#45;&gt;Express -->
<g id="edge1" class="edge">
<title>NodeJS&#45;&gt;Express</title>
<path fill="none" stroke="#000000" d="M91.4474,-41C99.6387,-41 108.4096,-41 116.944,-41"/>
<polygon fill="#000000" stroke="#000000" points="117.182,-44.5001 127.1819,-41 117.1819,-37.5001 117.182,-44.5001"/>
</g>
<!-- Firebase -->
<g id="node3" class="node">
<title>Firebase</title>
<ellipse fill="none" stroke="#000000" cx="279.52" cy="-41" rx="40.1317" ry="18"/>
<text text-anchor="middle" x="279.52" y="-36.8" font-family="Times,serif" font-size="14.00" fill="#000000">Firebase</text>
</g>
<!-- Express&#45;&gt;Firebase -->
<g id="edge2" class="edge">
<title>Express&#45;&gt;Firebase</title>
<path fill="none" stroke="#000000" d="M203.6838,-41C211.7895,-41 220.4627,-41 228.9418,-41"/>
<polygon fill="#000000" stroke="#000000" points="229.137,-44.5001 239.137,-41 229.137,-37.5001 229.137,-44.5001"/>
</g>
<!-- Firebase2 -->
<g id="node4" class="node">
<title>Firebase2</title>
<ellipse fill="none" stroke="#000000" cx="400.436" cy="-41" rx="44.7009" ry="25.4118"/>
<text text-anchor="middle" x="400.436" y="-43.8" font-family="Times,serif" font-size="14.00" fill="#000000">More</text>
<text text-anchor="middle" x="400.436" y="-29.8" font-family="Times,serif" font-size="14.00" fill="#000000">Firebase</text>
</g>
<!-- Firebase&#45;&gt;Firebase2 -->
<g id="edge4" class="edge">
<title>Firebase&#45;&gt;Firebase2</title>
<path fill="none" stroke="#000000" d="M319.7833,-41C327.891,-41 336.5461,-41 345.0656,-41"/>
<polygon fill="#000000" stroke="#000000" points="345.3442,-44.5001 355.3442,-41 345.3442,-37.5001 345.3442,-44.5001"/>
</g>
<!-- Ember3 -->
<g id="node5" class="node">
<title>Ember3</title>
<ellipse fill="none" stroke="#000000" cx="519.3872" cy="-41" rx="38.2024" ry="18"/>
<text text-anchor="middle" x="519.3872" y="-36.8" font-family="Times,serif" font-size="14.00" fill="#000000">Ember3</text>
</g>
<!-- Firebase2&#45;&gt;Ember3 -->
<g id="edge3" class="edge">
<title>Firebase2&#45;&gt;Ember3</title>
<path fill="none" stroke="#000000" d="M445.4063,-41C453.732,-41 462.4615,-41 470.8866,-41"/>
<polygon fill="#000000" stroke="#000000" points="470.9648,-44.5001 480.9648,-41 470.9647,-37.5001 470.9648,-44.5001"/>
</g>
<!-- Redis -->
<g id="node6" class="node">
<title>Redis</title>
<ellipse fill="none" stroke="#000000" cx="642.739" cy="-41" rx="30.0035" ry="18"/>
<text text-anchor="middle" x="642.739" y="-36.8" font-family="Times,serif" font-size="14.00" fill="#000000">Redis</text>
</g>
<!-- Ember3&#45;&gt;Redis -->
<g id="edge5" class="edge">
<title>Ember3&#45;&gt;Redis</title>
<path fill="none" stroke="#000000" d="M557.7403,-41C571.854,-41 587.8786,-41 602.1803,-41"/>
<polygon fill="#000000" stroke="#000000" points="602.2377,-44.5001 612.2377,-41 602.2376,-37.5001 602.2377,-44.5001"/>
</g>
<!-- Redis2 -->
<g id="node7" class="node">
<title>Redis2</title>
<ellipse fill="none" stroke="#000000" cx="785.8529" cy="-41" rx="33.7267" ry="25.4118"/>
<text text-anchor="middle" x="785.8529" y="-43.8" font-family="Times,serif" font-size="14.00" fill="#000000">More</text>
<text text-anchor="middle" x="785.8529" y="-29.8" font-family="Times,serif" font-size="14.00" fill="#000000">Redis</text>
</g>
<!-- Redis&#45;&gt;Redis2 -->
<g id="edge6" class="edge">
<title>Redis&#45;&gt;Redis2</title>
<path fill="none" stroke="#000000" d="M673.0898,-41C692.9937,-41 719.35,-41 741.5765,-41"/>
<polygon fill="#000000" stroke="#000000" points="741.7838,-44.5001 751.7837,-41 741.7837,-37.5001 741.7838,-44.5001"/>
</g>
</g>
</svg>
