<?xml version="1.0" encoding="UTF-8" standalone="no"?>
<!DOCTYPE svg PUBLIC "-//W3C//DTD SVG 1.1//EN"
 "http://www.w3.org/Graphics/SVG/1.1/DTD/svg11.dtd">
<!-- Generated by graphviz version 2.40.1 (20161225.0304)
 -->
<!-- Title: %3 Pages: 1 -->
<svg width="764pt" height="126pt"
 viewBox="0.00 0.00 763.71 126.46" xmlns="http://www.w3.org/2000/svg" xmlns:xlink="http://www.w3.org/1999/xlink">
<g id="graph0" class="graph" transform="scale(1 1) rotate(0) translate(4 122.4558)">
<title>%3</title>
<!-- stage0 -->
<g id="node1" class="node">
<title>stage0</title>
<ellipse fill="none" stroke="#000000" cx="65.9312" cy="-93" rx="51.4062" ry="25.4118"/>
<text text-anchor="middle" x="65.9312" y="-95.8" font-family="Times,serif" font-size="14.00" fill="#000000">Stage 0</text>
<text text-anchor="middle" x="65.9312" y="-81.8" font-family="Times,serif" font-size="14.00" fill="#000000">Strawman</text>
</g>
<!-- stage0desc -->
<g id="node2" class="node">
<title>stage0desc</title>
<polygon fill="none" stroke="#8b4513" points="131.7935,-50 .0688,-50 .0688,0 131.7935,0 131.7935,-50"/>
<text text-anchor="middle" x="65.9312" y="-34.8" font-family="Times,serif" font-size="14.00" fill="#8b4513">Idea from member</text>
<text text-anchor="middle" x="65.9312" y="-20.8" font-family="Times,serif" font-size="14.00" fill="#8b4513">or contributor,</text>
<text text-anchor="middle" x="65.9312" y="-6.8" font-family="Times,serif" font-size="14.00" fill="#8b4513">discussed at meeting</text>
</g>
<!-- stage0&#45;&gt;stage0desc -->
<g id="edge1" class="edge">
<title>stage0&#45;&gt;stage0desc</title>
<path fill="none" stroke="#8b4513" d="M65.9312,-67.2738C65.9312,-61.594 65.9312,-55.9142 65.9312,-50.2344"/>
</g>
<!-- stage1 -->
<g id="node3" class="node">
<title>stage1</title>
<ellipse fill="none" stroke="#000000" cx="238.0728" cy="-93" rx="45.9239" ry="25.4118"/>
<text text-anchor="middle" x="238.0728" y="-95.8" font-family="Times,serif" font-size="14.00" fill="#000000">Stage 1</text>
<text text-anchor="middle" x="238.0728" y="-81.8" font-family="Times,serif" font-size="14.00" fill="#000000">Proposal</text>
</g>
<!-- stage0&#45;&gt;stage1 -->
<g id="edge6" class="edge">
<title>stage0&#45;&gt;stage1</title>
<path fill="none" stroke="#000000" d="M117.5793,-93C137.8275,-93 161.1187,-93 181.7937,-93"/>
<polygon fill="#000000" stroke="#000000" points="182.0215,-96.5001 192.0215,-93 182.0215,-89.5001 182.0215,-96.5001"/>
</g>
<!-- stage1desc -->
<g id="node4" class="node">
<title>stage1desc</title>
<polygon fill="none" stroke="#8b4513" points="308.4943,-50 167.6512,-50 167.6512,0 308.4943,0 308.4943,-50"/>
<text text-anchor="middle" x="238.0728" y="-34.8" font-family="Times,serif" font-size="14.00" fill="#8b4513">Gets a champion.</text>
<text text-anchor="middle" x="238.0728" y="-20.8" font-family="Times,serif" font-size="14.00" fill="#8b4513">Thorough description.</text>
<text text-anchor="middle" x="238.0728" y="-6.8" font-family="Times,serif" font-size="14.00" fill="#8b4513">Demos and polyfills.</text>
</g>
<!-- stage1&#45;&gt;stage1desc -->
<g id="edge2" class="edge">
<title>stage1&#45;&gt;stage1desc</title>
<path fill="none" stroke="#8b4513" d="M238.0728,-67.2738C238.0728,-61.594 238.0728,-55.9142 238.0728,-50.2344"/>
</g>
<!-- stage2 -->
<g id="node5" class="node">
<title>stage2</title>
<ellipse fill="none" stroke="#000000" cx="407.1074" cy="-93" rx="40.965" ry="25.4118"/>
<text text-anchor="middle" x="407.1074" y="-95.8" font-family="Times,serif" font-size="14.00" fill="#000000">Stage 2</text>
<text text-anchor="middle" x="407.1074" y="-81.8" font-family="Times,serif" font-size="14.00" fill="#000000">Draft</text>
</g>
<!-- stage1&#45;&gt;stage2 -->
<g id="edge7" class="edge">
<title>stage1&#45;&gt;stage2</title>
<path fill="none" stroke="#000000" d="M284.2622,-93C306.4713,-93 333.1602,-93 355.9796,-93"/>
<polygon fill="#000000" stroke="#000000" points="356.1619,-96.5001 366.1619,-93 356.1619,-89.5001 356.1619,-96.5001"/>
</g>
<!-- stage2desc -->
<g id="node6" class="node">
<title>stage2desc</title>
<polygon fill="none" stroke="#8b4513" points="469.7563,-50 344.4585,-50 344.4585,-14 469.7563,-14 469.7563,-50"/>
<text text-anchor="middle" x="407.1074" y="-34.8" font-family="Times,serif" font-size="14.00" fill="#8b4513">Formal description.</text>
<text text-anchor="middle" x="407.1074" y="-20.8" font-family="Times,serif" font-size="14.00" fill="#8b4513">Implementations.</text>
</g>
<!-- stage2&#45;&gt;stage2desc -->
<g id="edge3" class="edge">
<title>stage2&#45;&gt;stage2desc</title>
<path fill="none" stroke="#8b4513" d="M407.1074,-67.5337C407.1074,-61.7256 407.1074,-55.9175 407.1074,-50.1094"/>
</g>
<!-- stage3 -->
<g id="node7" class="node">
<title>stage3</title>
<ellipse fill="none" stroke="#000000" cx="558.4438" cy="-93" rx="51.3965" ry="25.4118"/>
<text text-anchor="middle" x="558.4438" y="-95.8" font-family="Times,serif" font-size="14.00" fill="#000000">Stage 3</text>
<text text-anchor="middle" x="558.4438" y="-81.8" font-family="Times,serif" font-size="14.00" fill="#000000">Candidate</text>
</g>
<!-- stage2&#45;&gt;stage3 -->
<g id="edge8" class="edge">
<title>stage2&#45;&gt;stage3</title>
<path fill="none" stroke="#000000" d="M448.0612,-93C463.067,-93 480.3982,-93 496.8155,-93"/>
<polygon fill="#000000" stroke="#000000" points="496.8906,-96.5001 506.8906,-93 496.8906,-89.5001 496.8906,-96.5001"/>
</g>
<!-- stage3desc -->
<g id="node8" class="node">
<title>stage3desc</title>
<polygon fill="none" stroke="#8b4513" points="610.9683,-50 505.9194,-50 505.9194,-14 610.9683,-14 610.9683,-50"/>
<text text-anchor="middle" x="558.4438" y="-27.8" font-family="Times,serif" font-size="14.00" fill="#8b4513">Spec completed</text>
</g>
<!-- stage3&#45;&gt;stage3desc -->
<g id="edge4" class="edge">
<title>stage3&#45;&gt;stage3desc</title>
<path fill="none" stroke="#8b4513" d="M558.4438,-67.5337C558.4438,-61.7256 558.4438,-55.9175 558.4438,-50.1094"/>
</g>
<!-- stage4 -->
<g id="node9" class="node">
<title>stage4</title>
<ellipse fill="none" stroke="#000000" cx="701.3311" cy="-93" rx="45.3316" ry="25.4118"/>
<text text-anchor="middle" x="701.3311" y="-95.8" font-family="Times,serif" font-size="14.00" fill="#000000">Stage 4</text>
<text text-anchor="middle" x="701.3311" y="-81.8" font-family="Times,serif" font-size="14.00" fill="#000000">Finished</text>
</g>
<!-- stage3&#45;&gt;stage4 -->
<g id="edge9" class="edge">
<title>stage3&#45;&gt;stage4</title>
<path fill="none" stroke="#000000" d="M610.0294,-93C621.5293,-93 633.7748,-93 645.439,-93"/>
<polygon fill="#000000" stroke="#000000" points="645.5065,-96.5001 655.5065,-93 645.5064,-89.5001 645.5065,-96.5001"/>
</g>
<!-- stage4desc -->
<g id="node10" class="node">
<title>stage4desc</title>
<polygon fill="none" stroke="#8b4513" points="755.5813,-50 647.0808,-50 647.0808,-14 755.5813,-14 755.5813,-50"/>
<text text-anchor="middle" x="701.3311" y="-34.8" font-family="Times,serif" font-size="14.00" fill="#8b4513">Will be included</text>
<text text-anchor="middle" x="701.3311" y="-20.8" font-family="Times,serif" font-size="14.00" fill="#8b4513">in next release</text>
</g>
<!-- stage4&#45;&gt;stage4desc -->
<g id="edge5" class="edge">
<title>stage4&#45;&gt;stage4desc</title>
<path fill="none" stroke="#8b4513" d="M701.3311,-67.5337C701.3311,-61.7256 701.3311,-55.9175 701.3311,-50.1094"/>
</g>
</g>
</svg>
