<?xml version="1.0" encoding="UTF-8" standalone="no"?>
<!DOCTYPE svg PUBLIC "-//W3C//DTD SVG 1.1//EN"
 "http://www.w3.org/Graphics/SVG/1.1/DTD/svg11.dtd">
<!-- Generated by graphviz version 2.40.1 (20161225.0304)
 -->
<!-- Title: executionGraphG Pages: 1 -->
<svg width="75pt" height="216pt"
 viewBox="0.00 0.00 75.35 216.00" xmlns="http://www.w3.org/2000/svg" xmlns:xlink="http://www.w3.org/1999/xlink">
<g id="graph0" class="graph" transform="scale(1 1) rotate(0) translate(4 212)">
<title>executionGraphG</title>
<polygon fill="#ffffff" stroke="transparent" points="-4,4 -4,-212 71.35,-212 71.35,4 -4,4"/>
<!-- g2 -->
<g id="node1" class="node">
<title>g2</title>
<ellipse fill="none" stroke="#000000" cx="33.675" cy="-190" rx="33.8509" ry="18"/>
<text text-anchor="middle" x="33.675" y="-185.8" font-family="Times,serif" font-size="14.00" fill="#000000">f(g(1))</text>
</g>
<!-- g1 -->
<g id="node2" class="node">
<title>g1</title>
<ellipse fill="none" stroke="#000000" cx="33.675" cy="-104" rx="33.8509" ry="18"/>
<text text-anchor="middle" x="33.675" y="-99.8" font-family="Times,serif" font-size="14.00" fill="#000000">f(g(0))</text>
</g>
<!-- g2&#45;&gt;g1 -->
<g id="edge1" class="edge">
<title>g2&#45;&gt;g1</title>
<path fill="none" stroke="#000000" d="M33.675,-171.7616C33.675,-160.3597 33.675,-145.4342 33.675,-132.494"/>
<polygon fill="#000000" stroke="#000000" points="37.1751,-132.2121 33.675,-122.2121 30.1751,-132.2121 37.1751,-132.2121"/>
<text text-anchor="middle" x="45.3371" y="-142.8" font-family="Times,serif" font-size="14.00" fill="#000000">g(1)</text>
</g>
<!-- g0 -->
<g id="node3" class="node">
<title>g0</title>
<ellipse fill="none" stroke="#000000" cx="33.675" cy="-18" rx="27" ry="18"/>
<text text-anchor="middle" x="33.675" y="-13.8" font-family="Times,serif" font-size="14.00" fill="#000000">f(0)</text>
</g>
<!-- g1&#45;&gt;g0 -->
<g id="edge2" class="edge">
<title>g1&#45;&gt;g0</title>
<path fill="none" stroke="#000000" d="M33.675,-85.7616C33.675,-74.3597 33.675,-59.4342 33.675,-46.494"/>
<polygon fill="#000000" stroke="#000000" points="37.1751,-46.2121 33.675,-36.2121 30.1751,-46.2121 37.1751,-46.2121"/>
<text text-anchor="middle" x="45.3371" y="-56.8" font-family="Times,serif" font-size="14.00" fill="#000000">g(0)</text>
</g>
</g>
</svg>
