<?xml version="1.0" encoding="UTF-8" standalone="no"?>
<!DOCTYPE svg PUBLIC "-//W3C//DTD SVG 1.1//EN"
 "http://www.w3.org/Graphics/SVG/1.1/DTD/svg11.dtd">
<!-- Generated by graphviz version 2.40.1 (20161225.0304)
 -->
<!-- Title: %3 Pages: 1 -->
<svg width="282pt" height="98pt"
 viewBox="0.00 0.00 282.47 98.00" xmlns="http://www.w3.org/2000/svg" xmlns:xlink="http://www.w3.org/1999/xlink">
<g id="graph0" class="graph" transform="scale(1 1) rotate(0) translate(4 94)">
<title>%3</title>
<!-- list -->
<g id="node1" class="node">
<title>list</title>
<ellipse fill="none" stroke="#000000" cx="35.6397" cy="-72" rx="27" ry="18"/>
<text text-anchor="middle" x="35.6397" y="-67.8" font-family="Times,serif" font-size="14.00" fill="#000000">list</text>
</g>
<!-- map -->
<g id="node2" class="node">
<title>map</title>
<polygon fill="none" stroke="#000000" points="161.2795,-63 107.2795,-63 107.2795,-27 161.2795,-27 161.2795,-63"/>
<text text-anchor="middle" x="134.2795" y="-40.8" font-family="Times,serif" font-size="14.00" fill="#000000">map</text>
</g>
<!-- list&#45;&gt;map -->
<g id="edge1" class="edge">
<title>list&#45;&gt;map</title>
<path fill="none" stroke="#000000" d="M60.7859,-65.1169C71.845,-62.0898 85.0585,-58.4729 97.2121,-55.1462"/>
<polygon fill="#000000" stroke="#000000" points="98.3802,-58.4553 107.1014,-52.4393 96.5321,-51.7036 98.3802,-58.4553"/>
</g>
<!-- newList -->
<g id="node4" class="node">
<title>newList</title>
<ellipse fill="none" stroke="#000000" cx="235.8771" cy="-45" rx="38.6955" ry="18"/>
<text text-anchor="middle" x="235.8771" y="-40.8" font-family="Times,serif" font-size="14.00" fill="#000000">newList</text>
</g>
<!-- map&#45;&gt;newList -->
<g id="edge3" class="edge">
<title>map&#45;&gt;newList</title>
<path fill="none" stroke="#000000" d="M161.5058,-45C169.3637,-45 178.1885,-45 186.9396,-45"/>
<polygon fill="#000000" stroke="#000000" points="187.1164,-48.5001 197.1164,-45 187.1164,-41.5001 187.1164,-48.5001"/>
</g>
<!-- iterator -->
<g id="node3" class="node">
<title>iterator</title>
<ellipse fill="none" stroke="#000000" cx="35.6397" cy="-18" rx="35.78" ry="18"/>
<text text-anchor="middle" x="35.6397" y="-13.8" font-family="Times,serif" font-size="14.00" fill="#000000">iterator</text>
</g>
<!-- iterator&#45;&gt;map -->
<g id="edge2" class="edge">
<title>iterator&#45;&gt;map</title>
<path fill="none" stroke="#000000" d="M67.1212,-26.6172C76.7625,-29.2563 87.4549,-32.183 97.4209,-34.911"/>
<polygon fill="#000000" stroke="#000000" points="96.5097,-38.2902 107.0789,-37.5546 98.3578,-31.5386 96.5097,-38.2902"/>
</g>
</g>
</svg>
