<?xml version="1.0" encoding="UTF-8" standalone="no"?>
<!DOCTYPE svg PUBLIC "-//W3C//DTD SVG 1.1//EN"
 "http://www.w3.org/Graphics/SVG/1.1/DTD/svg11.dtd">
<!-- Generated by graphviz version 2.40.1 (20161225.0304)
 -->
<!-- Title: %3 Pages: 1 -->
<svg width="254pt" height="114pt"
 viewBox="0.00 0.00 253.99 114.00" xmlns="http://www.w3.org/2000/svg" xmlns:xlink="http://www.w3.org/1999/xlink">
<g id="graph0" class="graph" transform="scale(1 1) rotate(0) translate(4 110)">
<title>%3</title>
<!-- start -->
<g id="node1" class="node">
<title>start</title>
<ellipse fill="none" stroke="#000000" cx="27" cy="-41" rx="27" ry="18"/>
<text text-anchor="middle" x="27" y="-36.8" font-family="Times,serif" font-size="14.00" fill="#000000">start</text>
</g>
<!-- event -->
<g id="node2" class="node">
<title>event</title>
<ellipse fill="none" stroke="#000000" cx="119.2576" cy="-41" rx="29.0172" ry="18"/>
<text text-anchor="middle" x="119.2576" y="-36.8" font-family="Times,serif" font-size="14.00" fill="#000000">event</text>
</g>
<!-- start&#45;&gt;event -->
<g id="edge1" class="edge">
<title>start&#45;&gt;event</title>
<path fill="none" stroke="#000000" d="M54.1813,-41C62.1167,-41 70.9576,-41 79.5011,-41"/>
<polygon fill="#000000" stroke="#000000" points="79.694,-44.5001 89.694,-41 79.6939,-37.5001 79.694,-44.5001"/>
</g>
<!-- finish -->
<g id="node3" class="node">
<title>finish</title>
<ellipse fill="none" stroke="#000000" cx="215.2539" cy="-88" rx="29.5361" ry="18"/>
<text text-anchor="middle" x="215.2539" y="-83.8" font-family="Times,serif" font-size="14.00" fill="#000000">finish</text>
</g>
<!-- start&#45;&gt;finish -->
<g id="edge5" class="edge">
<title>start&#45;&gt;finish</title>
<path fill="none" stroke="#000000" d="M42.317,-56.0491C54.2252,-66.6516 71.7435,-79.9883 90,-86 117.7451,-95.1362 150.8549,-95.2362 176.063,-93.2669"/>
<polygon fill="#000000" stroke="#000000" points="176.7086,-96.7222 186.3439,-92.3165 176.0642,-89.7519 176.7086,-96.7222"/>
</g>
<!-- throw -->
<g id="node4" class="node">
<title>throw</title>
<ellipse fill="none" stroke="#000000" cx="215.2539" cy="-18" rx="30.9793" ry="18"/>
<text text-anchor="middle" x="215.2539" y="-13.8" font-family="Times,serif" font-size="14.00" fill="#000000">throw</text>
</g>
<!-- start&#45;&gt;throw -->
<g id="edge6" class="edge">
<title>start&#45;&gt;throw</title>
<path fill="none" stroke="#000000" d="M47.8758,-29.5158C59.8215,-23.6025 75.3126,-17.0147 90,-14 118.1588,-8.2202 150.6156,-9.4719 175.4331,-12.0367"/>
<polygon fill="#000000" stroke="#000000" points="175.2328,-15.5366 185.5667,-13.1996 176.0309,-8.5822 175.2328,-15.5366"/>
</g>
<!-- event&#45;&gt;event -->
<g id="edge2" class="edge">
<title>event&#45;&gt;event</title>
<path fill="none" stroke="#000000" d="M103.5279,-56.5414C99.1003,-66.9087 104.3435,-77 119.2576,-77 129.0449,-77 134.6674,-72.654 136.125,-66.7362"/>
<polygon fill="#000000" stroke="#000000" points="139.5749,-66.0915 134.9873,-56.5414 132.6181,-66.868 139.5749,-66.0915"/>
</g>
<!-- event&#45;&gt;finish -->
<g id="edge3" class="edge">
<title>event&#45;&gt;finish</title>
<path fill="none" stroke="#000000" d="M142.4956,-52.3774C154.5515,-58.28 169.4772,-65.5876 182.6662,-72.045"/>
<polygon fill="#000000" stroke="#000000" points="181.3767,-75.3106 191.8971,-76.5645 184.4549,-69.0237 181.3767,-75.3106"/>
</g>
<!-- event&#45;&gt;throw -->
<g id="edge4" class="edge">
<title>event&#45;&gt;throw</title>
<path fill="none" stroke="#000000" d="M146.7663,-34.4091C156.1572,-32.1591 166.8364,-29.6005 176.9216,-27.1841"/>
<polygon fill="#000000" stroke="#000000" points="177.8299,-30.5657 186.7391,-24.8319 176.1988,-23.7583 177.8299,-30.5657"/>
</g>
</g>
</svg>
