<?xml version="1.0" encoding="UTF-8" standalone="no"?>
<!DOCTYPE svg PUBLIC "-//W3C//DTD SVG 1.1//EN"
 "http://www.w3.org/Graphics/SVG/1.1/DTD/svg11.dtd">
<!-- Generated by graphviz version 2.40.1 (20161225.0304)
 -->
<!-- Title: %3 Pages: 1 -->
<svg width="295pt" height="98pt"
 viewBox="0.00 0.00 294.71 98.00" xmlns="http://www.w3.org/2000/svg" xmlns:xlink="http://www.w3.org/1999/xlink">
<g id="graph0" class="graph" transform="scale(1 1) rotate(0) translate(4 94)">
<title>%3</title>
<!-- element -->
<g id="node1" class="node">
<title>element</title>
<ellipse fill="none" stroke="#000000" cx="38.0967" cy="-72" rx="38.1937" ry="18"/>
<text text-anchor="middle" x="38.0967" y="-67.8" font-family="Times,serif" font-size="14.00" fill="#000000">element</text>
</g>
<!-- iterator -->
<g id="node2" class="node">
<title>iterator</title>
<polygon fill="none" stroke="#000000" points="168.8264,-63 111.9814,-63 111.9814,-27 168.8264,-27 168.8264,-63"/>
<text text-anchor="middle" x="140.4039" y="-40.8" font-family="Times,serif" font-size="14.00" fill="#000000">iterator</text>
</g>
<!-- element&#45;&gt;iterator -->
<g id="edge1" class="edge">
<title>element&#45;&gt;iterator</title>
<path fill="none" stroke="#000000" d="M71.5959,-63.1592C81.3862,-60.5754 92.1599,-57.7321 102.2176,-55.0778"/>
<polygon fill="#000000" stroke="#000000" points="103.1978,-58.439 111.9736,-52.5031 101.4115,-51.6708 103.1978,-58.439"/>
</g>
<!-- newItem -->
<g id="node4" class="node">
<title>newItem</title>
<ellipse fill="none" stroke="#000000" cx="245.6604" cy="-45" rx="41.092" ry="18"/>
<text text-anchor="middle" x="245.6604" y="-40.8" font-family="Times,serif" font-size="14.00" fill="#000000">newItem</text>
</g>
<!-- iterator&#45;&gt;newItem -->
<g id="edge3" class="edge">
<title>iterator&#45;&gt;newItem</title>
<path fill="none" stroke="#000000" d="M168.8878,-45C176.7646,-45 185.5626,-45 194.3133,-45"/>
<polygon fill="#000000" stroke="#000000" points="194.5062,-48.5001 204.5062,-45 194.5061,-41.5001 194.5062,-48.5001"/>
</g>
<!-- index -->
<g id="node3" class="node">
<title>index</title>
<ellipse fill="none" stroke="#000000" cx="38.0967" cy="-18" rx="29.5104" ry="18"/>
<text text-anchor="middle" x="38.0967" y="-13.8" font-family="Times,serif" font-size="14.00" fill="#000000">index</text>
</g>
<!-- index&#45;&gt;iterator -->
<g id="edge2" class="edge">
<title>index&#45;&gt;iterator</title>
<path fill="none" stroke="#000000" d="M65.5132,-25.2355C76.7035,-28.1888 89.8413,-31.656 101.9623,-34.8548"/>
<polygon fill="#000000" stroke="#000000" points="101.2777,-38.2939 111.8398,-37.4616 103.064,-31.5257 101.2777,-38.2939"/>
</g>
</g>
</svg>
