<?xml version="1.0" encoding="UTF-8" standalone="no"?>
<!DOCTYPE svg PUBLIC "-//W3C//DTD SVG 1.1//EN"
 "http://www.w3.org/Graphics/SVG/1.1/DTD/svg11.dtd">
<!-- Generated by graphviz version 2.40.1 (20161225.0304)
 -->
<!-- Title: %3 Pages: 1 -->
<svg width="264pt" height="152pt"
 viewBox="0.00 0.00 263.79 152.00" xmlns="http://www.w3.org/2000/svg" xmlns:xlink="http://www.w3.org/1999/xlink">
<g id="graph0" class="graph" transform="scale(1 1) rotate(0) translate(4 148)">
<title>%3</title>
<!-- list -->
<g id="node1" class="node">
<title>list</title>
<ellipse fill="none" stroke="#000000" cx="35.6397" cy="-126" rx="27" ry="18"/>
<text text-anchor="middle" x="35.6397" y="-121.8" font-family="Times,serif" font-size="14.00" fill="#000000">list</text>
</g>
<!-- reduce -->
<g id="node2" class="node">
<title>reduce</title>
<polygon fill="none" stroke="#000000" points="161.2795,-90 107.2795,-90 107.2795,-54 161.2795,-54 161.2795,-90"/>
<text text-anchor="middle" x="134.2795" y="-67.8" font-family="Times,serif" font-size="14.00" fill="#000000">reduce</text>
</g>
<!-- list&#45;&gt;reduce -->
<g id="edge1" class="edge">
<title>list&#45;&gt;reduce</title>
<path fill="none" stroke="#000000" d="M56.5587,-114.548C68.6202,-107.9449 84.1196,-99.4599 98.0995,-91.8066"/>
<polygon fill="#000000" stroke="#000000" points="99.9247,-94.7976 107.0156,-86.9255 96.5633,-88.6575 99.9247,-94.7976"/>
</g>
<!-- value -->
<g id="node5" class="node">
<title>value</title>
<ellipse fill="none" stroke="#000000" cx="226.5371" cy="-72" rx="29.0172" ry="18"/>
<text text-anchor="middle" x="226.5371" y="-67.8" font-family="Times,serif" font-size="14.00" fill="#000000">value</text>
</g>
<!-- reduce&#45;&gt;value -->
<g id="edge4" class="edge">
<title>reduce&#45;&gt;value</title>
<path fill="none" stroke="#000000" d="M161.4608,-72C169.3962,-72 178.237,-72 186.7806,-72"/>
<polygon fill="#000000" stroke="#000000" points="186.9735,-75.5001 196.9734,-72 186.9734,-68.5001 186.9735,-75.5001"/>
</g>
<!-- seed -->
<g id="node3" class="node">
<title>seed</title>
<ellipse fill="none" stroke="#000000" cx="35.6397" cy="-72" rx="27" ry="18"/>
<text text-anchor="middle" x="35.6397" y="-67.8" font-family="Times,serif" font-size="14.00" fill="#000000">seed</text>
</g>
<!-- seed&#45;&gt;reduce -->
<g id="edge2" class="edge">
<title>seed&#45;&gt;reduce</title>
<path fill="none" stroke="#000000" d="M62.8546,-72C73.4202,-72 85.6924,-72 97.0524,-72"/>
<polygon fill="#000000" stroke="#000000" points="97.1535,-75.5001 107.1534,-72 97.1534,-68.5001 97.1535,-75.5001"/>
</g>
<!-- iterator -->
<g id="node4" class="node">
<title>iterator</title>
<ellipse fill="none" stroke="#000000" cx="35.6397" cy="-18" rx="35.78" ry="18"/>
<text text-anchor="middle" x="35.6397" y="-13.8" font-family="Times,serif" font-size="14.00" fill="#000000">iterator</text>
</g>
<!-- iterator&#45;&gt;reduce -->
<g id="edge3" class="edge">
<title>iterator&#45;&gt;reduce</title>
<path fill="none" stroke="#000000" d="M60.0226,-31.3483C71.4996,-37.6314 85.4216,-45.2529 98.0953,-52.1911"/>
<polygon fill="#000000" stroke="#000000" points="96.598,-55.3615 107.0503,-57.0935 99.9594,-49.2214 96.598,-55.3615"/>
</g>
</g>
</svg>
