<?xml version="1.0" encoding="UTF-8" standalone="no"?>
<!DOCTYPE svg PUBLIC "-//W3C//DTD SVG 1.1//EN"
 "http://www.w3.org/Graphics/SVG/1.1/DTD/svg11.dtd">
<!-- Generated by graphviz version 2.40.1 (20161225.0304)
 -->
<!-- Title: %3 Pages: 1 -->
<svg width="476pt" height="206pt"
 viewBox="0.00 0.00 476.29 206.00" xmlns="http://www.w3.org/2000/svg" xmlns:xlink="http://www.w3.org/1999/xlink">
<g id="graph0" class="graph" transform="scale(1 1) rotate(0) translate(4 202)">
<title>%3</title>
<g id="clust2" class="cluster">
<title>cluster_reducer</title>
<polygon fill="transparent" stroke="#000000" points="82,-8 82,-190 354.2724,-190 354.2724,-8 82,-8"/>
<text text-anchor="middle" x="218.1362" y="-174.8" font-family="Times,serif" font-size="14.00" fill="#000000">reducer</text>
</g>
<!-- list -->
<g id="node1" class="node">
<title>list</title>
<ellipse fill="none" stroke="#000000" cx="27" cy="-88" rx="27" ry="18"/>
<text text-anchor="middle" x="27" y="-83.8" font-family="Times,serif" font-size="14.00" fill="#000000">list</text>
</g>
<!-- item1 -->
<g id="node6" class="node">
<title>item1</title>
<ellipse fill="none" stroke="#000000" cx="120.2464" cy="-142" rx="30.4949" ry="18"/>
<text text-anchor="middle" x="120.2464" y="-137.8" font-family="Times,serif" font-size="14.00" fill="#000000">item1</text>
</g>
<!-- list&#45;&gt;item1 -->
<g id="edge12" class="edge">
<title>list&#45;&gt;item1</title>
<path fill="none" stroke="#000000" d="M47.6944,-99.9844C60.0182,-107.1212 75.8859,-116.3104 89.6378,-124.2742"/>
<polygon fill="#000000" stroke="#000000" points="87.903,-127.3141 98.3106,-129.2967 91.411,-121.2565 87.903,-127.3141"/>
</g>
<!-- item2 -->
<g id="node8" class="node">
<title>item2</title>
<ellipse fill="none" stroke="#000000" cx="120.2464" cy="-88" rx="30.4949" ry="18"/>
<text text-anchor="middle" x="120.2464" y="-83.8" font-family="Times,serif" font-size="14.00" fill="#000000">item2</text>
</g>
<!-- list&#45;&gt;item2 -->
<g id="edge13" class="edge">
<title>list&#45;&gt;item2</title>
<path fill="none" stroke="#000000" d="M54.4727,-88C62.3403,-88 71.0886,-88 79.57,-88"/>
<polygon fill="#000000" stroke="#000000" points="79.706,-91.5001 89.706,-88 79.706,-84.5001 79.706,-91.5001"/>
</g>
<!-- item3 -->
<g id="node10" class="node">
<title>item3</title>
<ellipse fill="none" stroke="#000000" cx="120.2464" cy="-34" rx="30.4949" ry="18"/>
<text text-anchor="middle" x="120.2464" y="-29.8" font-family="Times,serif" font-size="14.00" fill="#000000">item3</text>
</g>
<!-- list&#45;&gt;item3 -->
<g id="edge14" class="edge">
<title>list&#45;&gt;item3</title>
<path fill="none" stroke="#000000" d="M47.6944,-76.0156C60.0182,-68.8788 75.8859,-59.6896 89.6378,-51.7258"/>
<polygon fill="#000000" stroke="#000000" points="91.411,-54.7435 98.3106,-46.7033 87.903,-48.6859 91.411,-54.7435"/>
</g>
<!-- seed -->
<g id="node2" class="node">
<title>seed</title>
<ellipse fill="none" stroke="#000000" cx="27" cy="-142" rx="27" ry="18"/>
<text text-anchor="middle" x="27" y="-137.8" font-family="Times,serif" font-size="14.00" fill="#000000">seed</text>
</g>
<!-- seed&#45;&gt;list -->
<g id="edge10" class="edge">
<title>seed&#45;&gt;list</title>
<path fill="none" stroke="transparent" d="M27,-123.7902C27,-121.3082 27,-118.8262 27,-116.3443"/>
<polygon fill="transparent" stroke="transparent" points="30.5001,-116.1406 27,-106.1406 23.5001,-116.1407 30.5001,-116.1406"/>
</g>
<!-- iterator1 -->
<g id="node3" class="node">
<title>iterator1</title>
<polygon fill="none" stroke="#000000" points="243.1258,-160 186.2808,-160 186.2808,-124 243.1258,-124 243.1258,-160"/>
<text text-anchor="middle" x="214.7033" y="-137.8" font-family="Times,serif" font-size="14.00" fill="#000000">iterator</text>
</g>
<!-- seed&#45;&gt;iterator1 -->
<g id="edge11" class="edge">
<title>seed&#45;&gt;iterator1</title>
<path fill="none" stroke="#000000" d="M46.8019,-154.4614C56.9186,-160.1012 69.6699,-166.1367 82,-169 111.6523,-175.8858 120.6525,-175.0186 150.4929,-169 159.3642,-167.2107 168.536,-164.1602 177.0745,-160.7388"/>
<polygon fill="#000000" stroke="#000000" points="178.5689,-163.9066 186.3958,-156.7658 175.8242,-157.4671 178.5689,-163.9066"/>
</g>
<!-- seed&#45;&gt;item1 -->
<g id="edge9" class="edge">
<title>seed&#45;&gt;item1</title>
<path fill="none" stroke="transparent" d="M54.4727,-142C62.3403,-142 71.0886,-142 79.57,-142"/>
<polygon fill="transparent" stroke="transparent" points="79.706,-145.5001 89.706,-142 79.706,-138.5001 79.706,-145.5001"/>
</g>
<!-- value1 -->
<g id="node7" class="node">
<title>value1</title>
<ellipse fill="none" stroke="#000000" cx="312.5931" cy="-142" rx="33.8596" ry="18"/>
<text text-anchor="middle" x="312.5931" y="-137.8" font-family="Times,serif" font-size="14.00" fill="#000000">value1</text>
</g>
<!-- iterator1&#45;&gt;value1 -->
<g id="edge2" class="edge">
<title>iterator1&#45;&gt;value1</title>
<path fill="none" stroke="#000000" d="M243.0171,-142C251.0529,-142 259.9969,-142 268.7233,-142"/>
<polygon fill="#000000" stroke="#000000" points="268.8001,-145.5001 278.8,-142 268.8,-138.5001 268.8001,-145.5001"/>
</g>
<!-- iterator2 -->
<g id="node4" class="node">
<title>iterator2</title>
<polygon fill="none" stroke="#000000" points="243.1258,-106 186.2808,-106 186.2808,-70 243.1258,-70 243.1258,-106"/>
<text text-anchor="middle" x="214.7033" y="-83.8" font-family="Times,serif" font-size="14.00" fill="#000000">iterator</text>
</g>
<!-- value2 -->
<g id="node9" class="node">
<title>value2</title>
<ellipse fill="none" stroke="#000000" cx="312.5931" cy="-88" rx="33.8596" ry="18"/>
<text text-anchor="middle" x="312.5931" y="-83.8" font-family="Times,serif" font-size="14.00" fill="#000000">value2</text>
</g>
<!-- iterator2&#45;&gt;value2 -->
<g id="edge4" class="edge">
<title>iterator2&#45;&gt;value2</title>
<path fill="none" stroke="#000000" d="M243.0171,-88C251.0529,-88 259.9969,-88 268.7233,-88"/>
<polygon fill="#000000" stroke="#000000" points="268.8001,-91.5001 278.8,-88 268.8,-84.5001 268.8001,-91.5001"/>
</g>
<!-- iterator3 -->
<g id="node5" class="node">
<title>iterator3</title>
<polygon fill="none" stroke="#000000" points="243.1258,-52 186.2808,-52 186.2808,-16 243.1258,-16 243.1258,-52"/>
<text text-anchor="middle" x="214.7033" y="-29.8" font-family="Times,serif" font-size="14.00" fill="#000000">iterator</text>
</g>
<!-- value3 -->
<g id="node11" class="node">
<title>value3</title>
<ellipse fill="none" stroke="#000000" cx="312.5931" cy="-34" rx="33.8596" ry="18"/>
<text text-anchor="middle" x="312.5931" y="-29.8" font-family="Times,serif" font-size="14.00" fill="#000000">value3</text>
</g>
<!-- iterator3&#45;&gt;value3 -->
<g id="edge6" class="edge">
<title>iterator3&#45;&gt;value3</title>
<path fill="none" stroke="#000000" d="M243.0171,-34C251.0529,-34 259.9969,-34 268.7233,-34"/>
<polygon fill="#000000" stroke="#000000" points="268.8001,-37.5001 278.8,-34 268.8,-30.5001 268.8001,-37.5001"/>
</g>
<!-- item1&#45;&gt;iterator1 -->
<g id="edge1" class="edge">
<title>item1&#45;&gt;iterator1</title>
<path fill="none" stroke="#000000" d="M150.6531,-142C158.7816,-142 167.6747,-142 176.178,-142"/>
<polygon fill="#000000" stroke="#000000" points="176.2791,-145.5001 186.2791,-142 176.2791,-138.5001 176.2791,-145.5001"/>
</g>
<!-- value1&#45;&gt;iterator2 -->
<g id="edge7" class="edge">
<title>value1&#45;&gt;iterator2:w</title>
<path fill="none" stroke="#000000" d="M285.832,-130.7176C273.0236,-125.6542 257.3623,-119.9459 242.9138,-116 230.6746,-112.6575 194.8512,-115.7253 186.7033,-106 184.6964,-103.6046 183.0367,-100.334 182.236,-97.2375"/>
<polygon fill="#000000" stroke="#000000" points="185.5005,-98.5263 186.7033,-88 179.1987,-95.4787 185.5005,-98.5263"/>
</g>
<!-- item2&#45;&gt;iterator2 -->
<g id="edge3" class="edge">
<title>item2&#45;&gt;iterator2</title>
<path fill="none" stroke="#000000" d="M150.6531,-88C158.7816,-88 167.6747,-88 176.178,-88"/>
<polygon fill="#000000" stroke="#000000" points="176.2791,-91.5001 186.2791,-88 176.2791,-84.5001 176.2791,-91.5001"/>
</g>
<!-- value2&#45;&gt;iterator3 -->
<g id="edge8" class="edge">
<title>value2&#45;&gt;iterator3:w</title>
<path fill="none" stroke="#000000" d="M285.832,-76.7176C273.0236,-71.6542 257.3623,-65.9459 242.9138,-62 230.6746,-58.6575 194.8512,-61.7253 186.7033,-52 184.6964,-49.6046 183.0367,-46.334 182.236,-43.2375"/>
<polygon fill="#000000" stroke="#000000" points="185.5005,-44.5263 186.7033,-34 179.1987,-41.4787 185.5005,-44.5263"/>
</g>
<!-- item3&#45;&gt;iterator3 -->
<g id="edge5" class="edge">
<title>item3&#45;&gt;iterator3</title>
<path fill="none" stroke="#000000" d="M150.6531,-34C158.7816,-34 167.6747,-34 176.178,-34"/>
<polygon fill="#000000" stroke="#000000" points="176.2791,-37.5001 186.2791,-34 176.2791,-30.5001 176.2791,-37.5001"/>
</g>
<!-- returnVal -->
<g id="node12" class="node">
<title>returnVal</title>
<ellipse fill="none" stroke="#000000" cx="425.2831" cy="-34" rx="43.0215" ry="18"/>
<text text-anchor="middle" x="425.2831" y="-29.8" font-family="Times,serif" font-size="14.00" fill="#000000">returnVal</text>
</g>
<!-- value3&#45;&gt;returnVal -->
<g id="edge15" class="edge">
<title>value3&#45;&gt;returnVal</title>
<path fill="none" stroke="#000000" d="M346.4038,-34C354.4186,-34 363.1616,-34 371.814,-34"/>
<polygon fill="#000000" stroke="#000000" points="371.8805,-37.5001 381.8804,-34 371.8804,-30.5001 371.8805,-37.5001"/>
</g>
</g>
</svg>
