<?xml version="1.0" encoding="UTF-8" standalone="no"?>
<!DOCTYPE svg PUBLIC "-//W3C//DTD SVG 1.1//EN"
 "http://www.w3.org/Graphics/SVG/1.1/DTD/svg11.dtd">
<!-- Generated by graphviz version 2.40.1 (20161225.0304)
 -->
<!-- Title: %3 Pages: 1 -->
<svg width="337pt" height="98pt"
 viewBox="0.00 0.00 336.94 98.00" xmlns="http://www.w3.org/2000/svg" xmlns:xlink="http://www.w3.org/1999/xlink">
<g id="graph0" class="graph" transform="scale(1 1) rotate(0) translate(4 94)">
<title>%3</title>
<!-- element -->
<g id="node1" class="node">
<title>element</title>
<ellipse fill="none" stroke="#000000" cx="55.2828" cy="-72" rx="38.1937" ry="18"/>
<text text-anchor="middle" x="55.2828" y="-67.8" font-family="Times,serif" font-size="14.00" fill="#000000">element</text>
</g>
<!-- iterator -->
<g id="node2" class="node">
<title>iterator</title>
<polygon fill="none" stroke="#000000" points="203.1985,-63 146.3535,-63 146.3535,-27 203.1985,-27 203.1985,-63"/>
<text text-anchor="middle" x="174.776" y="-40.8" font-family="Times,serif" font-size="14.00" fill="#000000">iterator</text>
</g>
<!-- element&#45;&gt;iterator -->
<g id="edge1" class="edge">
<title>element&#45;&gt;iterator</title>
<path fill="none" stroke="#000000" d="M89.8452,-64.1905C104.4061,-60.9004 121.4098,-57.0583 136.3616,-53.6799"/>
<polygon fill="#000000" stroke="#000000" points="137.3472,-57.0455 146.3299,-51.4275 135.8044,-50.2176 137.3472,-57.0455"/>
</g>
<!-- newValue -->
<g id="node4" class="node">
<title>newValue</title>
<ellipse fill="none" stroke="#000000" cx="283.9619" cy="-45" rx="44.9509" ry="18"/>
<text text-anchor="middle" x="283.9619" y="-40.8" font-family="Times,serif" font-size="14.00" fill="#000000">newValue</text>
</g>
<!-- iterator&#45;&gt;newValue -->
<g id="edge3" class="edge">
<title>iterator&#45;&gt;newValue</title>
<path fill="none" stroke="#000000" d="M203.1783,-45C210.9897,-45 219.7386,-45 228.5169,-45"/>
<polygon fill="#000000" stroke="#000000" points="228.7809,-48.5001 238.7809,-45 228.7809,-41.5001 228.7809,-48.5001"/>
</g>
<!-- currentValue -->
<g id="node3" class="node">
<title>currentValue</title>
<ellipse fill="none" stroke="#000000" cx="55.2828" cy="-18" rx="55.0664" ry="18"/>
<text text-anchor="middle" x="55.2828" y="-13.8" font-family="Times,serif" font-size="14.00" fill="#000000">currentValue</text>
</g>
<!-- currentValue&#45;&gt;iterator -->
<g id="edge2" class="edge">
<title>currentValue&#45;&gt;iterator</title>
<path fill="none" stroke="#000000" d="M100.7989,-28.2846C112.5141,-30.9317 125.0043,-33.7539 136.3218,-36.3111"/>
<polygon fill="#000000" stroke="#000000" points="135.8044,-39.7824 146.3299,-38.5725 137.3472,-32.9545 135.8044,-39.7824"/>
</g>
</g>
</svg>
