<?xml version="1.0" encoding="UTF-8" standalone="no"?>
<!DOCTYPE svg PUBLIC "-//W3C//DTD SVG 1.1//EN"
 "http://www.w3.org/Graphics/SVG/1.1/DTD/svg11.dtd">
<!-- Generated by graphviz version 2.40.1 (20161225.0304)
 -->
<!-- Title: %3 Pages: 1 -->
<svg width="208pt" height="152pt"
 viewBox="0.00 0.00 208.18 152.00" xmlns="http://www.w3.org/2000/svg" xmlns:xlink="http://www.w3.org/1999/xlink">
<g id="graph0" class="graph" transform="scale(1 1) rotate(0) translate(4 148)">
<title>%3</title>
<!-- pending -->
<g id="node1" class="node">
<title>pending</title>
<ellipse fill="none" stroke="#000000" cx="38.5976" cy="-72" rx="38.6955" ry="18"/>
<text text-anchor="middle" x="38.5976" y="-67.8" font-family="Times,serif" font-size="14.00" fill="#000000">pending</text>
</g>
<!-- resolved -->
<g id="node2" class="node">
<title>resolved</title>
<ellipse fill="none" stroke="#000000" cx="156.6853" cy="-126" rx="40.1317" ry="18"/>
<text text-anchor="middle" x="156.6853" y="-121.8" font-family="Times,serif" font-size="14.00" fill="#000000">resolved</text>
</g>
<!-- pending&#45;&gt;resolved -->
<g id="edge1" class="edge">
<title>pending&#45;&gt;resolved</title>
<path fill="none" stroke="#000000" d="M66.2839,-84.6606C82.0441,-91.8675 102.0032,-100.9946 119.1561,-108.8384"/>
<polygon fill="#000000" stroke="#000000" points="117.8024,-112.0679 128.3523,-113.0437 120.7136,-105.7019 117.8024,-112.0679"/>
</g>
<!-- rejected -->
<g id="node3" class="node">
<title>rejected</title>
<ellipse fill="none" stroke="#000000" cx="156.6853" cy="-72" rx="38.1764" ry="18"/>
<text text-anchor="middle" x="156.6853" y="-67.8" font-family="Times,serif" font-size="14.00" fill="#000000">rejected</text>
</g>
<!-- pending&#45;&gt;rejected -->
<g id="edge2" class="edge">
<title>pending&#45;&gt;rejected</title>
<path fill="none" stroke="#000000" d="M77.264,-72C87.1518,-72 97.9087,-72 108.2206,-72"/>
<polygon fill="#000000" stroke="#000000" points="108.3355,-75.5001 118.3354,-72 108.3354,-68.5001 108.3355,-75.5001"/>
</g>
<!-- cancelled -->
<g id="node4" class="node">
<title>cancelled</title>
<ellipse fill="none" stroke="#000000" stroke-dasharray="5,2" cx="156.6853" cy="-18" rx="43.4801" ry="18"/>
<text text-anchor="middle" x="156.6853" y="-13.8" font-family="Times,serif" font-size="14.00" fill="#000000">cancelled</text>
</g>
<!-- pending&#45;&gt;cancelled -->
<g id="edge3" class="edge">
<title>pending&#45;&gt;cancelled</title>
<path fill="none" stroke="#000000" stroke-dasharray="5,2" d="M66.2839,-59.3394C81.5562,-52.3556 100.7716,-43.5686 117.5554,-35.8936"/>
<polygon fill="#000000" stroke="#000000" points="119.4695,-38.867 127.1082,-31.5252 116.5584,-32.501 119.4695,-38.867"/>
</g>
</g>
</svg>
