<?xml version="1.0" encoding="UTF-8" standalone="no"?>
<!DOCTYPE svg PUBLIC "-//W3C//DTD SVG 1.1//EN"
 "http://www.w3.org/Graphics/SVG/1.1/DTD/svg11.dtd">
<!-- Generated by graphviz version 2.40.1 (20161225.0304)
 -->
<!-- Title: %3 Pages: 1 -->
<svg width="494pt" height="116pt"
 viewBox="0.00 0.00 493.91 116.00" xmlns="http://www.w3.org/2000/svg" xmlns:xlink="http://www.w3.org/1999/xlink">
<g id="graph0" class="graph" transform="scale(1 1) rotate(0) translate(4 112)">
<title>%3</title>
<!-- Firebase -->
<g id="node1" class="node">
<title>Firebase</title>
<ellipse fill="none" stroke="#000000" cx="249.7938" cy="-90" rx="40.1317" ry="18"/>
<text text-anchor="middle" x="249.7938" y="-85.8" font-family="Times,serif" font-size="14.00" fill="#000000">Firebase</text>
</g>
<!-- Auth -->
<g id="node2" class="node">
<title>Auth</title>
<ellipse fill="none" stroke="#000000" cx="27.7938" cy="-18" rx="27.589" ry="18"/>
<text text-anchor="middle" x="27.7938" y="-13.8" font-family="Times,serif" font-size="14.00" fill="#000000">Auth</text>
</g>
<!-- Firebase&#45;&gt;Auth -->
<g id="edge1" class="edge">
<title>Firebase&#45;&gt;Auth</title>
<path fill="none" stroke="#000000" d="M214.084,-81.4871C176.3862,-72.0602 115.5158,-55.5793 64.7938,-36 62.9444,-35.2861 61.0613,-34.5156 59.1734,-33.7089"/>
<polygon fill="#000000" stroke="#000000" points="60.3815,-30.4137 49.8287,-29.471 57.4903,-36.7888 60.3815,-30.4137"/>
</g>
<!-- RealtimeDB -->
<g id="node3" class="node">
<title>RealtimeDB</title>
<ellipse fill="none" stroke="#000000" cx="127.7938" cy="-18" rx="54.1317" ry="18"/>
<text text-anchor="middle" x="127.7938" y="-13.8" font-family="Times,serif" font-size="14.00" fill="#000000">RealtimeDB</text>
</g>
<!-- Firebase&#45;&gt;RealtimeDB -->
<g id="edge2" class="edge">
<title>Firebase&#45;&gt;RealtimeDB</title>
<path fill="none" stroke="#000000" d="M225.3984,-75.6028C207.6699,-65.14 183.3954,-50.8141 163.4901,-39.0667"/>
<polygon fill="#000000" stroke="#000000" points="165.082,-35.9422 154.691,-33.8738 161.5242,-41.9706 165.082,-35.9422"/>
</g>
<!-- CloudFunc -->
<g id="node4" class="node">
<title>CloudFunc</title>
<ellipse fill="none" stroke="#000000" cx="249.7938" cy="-18" rx="49.3291" ry="18"/>
<text text-anchor="middle" x="249.7938" y="-13.8" font-family="Times,serif" font-size="14.00" fill="#000000">CloudFunc</text>
</g>
<!-- Firebase&#45;&gt;CloudFunc -->
<g id="edge3" class="edge">
<title>Firebase&#45;&gt;CloudFunc</title>
<path fill="none" stroke="#000000" d="M249.7938,-71.8314C249.7938,-64.131 249.7938,-54.9743 249.7938,-46.4166"/>
<polygon fill="#000000" stroke="#000000" points="253.2939,-46.4132 249.7938,-36.4133 246.2939,-46.4133 253.2939,-46.4132"/>
</g>
<!-- Storage -->
<g id="node5" class="node">
<title>Storage</title>
<ellipse fill="none" stroke="#000000" cx="354.7938" cy="-18" rx="37.2421" ry="18"/>
<text text-anchor="middle" x="354.7938" y="-13.8" font-family="Times,serif" font-size="14.00" fill="#000000">Storage</text>
</g>
<!-- Firebase&#45;&gt;Storage -->
<g id="edge4" class="edge">
<title>Firebase&#45;&gt;Storage</title>
<path fill="none" stroke="#000000" d="M271.8052,-74.9064C287.1679,-64.372 307.8609,-50.1825 324.7402,-38.6081"/>
<polygon fill="#000000" stroke="#000000" points="326.903,-41.3689 333.171,-32.8271 322.9443,-35.5958 326.903,-41.3689"/>
</g>
<!-- Hosting -->
<g id="node6" class="node">
<title>Hosting</title>
<ellipse fill="none" stroke="#000000" cx="447.7938" cy="-18" rx="38.2284" ry="18"/>
<text text-anchor="middle" x="447.7938" y="-13.8" font-family="Times,serif" font-size="14.00" fill="#000000">Hosting</text>
</g>
<!-- Firebase&#45;&gt;Hosting -->
<g id="edge5" class="edge">
<title>Firebase&#45;&gt;Hosting</title>
<path fill="none" stroke="#000000" d="M281.3917,-78.9307C311.9937,-68.1559 359.6719,-51.2252 400.7938,-36 403.3557,-35.0515 405.9929,-34.0661 408.6487,-33.0671"/>
<polygon fill="#000000" stroke="#000000" points="410.1354,-36.2467 418.2469,-29.4311 407.6555,-29.7007 410.1354,-36.2467"/>
</g>
</g>
</svg>
