<?xml version="1.0" encoding="UTF-8" standalone="no"?>
<!DOCTYPE svg PUBLIC "-//W3C//DTD SVG 1.1//EN"
 "http://www.w3.org/Graphics/SVG/1.1/DTD/svg11.dtd">
<!-- Generated by graphviz version 2.40.1 (20161225.0304)
 -->
<!-- Title: %3 Pages: 1 -->
<svg width="461pt" height="188pt"
 viewBox="0.00 0.00 460.91 188.00" xmlns="http://www.w3.org/2000/svg" xmlns:xlink="http://www.w3.org/1999/xlink">
<g id="graph0" class="graph" transform="scale(1 1) rotate(0) translate(4 184)">
<title>%3</title>
<!-- Firebase -->
<g id="node1" class="node">
<title>Firebase</title>
<ellipse fill="none" stroke="#000000" cx="221.7938" cy="-162" rx="40.1317" ry="18"/>
<text text-anchor="middle" x="221.7938" y="-157.8" font-family="Times,serif" font-size="14.00" fill="#000000">Firebase</text>
</g>
<!-- Auth -->
<g id="node2" class="node">
<title>Auth</title>
<ellipse fill="none" stroke="#000000" cx="27.7938" cy="-90" rx="27.589" ry="18"/>
<text text-anchor="middle" x="27.7938" y="-85.8" font-family="Times,serif" font-size="14.00" fill="#000000">Auth</text>
</g>
<!-- Firebase&#45;&gt;Auth -->
<g id="edge1" class="edge">
<title>Firebase&#45;&gt;Auth</title>
<path fill="none" stroke="#000000" d="M188.3254,-151.9996C156.0075,-142.0079 105.9086,-125.6317 63.7938,-108 62.1985,-107.3321 60.5751,-106.6251 58.9441,-105.8928"/>
<polygon fill="#000000" stroke="#000000" points="60.1981,-102.6147 49.6602,-101.5183 57.2143,-108.9469 60.1981,-102.6147"/>
</g>
<!-- Database -->
<g id="node3" class="node">
<title>Database</title>
<ellipse fill="none" stroke="#000000" cx="115.7938" cy="-90" rx="42.5283" ry="18"/>
<text text-anchor="middle" x="115.7938" y="-85.8" font-family="Times,serif" font-size="14.00" fill="#000000">Database</text>
</g>
<!-- Firebase&#45;&gt;Database -->
<g id="edge2" class="edge">
<title>Firebase&#45;&gt;Database</title>
<path fill="none" stroke="#000000" d="M199.5727,-146.9064C184.2704,-136.5125 163.7297,-122.5602 146.8171,-111.0725"/>
<polygon fill="#000000" stroke="#000000" points="148.5894,-108.0453 138.3506,-105.3217 144.6562,-113.8358 148.5894,-108.0453"/>
</g>
<!-- Functions -->
<g id="node4" class="node">
<title>Functions</title>
<ellipse fill="none" stroke="#000000" cx="221.7938" cy="-90" rx="44.9855" ry="18"/>
<text text-anchor="middle" x="221.7938" y="-85.8" font-family="Times,serif" font-size="14.00" fill="#000000">Functions</text>
</g>
<!-- Firebase&#45;&gt;Functions -->
<g id="edge3" class="edge">
<title>Firebase&#45;&gt;Functions</title>
<path fill="none" stroke="#000000" d="M221.7938,-143.8314C221.7938,-136.131 221.7938,-126.9743 221.7938,-118.4166"/>
<polygon fill="#000000" stroke="#000000" points="225.2939,-118.4132 221.7938,-108.4133 218.2939,-118.4133 225.2939,-118.4132"/>
</g>
<!-- Storage -->
<g id="node5" class="node">
<title>Storage</title>
<ellipse fill="none" stroke="#000000" cx="321.7938" cy="-90" rx="37.2421" ry="18"/>
<text text-anchor="middle" x="321.7938" y="-85.8" font-family="Times,serif" font-size="14.00" fill="#000000">Storage</text>
</g>
<!-- Firebase&#45;&gt;Storage -->
<g id="edge4" class="edge">
<title>Firebase&#45;&gt;Storage</title>
<path fill="none" stroke="#000000" d="M243.4923,-146.3771C257.8386,-136.0477 276.8201,-122.381 292.5011,-111.0907"/>
<polygon fill="#000000" stroke="#000000" points="294.7526,-113.7825 300.8229,-105.099 290.6624,-108.1018 294.7526,-113.7825"/>
</g>
<!-- Hosting -->
<g id="node6" class="node">
<title>Hosting</title>
<ellipse fill="none" stroke="#000000" cx="414.7938" cy="-90" rx="38.2284" ry="18"/>
<text text-anchor="middle" x="414.7938" y="-85.8" font-family="Times,serif" font-size="14.00" fill="#000000">Hosting</text>
</g>
<!-- Firebase&#45;&gt;Hosting -->
<g id="edge5" class="edge">
<title>Firebase&#45;&gt;Hosting</title>
<path fill="none" stroke="#000000" d="M252.8767,-150.621C282.4604,-139.763 328.2103,-122.8995 367.7938,-108 370.3505,-107.0376 372.9838,-106.0418 375.6368,-105.0351"/>
<polygon fill="#000000" stroke="#000000" points="377.1291,-108.2121 385.2287,-101.3822 374.6377,-101.6704 377.1291,-108.2121"/>
</g>
<!-- Realtime -->
<g id="node7" class="node">
<title>Realtime</title>
<ellipse fill="none" stroke="#000000" cx="64.7938" cy="-18" rx="42.0611" ry="18"/>
<text text-anchor="middle" x="64.7938" y="-13.8" font-family="Times,serif" font-size="14.00" fill="#000000">Realtime</text>
</g>
<!-- Database&#45;&gt;Realtime -->
<g id="edge6" class="edge">
<title>Database&#45;&gt;Realtime</title>
<path fill="none" stroke="#000000" d="M103.4481,-72.5708C97.3089,-63.9038 89.769,-53.2592 82.9835,-43.6796"/>
<polygon fill="#000000" stroke="#000000" points="85.662,-41.4059 77.0257,-35.2687 79.9499,-45.452 85.662,-41.4059"/>
</g>
<!-- Firestore -->
<g id="node8" class="node">
<title>Firestore</title>
<ellipse fill="none" stroke="#000000" cx="166.7938" cy="-18" rx="41.5852" ry="18"/>
<text text-anchor="middle" x="166.7938" y="-13.8" font-family="Times,serif" font-size="14.00" fill="#000000">Firestore</text>
</g>
<!-- Database&#45;&gt;Firestore -->
<g id="edge7" class="edge">
<title>Database&#45;&gt;Firestore</title>
<path fill="none" stroke="#000000" d="M128.1394,-72.5708C134.2786,-63.9038 141.8185,-53.2592 148.604,-43.6796"/>
<polygon fill="#000000" stroke="#000000" points="151.6376,-45.452 154.5618,-35.2687 145.9255,-41.4059 151.6376,-45.452"/>
</g>
</g>
</svg>
