<?xml version="1.0" encoding="UTF-8" standalone="no"?>
<!DOCTYPE svg PUBLIC "-//W3C//DTD SVG 1.1//EN"
 "http://www.w3.org/Graphics/SVG/1.1/DTD/svg11.dtd">
<!-- Generated by graphviz version 2.40.1 (20161225.0304)
 -->
<!-- Title: %3 Pages: 1 -->
<svg width="628pt" height="112pt"
 viewBox="0.00 0.00 627.72 112.46" xmlns="http://www.w3.org/2000/svg" xmlns:xlink="http://www.w3.org/1999/xlink">
<g id="graph0" class="graph" transform="scale(1 1) rotate(0) translate(4 108.4558)">
<title>%3</title>
<!-- stage0 -->
<g id="node1" class="node">
<title>stage0</title>
<ellipse fill="none" stroke="#000000" cx="51.4531" cy="-79" rx="51.4062" ry="25.4118"/>
<text text-anchor="middle" x="51.4531" y="-81.8" font-family="Times,serif" font-size="14.00" fill="#000000">Stage 0</text>
<text text-anchor="middle" x="51.4531" y="-67.8" font-family="Times,serif" font-size="14.00" fill="#000000">Strawman</text>
</g>
<!-- stage0desc -->
<g id="node2" class="node">
<title>stage0desc</title>
<polygon fill="none" stroke="#8b4513" points="95.1153,-36 7.7908,-36 7.7908,0 95.1153,0 95.1153,-36"/>
<text text-anchor="middle" x="51.4531" y="-13.8" font-family="Times,serif" font-size="14.00" fill="#8b4513">21 proposals</text>
</g>
<!-- stage0&#45;&gt;stage0desc -->
<g id="edge1" class="edge">
<title>stage0&#45;&gt;stage0desc</title>
<path fill="none" stroke="#8b4513" d="M51.4531,-53.5337C51.4531,-47.7256 51.4531,-41.9175 51.4531,-36.1094"/>
</g>
<!-- stage1 -->
<g id="node3" class="node">
<title>stage1</title>
<ellipse fill="none" stroke="#000000" cx="184.8681" cy="-79" rx="45.9239" ry="25.4118"/>
<text text-anchor="middle" x="184.8681" y="-81.8" font-family="Times,serif" font-size="14.00" fill="#000000">Stage 1</text>
<text text-anchor="middle" x="184.8681" y="-67.8" font-family="Times,serif" font-size="14.00" fill="#000000">Proposal</text>
</g>
<!-- stage0&#45;&gt;stage1 -->
<g id="edge6" class="edge">
<title>stage0&#45;&gt;stage1</title>
<path fill="none" stroke="#000000" d="M103.0348,-79C111.3756,-79 120.0495,-79 128.4968,-79"/>
<polygon fill="#000000" stroke="#000000" points="128.6506,-82.5001 138.6505,-79 128.6505,-75.5001 128.6506,-82.5001"/>
</g>
<!-- stage1desc -->
<g id="node4" class="node">
<title>stage1desc</title>
<polygon fill="none" stroke="#8b4513" points="228.5303,-36 141.2058,-36 141.2058,0 228.5303,0 228.5303,-36"/>
<text text-anchor="middle" x="184.8681" y="-13.8" font-family="Times,serif" font-size="14.00" fill="#8b4513">44 proposals</text>
</g>
<!-- stage1&#45;&gt;stage1desc -->
<g id="edge2" class="edge">
<title>stage1&#45;&gt;stage1desc</title>
<path fill="none" stroke="#8b4513" d="M184.8681,-53.5337C184.8681,-47.7256 184.8681,-41.9175 184.8681,-36.1094"/>
</g>
<!-- stage2 -->
<g id="node5" class="node">
<title>stage2</title>
<ellipse fill="none" stroke="#000000" cx="310.4111" cy="-79" rx="40.965" ry="25.4118"/>
<text text-anchor="middle" x="310.4111" y="-81.8" font-family="Times,serif" font-size="14.00" fill="#000000">Stage 2</text>
<text text-anchor="middle" x="310.4111" y="-67.8" font-family="Times,serif" font-size="14.00" fill="#000000">Draft</text>
</g>
<!-- stage1&#45;&gt;stage2 -->
<g id="edge7" class="edge">
<title>stage1&#45;&gt;stage2</title>
<path fill="none" stroke="#000000" d="M230.9028,-79C240.1533,-79 249.927,-79 259.3371,-79"/>
<polygon fill="#000000" stroke="#000000" points="259.3634,-82.5001 269.3633,-79 259.3633,-75.5001 259.3634,-82.5001"/>
</g>
<!-- stage2desc -->
<g id="node6" class="node">
<title>stage2desc</title>
<polygon fill="none" stroke="#8b4513" points="354.0733,-36 266.7488,-36 266.7488,0 354.0733,0 354.0733,-36"/>
<text text-anchor="middle" x="310.4111" y="-13.8" font-family="Times,serif" font-size="14.00" fill="#8b4513">17 proposals</text>
</g>
<!-- stage2&#45;&gt;stage2desc -->
<g id="edge3" class="edge">
<title>stage2&#45;&gt;stage2desc</title>
<path fill="none" stroke="#8b4513" d="M310.4111,-53.5337C310.4111,-47.7256 310.4111,-41.9175 310.4111,-36.1094"/>
</g>
<!-- stage3 -->
<g id="node7" class="node">
<title>stage3</title>
<ellipse fill="none" stroke="#000000" cx="441.4404" cy="-79" rx="51.3965" ry="25.4118"/>
<text text-anchor="middle" x="441.4404" y="-81.8" font-family="Times,serif" font-size="14.00" fill="#000000">Stage 3</text>
<text text-anchor="middle" x="441.4404" y="-67.8" font-family="Times,serif" font-size="14.00" fill="#000000">Candidate</text>
</g>
<!-- stage2&#45;&gt;stage3 -->
<g id="edge8" class="edge">
<title>stage2&#45;&gt;stage3</title>
<path fill="none" stroke="#000000" d="M351.1513,-79C360.0888,-79 369.7477,-79 379.3102,-79"/>
<polygon fill="#000000" stroke="#000000" points="379.61,-82.5001 389.61,-79 379.61,-75.5001 379.61,-82.5001"/>
</g>
<!-- stage3desc -->
<g id="node8" class="node">
<title>stage3desc</title>
<polygon fill="none" stroke="#8b4513" points="485.1026,-36 397.7781,-36 397.7781,0 485.1026,0 485.1026,-36"/>
<text text-anchor="middle" x="441.4404" y="-13.8" font-family="Times,serif" font-size="14.00" fill="#8b4513">14 proposals</text>
</g>
<!-- stage3&#45;&gt;stage3desc -->
<g id="edge4" class="edge">
<title>stage3&#45;&gt;stage3desc</title>
<path fill="none" stroke="#8b4513" d="M441.4404,-53.5337C441.4404,-47.7256 441.4404,-41.9175 441.4404,-36.1094"/>
</g>
<!-- stage4 -->
<g id="node9" class="node">
<title>stage4</title>
<ellipse fill="none" stroke="#000000" cx="574.3043" cy="-79" rx="45.3316" ry="25.4118"/>
<text text-anchor="middle" x="574.3043" y="-81.8" font-family="Times,serif" font-size="14.00" fill="#000000">Stage 4</text>
<text text-anchor="middle" x="574.3043" y="-67.8" font-family="Times,serif" font-size="14.00" fill="#000000">Finished</text>
</g>
<!-- stage3&#45;&gt;stage4 -->
<g id="edge9" class="edge">
<title>stage3&#45;&gt;stage4</title>
<path fill="none" stroke="#000000" d="M493.1895,-79C501.4777,-79 510.0868,-79 518.4653,-79"/>
<polygon fill="#000000" stroke="#000000" points="518.5336,-82.5001 528.5336,-79 518.5335,-75.5001 518.5336,-82.5001"/>
</g>
<!-- stage4desc -->
<g id="node10" class="node">
<title>stage4desc</title>
<polygon fill="none" stroke="#8b4513" points="614.4666,-36 534.142,-36 534.142,0 614.4666,0 614.4666,-36"/>
<text text-anchor="middle" x="574.3043" y="-13.8" font-family="Times,serif" font-size="14.00" fill="#8b4513">2 proposals</text>
</g>
<!-- stage4&#45;&gt;stage4desc -->
<g id="edge5" class="edge">
<title>stage4&#45;&gt;stage4desc</title>
<path fill="none" stroke="#8b4513" d="M574.3043,-53.5337C574.3043,-47.7256 574.3043,-41.9175 574.3043,-36.1094"/>
</g>
</g>
</svg>
