<?xml version="1.0" encoding="UTF-8" standalone="no"?>
<!DOCTYPE svg PUBLIC "-//W3C//DTD SVG 1.1//EN"
 "http://www.w3.org/Graphics/SVG/1.1/DTD/svg11.dtd">
<!-- Generated by graphviz version 2.40.1 (20161225.0304)
 -->
<!-- Title: %3 Pages: 1 -->
<svg width="692pt" height="152pt"
 viewBox="0.00 0.00 691.75 152.00" xmlns="http://www.w3.org/2000/svg" xmlns:xlink="http://www.w3.org/1999/xlink">
<g id="graph0" class="graph" transform="scale(1 1) rotate(0) translate(4 148)">
<title>%3</title>
<g id="clust1" class="cluster">
<title>cluster_es2015</title>
<polygon fill="transparent" stroke="#000000" points="8,-8 8,-136 349.1763,-136 349.1763,-8 8,-8"/>
<text text-anchor="middle" x="178.5882" y="-120.8" font-family="Times,serif" font-size="14.00" fill="#000000">ES2015</text>
</g>
<g id="clust3" class="cluster">
<title>cluster_es2017</title>
<polygon fill="transparent" stroke="#000000" points="369.1763,-35 369.1763,-109 515.9074,-109 515.9074,-35 369.1763,-35"/>
<text text-anchor="middle" x="442.5418" y="-93.8" font-family="Times,serif" font-size="14.00" fill="#000000">ES2017</text>
</g>
<g id="clust4" class="cluster">
<title>cluster_es2018</title>
<polygon fill="transparent" stroke="#000000" points="535.9074,-35 535.9074,-109 675.7467,-109 675.7467,-35 535.9074,-35"/>
<text text-anchor="middle" x="605.827" y="-93.8" font-family="Times,serif" font-size="14.00" fill="#000000">ES2018</text>
</g>
<!-- symbols -->
<g id="node1" class="node">
<title>symbols</title>
<ellipse fill="none" stroke="#000000" cx="55.5908" cy="-88" rx="39.6818" ry="18"/>
<text text-anchor="middle" x="55.5908" y="-83.8" font-family="Times,serif" font-size="14.00" fill="#000000">symbols</text>
</g>
<!-- iterables -->
<g id="node2" class="node">
<title>iterables</title>
<ellipse fill="none" stroke="#000000" cx="171.2431" cy="-88" rx="40.123" ry="18"/>
<text text-anchor="middle" x="171.2431" y="-83.8" font-family="Times,serif" font-size="14.00" fill="#000000">iterables</text>
</g>
<!-- symbols&#45;&gt;iterables -->
<g id="edge1" class="edge">
<title>symbols&#45;&gt;iterables</title>
<path fill="none" stroke="#000000" d="M95.3917,-88C103.5674,-88 112.2772,-88 120.7718,-88"/>
<polygon fill="#000000" stroke="#000000" points="120.9762,-91.5001 130.9762,-88 120.9761,-84.5001 120.9762,-91.5001"/>
</g>
<!-- generators -->
<g id="node3" class="node">
<title>generators</title>
<ellipse fill="none" stroke="#000000" cx="294.2404" cy="-88" rx="46.8719" ry="18"/>
<text text-anchor="middle" x="294.2404" y="-83.8" font-family="Times,serif" font-size="14.00" fill="#000000">generators</text>
</g>
<!-- iterables&#45;&gt;generators -->
<g id="edge2" class="edge">
<title>iterables&#45;&gt;generators</title>
<path fill="none" stroke="#000000" d="M211.517,-88C219.6747,-88 228.4004,-88 237.0137,-88"/>
<polygon fill="#000000" stroke="#000000" points="237.0327,-91.5001 247.0327,-88 237.0327,-84.5001 237.0327,-91.5001"/>
</g>
<!-- async -->
<g id="node5" class="node">
<title>async</title>
<ellipse fill="none" stroke="#000000" cx="442.5418" cy="-61" rx="65.2313" ry="18"/>
<text text-anchor="middle" x="442.5418" y="-56.8" font-family="Times,serif" font-size="14.00" fill="#000000">async functions</text>
</g>
<!-- generators&#45;&gt;async -->
<g id="edge3" class="edge">
<title>generators&#45;&gt;async:w</title>
<path fill="none" stroke="#000000" d="M322.8239,-73.7094C335.5385,-68.3967 351.0943,-63.2478 366.484,-61.569"/>
<polygon fill="#000000" stroke="#000000" points="366.7555,-65.0593 376.5418,-61 366.3601,-58.0705 366.7555,-65.0593"/>
</g>
<!-- promises -->
<g id="node4" class="node">
<title>promises</title>
<ellipse fill="none" stroke="#000000" cx="294.2404" cy="-34" rx="42.0784" ry="18"/>
<text text-anchor="middle" x="294.2404" y="-29.8" font-family="Times,serif" font-size="14.00" fill="#000000">promises</text>
</g>
<!-- promises&#45;&gt;async -->
<g id="edge4" class="edge">
<title>promises&#45;&gt;async:w</title>
<path fill="none" stroke="#000000" d="M321.6973,-47.8164C334.5463,-53.2656 350.4705,-58.6461 366.2374,-60.4038"/>
<polygon fill="#000000" stroke="#000000" points="366.3563,-63.9164 376.5418,-61 366.7607,-56.9281 366.3563,-63.9164"/>
</g>
<!-- asyncgen -->
<g id="node6" class="node">
<title>asyncgen</title>
<ellipse fill="none" stroke="#000000" cx="605.827" cy="-61" rx="61.8395" ry="18"/>
<text text-anchor="middle" x="605.827" y="-56.8" font-family="Times,serif" font-size="14.00" fill="#000000">async iteration</text>
</g>
<!-- async&#45;&gt;asyncgen -->
<g id="edge5" class="edge">
<title>async&#45;&gt;asyncgen</title>
<path fill="none" stroke="#000000" d="M508.0153,-61C516.4047,-61 525.0313,-61 533.5215,-61"/>
<polygon fill="#000000" stroke="#000000" points="533.7849,-64.5001 543.7848,-61 533.7848,-57.5001 533.7849,-64.5001"/>
</g>
</g>
</svg>
