<?xml version="1.0" encoding="UTF-8" standalone="no"?>
<!DOCTYPE svg PUBLIC "-//W3C//DTD SVG 1.1//EN"
 "http://www.w3.org/Graphics/SVG/1.1/DTD/svg11.dtd">
<!-- Generated by graphviz version 2.40.1 (20161225.0304)
 -->
<!-- Title: %3 Pages: 1 -->
<svg width="1028pt" height="256pt"
 viewBox="0.00 0.00 1028.37 256.46" xmlns="http://www.w3.org/2000/svg" xmlns:xlink="http://www.w3.org/1999/xlink">
<g id="graph0" class="graph" transform="scale(1 1) rotate(0) translate(4 252.4558)">
<title>%3</title>
<!-- start -->
<g id="node1" class="node">
<title>start</title>
<ellipse fill="none" stroke="#000000" cx="51.1244" cy="-212.4558" rx="51.2492" ry="18"/>
<text text-anchor="middle" x="51.1244" y="-208.2558" font-family="Times,serif" font-size="14.00" fill="#000000">import path</text>
</g>
<!-- iscore -->
<g id="node2" class="node">
<title>iscore</title>
<polygon fill="none" stroke="#000000" points="192.0815,-230.4558 139.4157,-212.4558 192.0815,-194.4558 244.7474,-212.4558 192.0815,-230.4558"/>
<text text-anchor="middle" x="192.0815" y="-208.2558" font-family="Times,serif" font-size="14.00" fill="#000000">is core?</text>
</g>
<!-- start&#45;&gt;iscore -->
<g id="edge1" class="edge">
<title>start&#45;&gt;iscore</title>
<path fill="none" stroke="#000000" d="M102.4119,-212.4558C111.1052,-212.4558 120.2202,-212.4558 129.1705,-212.4558"/>
<polygon fill="#000000" stroke="#000000" points="129.1745,-215.9559 139.1745,-212.4558 129.1744,-208.9559 129.1745,-215.9559"/>
</g>
<!-- ispath -->
<g id="node3" class="node">
<title>ispath</title>
<polygon fill="none" stroke="#000000" points="408.4836,-248.4558 294.8448,-212.4558 408.4836,-176.4558 522.1223,-212.4558 408.4836,-248.4558"/>
<text text-anchor="middle" x="408.4836" y="-215.2558" font-family="Times,serif" font-size="14.00" fill="#000000">path begins</text>
<text text-anchor="middle" x="408.4836" y="-201.2558" font-family="Times,serif" font-size="14.00" fill="#000000">with &#39;./&#39;, &#39;/&#39; or &#39;../&#39;?</text>
</g>
<!-- iscore&#45;&gt;ispath -->
<g id="edge2" class="edge">
<title>iscore&#45;&gt;ispath</title>
<path fill="none" stroke="#000000" d="M245.0194,-212.4558C257.2028,-212.4558 270.664,-212.4558 284.4763,-212.4558"/>
<polygon fill="#000000" stroke="#000000" points="284.5827,-215.9559 294.5827,-212.4558 284.5827,-208.9559 284.5827,-215.9559"/>
<text text-anchor="middle" x="269.9142" y="-215.2558" font-family="Times,serif" font-size="14.00" fill="#000000">no</text>
</g>
<!-- loadcore -->
<g id="node9" class="node">
<title>loadcore</title>
<ellipse fill="none" stroke="#000000" cx="192.0815" cy="-133.4558" rx="47.7332" ry="25.4118"/>
<text text-anchor="middle" x="192.0815" y="-136.2558" font-family="Times,serif" font-size="14.00" fill="#000000">load core</text>
<text text-anchor="middle" x="192.0815" y="-122.2558" font-family="Times,serif" font-size="14.00" fill="#000000">module</text>
</g>
<!-- iscore&#45;&gt;loadcore -->
<g id="edge3" class="edge">
<title>iscore&#45;&gt;loadcore</title>
<path fill="none" stroke="#000000" d="M192.0815,-194.0398C192.0815,-186.6972 192.0815,-177.9796 192.0815,-169.4785"/>
<polygon fill="#000000" stroke="#000000" points="195.5816,-169.3234 192.0815,-159.3234 188.5816,-169.3234 195.5816,-169.3234"/>
<text text-anchor="middle" x="182.0815" y="-172.4838" font-family="Times,serif" font-size="14.00" fill="#000000">yes</text>
</g>
<!-- isfile -->
<g id="node4" class="node">
<title>isfile</title>
<polygon fill="none" stroke="#000000" points="408.4836,-140.4558 361.3949,-122.4558 408.4836,-104.4558 455.5722,-122.4558 408.4836,-140.4558"/>
<text text-anchor="middle" x="408.4836" y="-118.2558" font-family="Times,serif" font-size="14.00" fill="#000000">is file?</text>
</g>
<!-- ispath&#45;&gt;isfile -->
<g id="edge5" class="edge">
<title>ispath&#45;&gt;isfile</title>
<path fill="none" stroke="#000000" d="M408.4836,-176.4165C408.4836,-167.8822 408.4836,-158.8998 408.4836,-150.7651"/>
<polygon fill="#000000" stroke="#000000" points="411.9837,-150.6687 408.4836,-140.6687 404.9837,-150.6687 411.9837,-150.6687"/>
<text text-anchor="middle" x="398.4836" y="-154.2558" font-family="Times,serif" font-size="14.00" fill="#000000">yes</text>
</g>
<!-- module -->
<g id="node7" class="node">
<title>module</title>
<polygon fill="none" stroke="#000000" points="729.609,-230.4558 604.3112,-230.4558 604.3112,-194.4558 729.609,-194.4558 729.609,-230.4558"/>
<text text-anchor="middle" x="666.9601" y="-215.2558" font-family="Times,serif" font-size="14.00" fill="#000000">set path to</text>
<text text-anchor="middle" x="666.9601" y="-201.2558" font-family="Times,serif" font-size="14.00" fill="#000000">node_modules/path</text>
</g>
<!-- ispath&#45;&gt;module -->
<g id="edge4" class="edge">
<title>ispath:e&#45;&gt;module:w</title>
<path fill="none" stroke="#000000" d="M522.0529,-212.4558C554.7589,-212.4558 565.4267,-212.4558 593.6562,-212.4558"/>
<polygon fill="#000000" stroke="#000000" points="593.9602,-215.9559 603.9601,-212.4558 593.9601,-208.9559 593.9602,-215.9559"/>
<text text-anchor="middle" x="547.0529" y="-215.2558" font-family="Times,serif" font-size="14.00" fill="#000000">no</text>
</g>
<!-- ispack -->
<g id="node5" class="node">
<title>ispack</title>
<polygon fill="none" stroke="#000000" points="666.9601,-158.4558 572.1456,-122.4558 666.9601,-86.4558 761.7747,-122.4558 666.9601,-158.4558"/>
<text text-anchor="middle" x="666.9601" y="-125.2558" font-family="Times,serif" font-size="14.00" fill="#000000">dir has</text>
<text text-anchor="middle" x="666.9601" y="-111.2558" font-family="Times,serif" font-size="14.00" fill="#000000">package.json?</text>
</g>
<!-- isfile&#45;&gt;ispack -->
<g id="edge7" class="edge">
<title>isfile&#45;&gt;ispack</title>
<path fill="none" stroke="#000000" d="M455.5916,-122.4558C485.2726,-122.4558 524.8219,-122.4558 561.6777,-122.4558"/>
<polygon fill="#000000" stroke="#000000" points="561.9911,-125.9559 571.991,-122.4558 561.991,-118.9559 561.9911,-125.9559"/>
<text text-anchor="middle" x="547.0529" y="-125.2558" font-family="Times,serif" font-size="14.00" fill="#000000">no</text>
</g>
<!-- loadfile -->
<g id="node8" class="node">
<title>loadfile</title>
<ellipse fill="none" stroke="#000000" cx="408.4836" cy="-43.4558" rx="43.4645" ry="25.4118"/>
<text text-anchor="middle" x="408.4836" y="-46.2558" font-family="Times,serif" font-size="14.00" fill="#000000">load file</text>
<text text-anchor="middle" x="408.4836" y="-32.2558" font-family="Times,serif" font-size="14.00" fill="#000000">at path</text>
</g>
<!-- isfile&#45;&gt;loadfile -->
<g id="edge8" class="edge">
<title>isfile&#45;&gt;loadfile</title>
<path fill="none" stroke="#000000" d="M408.4836,-104.0398C408.4836,-96.6972 408.4836,-87.9796 408.4836,-79.4785"/>
<polygon fill="#000000" stroke="#000000" points="411.9837,-79.3234 408.4836,-69.3234 404.9837,-79.3234 411.9837,-79.3234"/>
<text text-anchor="middle" x="398.4836" y="-82.4838" font-family="Times,serif" font-size="14.00" fill="#000000">yes</text>
</g>
<!-- ismain -->
<g id="node6" class="node">
<title>ismain</title>
<polygon fill="none" stroke="#000000" points="918.4504,-158.4558 816.6085,-122.4558 918.4504,-86.4558 1020.2922,-122.4558 918.4504,-158.4558"/>
<text text-anchor="middle" x="918.4504" y="-125.2558" font-family="Times,serif" font-size="14.00" fill="#000000">package.json</text>
<text text-anchor="middle" x="918.4504" y="-111.2558" font-family="Times,serif" font-size="14.00" fill="#000000">specifies main?</text>
</g>
<!-- ispack&#45;&gt;ismain -->
<g id="edge9" class="edge">
<title>ispack:e&#45;&gt;ismain:w</title>
<path fill="none" stroke="#000000" d="M761.8673,-122.4558C782.3656,-122.4558 789.8924,-122.4558 806.337,-122.4558"/>
<polygon fill="#000000" stroke="#000000" points="806.5295,-125.9559 816.5295,-122.4558 806.5294,-118.9559 806.5295,-125.9559"/>
<text text-anchor="middle" x="789.1984" y="-125.2558" font-family="Times,serif" font-size="14.00" fill="#000000">yes</text>
</g>
<!-- loadindex -->
<g id="node11" class="node">
<title>loadindex</title>
<ellipse fill="none" stroke="#000000" cx="666.9601" cy="-25.4558" rx="61.8074" ry="25.4118"/>
<text text-anchor="middle" x="666.9601" y="-28.2558" font-family="Times,serif" font-size="14.00" fill="#000000">load index.js</text>
<text text-anchor="middle" x="666.9601" y="-14.2558" font-family="Times,serif" font-size="14.00" fill="#000000">at path</text>
</g>
<!-- ispack&#45;&gt;loadindex -->
<g id="edge10" class="edge">
<title>ispack&#45;&gt;loadindex</title>
<path fill="none" stroke="#000000" d="M666.9601,-86.1987C666.9601,-77.9518 666.9601,-69.1996 666.9601,-60.9835"/>
<polygon fill="#000000" stroke="#000000" points="670.4602,-60.9414 666.9601,-50.9415 663.4602,-60.9415 670.4602,-60.9414"/>
<text text-anchor="middle" x="656.9601" y="-64.4838" font-family="Times,serif" font-size="14.00" fill="#000000">no</text>
</g>
<!-- loadmain -->
<g id="node10" class="node">
<title>loadmain</title>
<ellipse fill="none" stroke="#000000" cx="918.4504" cy="-25.4558" rx="85.5812" ry="25.4118"/>
<text text-anchor="middle" x="918.4504" y="-28.2558" font-family="Times,serif" font-size="14.00" fill="#000000">load file</text>
<text text-anchor="middle" x="918.4504" y="-14.2558" font-family="Times,serif" font-size="14.00" fill="#000000">specified in `main`</text>
</g>
<!-- ismain&#45;&gt;loadmain -->
<g id="edge11" class="edge">
<title>ismain&#45;&gt;loadmain</title>
<path fill="none" stroke="#000000" d="M918.4504,-86.1987C918.4504,-77.9518 918.4504,-69.1996 918.4504,-60.9835"/>
<polygon fill="#000000" stroke="#000000" points="921.9505,-60.9414 918.4504,-50.9415 914.9505,-60.9415 921.9505,-60.9414"/>
<text text-anchor="middle" x="908.4504" y="-64.4838" font-family="Times,serif" font-size="14.00" fill="#000000">yes</text>
</g>
<!-- ismain&#45;&gt;loadindex -->
<g id="edge12" class="edge">
<title>ismain&#45;&gt;loadindex</title>
<path fill="none" stroke="#000000" d="M869.6985,-103.6522C827.2409,-87.2763 765.7442,-63.5569 721.628,-46.5413"/>
<polygon fill="#000000" stroke="#000000" points="722.8016,-43.2427 712.212,-42.9095 720.2825,-49.7737 722.8016,-43.2427"/>
<text text-anchor="middle" x="789.1984" y="-76.2558" font-family="Times,serif" font-size="14.00" fill="#000000">no</text>
</g>
<!-- module&#45;&gt;isfile -->
<g id="edge6" class="edge">
<title>module&#45;&gt;isfile</title>
<path fill="none" stroke="#000000" d="M615.173,-194.4239C563.9802,-176.5989 487.0983,-149.829 442.9585,-134.4598"/>
<polygon fill="#000000" stroke="#000000" points="443.8622,-131.0684 433.2674,-131.0854 441.5603,-137.6792 443.8622,-131.0684"/>
</g>
<!-- module&#45;&gt;ispack -->
<g id="edge14" class="edge">
<title>module&#45;&gt;ispack</title>
<path fill="none" stroke="transparent" d="M666.9601,-194.3861C666.9601,-185.8283 666.9601,-177.2706 666.9601,-168.7128"/>
<polygon fill="transparent" stroke="transparent" points="670.4602,-168.6667 666.9601,-158.6668 663.4602,-168.6668 670.4602,-168.6667"/>
</g>
<!-- bogus -->
<g id="node12" class="node">
<title>bogus</title>
<ellipse fill="none" stroke="transparent" cx="918.4504" cy="-212.4558" rx="27" ry="18"/>
<text text-anchor="middle" x="918.4504" y="-208.2558" font-family="Times,serif" font-size="14.00" fill="#fffffe"> </text>
</g>
<!-- module&#45;&gt;bogus -->
<g id="edge15" class="edge">
<title>module&#45;&gt;bogus</title>
<path fill="none" stroke="transparent" d="M729.773,-212.4558C777.4514,-212.4558 841.3937,-212.4558 881.2466,-212.4558"/>
<polygon fill="transparent" stroke="transparent" points="881.3247,-215.9559 891.3247,-212.4558 881.3246,-208.9559 881.3247,-215.9559"/>
</g>
<!-- loadindex&#45;&gt;loadmain -->
<g id="edge13" class="edge">
<title>loadindex&#45;&gt;loadmain</title>
<path fill="none" stroke="transparent" d="M729.1263,-25.4558C757.3453,-25.4558 791.3615,-25.4558 822.7301,-25.4558"/>
<polygon fill="transparent" stroke="transparent" points="822.8109,-28.9559 832.8109,-25.4558 822.8109,-21.9559 822.8109,-28.9559"/>
</g>
<!-- bogus&#45;&gt;ismain -->
<g id="edge16" class="edge">
<title>bogus&#45;&gt;ismain</title>
<path fill="none" stroke="transparent" d="M918.4504,-194.3861C918.4504,-185.8283 918.4504,-177.2706 918.4504,-168.7128"/>
<polygon fill="transparent" stroke="transparent" points="921.9505,-168.6667 918.4504,-158.6668 914.9505,-168.6668 921.9505,-168.6667"/>
</g>
</g>
</svg>
