<?xml version="1.0" encoding="UTF-8" standalone="no"?>
<!DOCTYPE svg PUBLIC "-//W3C//DTD SVG 1.1//EN"
 "http://www.w3.org/Graphics/SVG/1.1/DTD/svg11.dtd">
<!-- Generated by graphviz version 2.40.1 (20161225.0304)
 -->
<!-- Title: %3 Pages: 1 -->
<svg width="944pt" height="274pt"
 viewBox="0.00 0.00 943.87 274.00" xmlns="http://www.w3.org/2000/svg" xmlns:xlink="http://www.w3.org/1999/xlink">
<g id="graph0" class="graph" transform="scale(1 1) rotate(0) translate(4 270)">
<title>%3</title>
<g id="clust1" class="cluster">
<title>cluster_monolith</title>
<polygon fill="transparent" stroke="#000000" points="8,-8 8,-258 492.0835,-258 492.0835,-8 8,-8"/>
<text text-anchor="middle" x="250.0418" y="-242.8" font-family="Times,serif" font-size="14.00" fill="#000000">monolith releases</text>
</g>
<g id="clust6" class="cluster">
<title>cluster_feature</title>
<polygon fill="transparent" stroke="#000000" points="512.0835,-8 512.0835,-150 927.8702,-150 927.8702,-8 512.0835,-8"/>
<text text-anchor="middle" x="719.9769" y="-134.8" font-family="Times,serif" font-size="14.00" fill="#000000">feature releases</text>
</g>
<!-- EC3 -->
<g id="node1" class="node">
<title>EC3</title>
<ellipse fill="none" stroke="#000000" cx="69.5684" cy="-145" rx="27" ry="18"/>
<text text-anchor="middle" x="69.5684" y="-140.8" font-family="Times,serif" font-size="14.00" fill="#000000">ES3</text>
</g>
<!-- EC4 -->
<g id="node2" class="node">
<title>EC4</title>
<ellipse fill="none" stroke="#000000" stroke-dasharray="5,2" cx="242.7341" cy="-203" rx="83.695" ry="25.4118"/>
<text text-anchor="middle" x="242.7341" y="-205.8" font-family="Times,serif" font-size="14.00" fill="#000000">ES4</text>
<text text-anchor="middle" x="242.7341" y="-191.8" font-family="Times,serif" font-size="14.00" fill="#000000">(never completed)</text>
</g>
<!-- EC3&#45;&gt;EC4 -->
<g id="edge1" class="edge">
<title>EC3&#45;&gt;EC4</title>
<path fill="none" stroke="#000000" stroke-dasharray="5,2" d="M94.0115,-153.187C115.4542,-160.369 147.6438,-171.1505 176.5978,-180.8484"/>
<polygon fill="#000000" stroke="#000000" points="175.6789,-184.2316 186.2728,-184.0889 177.9022,-177.594 175.6789,-184.2316"/>
</g>
<!-- EC5 -->
<g id="node3" class="node">
<title>EC5</title>
<ellipse fill="none" stroke="#000000" cx="242.7341" cy="-88" rx="27" ry="18"/>
<text text-anchor="middle" x="242.7341" y="-83.8" font-family="Times,serif" font-size="14.00" fill="#000000">ES5</text>
</g>
<!-- EC3&#45;&gt;EC5 -->
<g id="edge2" class="edge">
<title>EC3&#45;&gt;EC5</title>
<path fill="none" stroke="#000000" d="M93.8746,-136.78C111.8772,-130.711 137.016,-122.2765 159.1367,-115 175.2636,-109.6951 193.1713,-103.8988 208.2622,-99.0414"/>
<polygon fill="#000000" stroke="#000000" points="209.7539,-102.2383 218.2032,-95.8461 207.6118,-95.5741 209.7539,-102.2383"/>
</g>
<!-- EC6 -->
<g id="node4" class="node">
<title>EC6</title>
<ellipse fill="none" stroke="#000000" cx="423.2075" cy="-95" rx="42.8313" ry="25.4118"/>
<text text-anchor="middle" x="423.2075" y="-97.8" font-family="Times,serif" font-size="14.00" fill="#000000">ES2015</text>
<text text-anchor="middle" x="423.2075" y="-83.8" font-family="Times,serif" font-size="14.00" fill="#000000">(ES6)</text>
</g>
<!-- EC5&#45;&gt;EC6 -->
<g id="edge3" class="edge">
<title>EC5&#45;&gt;EC6</title>
<path fill="none" stroke="#000000" d="M269.7528,-89.048C296.1942,-90.0735 337.1889,-91.6636 370.1571,-92.9423"/>
<polygon fill="#000000" stroke="#000000" points="370.4222,-96.4552 380.5504,-93.3455 370.6936,-89.4604 370.4222,-96.4552"/>
</g>
<!-- EC7 -->
<g id="node9" class="node">
<title>EC7</title>
<ellipse fill="none" stroke="#000000" cx="562.7488" cy="-95" rx="42.8313" ry="25.4118"/>
<text text-anchor="middle" x="562.7488" y="-97.8" font-family="Times,serif" font-size="14.00" fill="#000000">ES2016</text>
<text text-anchor="middle" x="562.7488" y="-83.8" font-family="Times,serif" font-size="14.00" fill="#000000">(ES7)</text>
</g>
<!-- EC6&#45;&gt;EC7 -->
<g id="edge14" class="edge">
<title>EC6&#45;&gt;EC7</title>
<path fill="none" stroke="#000000" d="M466.2131,-95C479.8742,-95 495.1487,-95 509.4451,-95"/>
<polygon fill="#000000" stroke="#000000" points="509.6451,-98.5001 519.645,-95 509.645,-91.5001 509.6451,-98.5001"/>
</g>
<!-- EC3desc -->
<g id="node5" class="node">
<title>EC3desc</title>
<polygon fill="none" stroke="#8b4513" points="123.2052,-109 15.9316,-109 15.9316,-73 123.2052,-73 123.2052,-109"/>
<text text-anchor="middle" x="69.5684" y="-86.8" font-family="Times,serif" font-size="14.00" fill="#8b4513">&quot;old&quot; JavaScript</text>
</g>
<!-- EC3desc&#45;&gt;EC3 -->
<g id="edge4" class="edge">
<title>EC3desc&#45;&gt;EC3</title>
<path fill="none" stroke="#8b4513" d="M69.5684,-109.1406C69.5684,-115.0238 69.5684,-120.907 69.5684,-126.7902"/>
</g>
<!-- EC4desc -->
<g id="node6" class="node">
<title>EC4desc</title>
<polygon fill="none" stroke="#8b4513" stroke-dasharray="5,2" points="301.0314,-160 184.4369,-160 184.4369,-124 301.0314,-124 301.0314,-160"/>
<text text-anchor="middle" x="242.7341" y="-144.8" font-family="Times,serif" font-size="14.00" fill="#8b4513">too many features</text>
<text text-anchor="middle" x="242.7341" y="-130.8" font-family="Times,serif" font-size="14.00" fill="#8b4513">to count</text>
</g>
<!-- EC4desc&#45;&gt;EC4 -->
<g id="edge5" class="edge">
<title>EC4desc&#45;&gt;EC4</title>
<path fill="none" stroke="#8b4513" stroke-dasharray="5,2" d="M242.7341,-160.1094C242.7341,-165.9175 242.7341,-171.7256 242.7341,-177.5337"/>
</g>
<!-- EC5desc -->
<g id="node7" class="node">
<title>EC5desc</title>
<polygon fill="none" stroke="#8b4513" points="299.7205,-52 185.7478,-52 185.7478,-16 299.7205,-16 299.7205,-52"/>
<text text-anchor="middle" x="242.7341" y="-36.8" font-family="Times,serif" font-size="14.00" fill="#8b4513">strict mode,</text>
<text text-anchor="middle" x="242.7341" y="-22.8" font-family="Times,serif" font-size="14.00" fill="#8b4513">static methods, ...</text>
</g>
<!-- EC5desc&#45;&gt;EC5 -->
<g id="edge6" class="edge">
<title>EC5desc&#45;&gt;EC5</title>
<path fill="none" stroke="#8b4513" d="M242.7341,-52.1406C242.7341,-58.0238 242.7341,-63.907 242.7341,-69.7902"/>
</g>
<!-- EC6desc -->
<g id="node8" class="node">
<title>EC6desc</title>
<polygon fill="none" stroke="#8b4513" points="483.9597,-52 362.4553,-52 362.4553,-16 483.9597,-16 483.9597,-52"/>
<text text-anchor="middle" x="423.2075" y="-36.8" font-family="Times,serif" font-size="14.00" fill="#8b4513">modules, classes,</text>
<text text-anchor="middle" x="423.2075" y="-22.8" font-family="Times,serif" font-size="14.00" fill="#8b4513">arrow functions, ...</text>
</g>
<!-- EC6desc&#45;&gt;EC6 -->
<g id="edge7" class="edge">
<title>EC6desc&#45;&gt;EC6</title>
<path fill="none" stroke="#8b4513" d="M423.2075,-52.1094C423.2075,-57.9175 423.2075,-63.7256 423.2075,-69.5337"/>
</g>
<!-- EC8 -->
<g id="node10" class="node">
<title>EC8</title>
<ellipse fill="none" stroke="#000000" cx="679.5282" cy="-95" rx="38.2284" ry="18"/>
<text text-anchor="middle" x="679.5282" y="-90.8" font-family="Times,serif" font-size="14.00" fill="#000000">ES2017</text>
</g>
<!-- EC7&#45;&gt;EC8 -->
<g id="edge8" class="edge">
<title>EC7&#45;&gt;EC8</title>
<path fill="none" stroke="#000000" d="M605.5701,-95C613.9002,-95 622.6864,-95 631.1804,-95"/>
<polygon fill="#000000" stroke="#000000" points="631.3459,-98.5001 641.3458,-95 631.3458,-91.5001 631.3459,-98.5001"/>
</g>
<!-- EC9 -->
<g id="node11" class="node">
<title>EC9</title>
<ellipse fill="none" stroke="#000000" cx="791.7562" cy="-95" rx="38.2284" ry="18"/>
<text text-anchor="middle" x="791.7562" y="-90.8" font-family="Times,serif" font-size="14.00" fill="#000000">ES2018</text>
</g>
<!-- EC8&#45;&gt;EC9 -->
<g id="edge9" class="edge">
<title>EC8&#45;&gt;EC9</title>
<path fill="none" stroke="#000000" d="M717.8368,-95C726.053,-95 734.8374,-95 743.378,-95"/>
<polygon fill="#000000" stroke="#000000" points="743.6203,-98.5001 753.6202,-95 743.6202,-91.5001 743.6203,-98.5001"/>
</g>
<!-- EC10 -->
<g id="node12" class="node">
<title>EC10</title>
<ellipse fill="none" stroke="transparent" stroke-dasharray="5,2" cx="892.8702" cy="-95" rx="27" ry="18"/>
<text text-anchor="middle" x="892.8702" y="-90.8" font-family="Times,serif" font-size="14.00" fill="#fffffe">.</text>
</g>
<!-- EC9&#45;&gt;EC10 -->
<g id="edge10" class="edge">
<title>EC9&#45;&gt;EC10</title>
<path fill="none" stroke="#000000" stroke-dasharray="5,2" d="M829.9831,-95C838.3194,-95 847.1321,-95 855.4372,-95"/>
<polygon fill="#000000" stroke="#000000" points="855.6114,-98.5001 865.6114,-95 855.6113,-91.5001 855.6114,-98.5001"/>
</g>
<!-- EC7desc -->
<g id="node13" class="node">
<title>EC7desc</title>
<polygon fill="none" stroke="#8b4513" points="598.0528,-52 527.4449,-52 527.4449,-16 598.0528,-16 598.0528,-52"/>
<text text-anchor="middle" x="562.7488" y="-29.8" font-family="Times,serif" font-size="14.00" fill="#8b4513">2 features</text>
</g>
<!-- EC7desc&#45;&gt;EC7 -->
<g id="edge11" class="edge">
<title>EC7desc&#45;&gt;EC7</title>
<path fill="none" stroke="#8b4513" d="M562.7488,-52.1094C562.7488,-57.9175 562.7488,-63.7256 562.7488,-69.5337"/>
</g>
<!-- EC8desc -->
<g id="node14" class="node">
<title>EC8desc</title>
<polygon fill="none" stroke="#8b4513" points="714.8322,-59 644.2242,-59 644.2242,-23 714.8322,-23 714.8322,-59"/>
<text text-anchor="middle" x="679.5282" y="-36.8" font-family="Times,serif" font-size="14.00" fill="#8b4513">6 features</text>
</g>
<!-- EC8desc&#45;&gt;EC8 -->
<g id="edge12" class="edge">
<title>EC8desc&#45;&gt;EC8</title>
<path fill="none" stroke="#8b4513" d="M679.5282,-59.1406C679.5282,-65.0238 679.5282,-70.907 679.5282,-76.7902"/>
</g>
<!-- EC9desc -->
<g id="node15" class="node">
<title>EC9desc</title>
<polygon fill="none" stroke="#8b4513" points="827.0602,-59 756.4522,-59 756.4522,-23 827.0602,-23 827.0602,-59"/>
<text text-anchor="middle" x="791.7562" y="-36.8" font-family="Times,serif" font-size="14.00" fill="#8b4513">8 features</text>
</g>
<!-- EC9desc&#45;&gt;EC9 -->
<g id="edge13" class="edge">
<title>EC9desc&#45;&gt;EC9</title>
<path fill="none" stroke="#8b4513" d="M791.7562,-59.1406C791.7562,-65.0238 791.7562,-70.907 791.7562,-76.7902"/>
</g>
</g>
</svg>
