<?xml version="1.0" encoding="UTF-8" standalone="no"?>
<!DOCTYPE svg PUBLIC "-//W3C//DTD SVG 1.1//EN"
 "http://www.w3.org/Graphics/SVG/1.1/DTD/svg11.dtd">
<!-- Generated by graphviz version 2.40.1 (20161225.0304)
 -->
<!-- Title: %3 Pages: 1 -->
<svg width="614pt" height="116pt"
 viewBox="0.00 0.00 614.00 116.00" xmlns="http://www.w3.org/2000/svg" xmlns:xlink="http://www.w3.org/1999/xlink">
<g id="graph0" class="graph" transform="scale(1 1) rotate(0) translate(4 112)">
<title>%3</title>
<!-- Firebase -->
<g id="node1" class="node">
<title>Firebase</title>
<ellipse fill="none" stroke="#000000" cx="317" cy="-90" rx="81.1755" ry="18"/>
<text text-anchor="middle" x="317" y="-85.8" font-family="Times,serif" font-size="14.00" fill="#000000">supported platforms</text>
</g>
<!-- iOS -->
<g id="node2" class="node">
<title>iOS</title>
<ellipse fill="none" stroke="#000000" cx="27" cy="-18" rx="27" ry="18"/>
<text text-anchor="middle" x="27" y="-13.8" font-family="Times,serif" font-size="14.00" fill="#000000">iOS</text>
</g>
<!-- Firebase&#45;&gt;iOS -->
<g id="edge1" class="edge">
<title>Firebase&#45;&gt;iOS</title>
<path fill="none" stroke="#000000" d="M248.6044,-80.3026C196.732,-71.7953 124.1705,-57.402 63,-36 61.1202,-35.3423 59.2128,-34.608 57.3072,-33.8222"/>
<polygon fill="#000000" stroke="#000000" points="58.4845,-30.5134 47.9307,-29.5815 55.5999,-36.8914 58.4845,-30.5134"/>
</g>
<!-- Android -->
<g id="node3" class="node">
<title>Android</title>
<ellipse fill="none" stroke="#000000" cx="112" cy="-18" rx="39.6645" ry="18"/>
<text text-anchor="middle" x="112" y="-13.8" font-family="Times,serif" font-size="14.00" fill="#000000">Android</text>
</g>
<!-- Firebase&#45;&gt;Android -->
<g id="edge2" class="edge">
<title>Firebase&#45;&gt;Android</title>
<path fill="none" stroke="#000000" d="M272.5422,-74.8591C241.2883,-64.1543 198.5217,-49.3845 161,-36 158.1471,-34.9823 155.204,-33.9236 152.2428,-32.8518"/>
<polygon fill="#000000" stroke="#000000" points="153.4057,-29.5505 142.8117,-29.4188 151.0113,-36.1283 153.4057,-29.5505"/>
</g>
<!-- Java -->
<g id="node4" class="node">
<title>Java</title>
<ellipse fill="none" stroke="#000000" cx="197" cy="-18" rx="27" ry="18"/>
<text text-anchor="middle" x="197" y="-13.8" font-family="Times,serif" font-size="14.00" fill="#000000">Java</text>
</g>
<!-- Firebase&#45;&gt;Java -->
<g id="edge3" class="edge">
<title>Firebase&#45;&gt;Java</title>
<path fill="none" stroke="#000000" d="M288.5617,-72.937C269.7403,-61.6442 245.1264,-46.8758 226.1594,-35.4956"/>
<polygon fill="#000000" stroke="#000000" points="227.7278,-32.355 217.3521,-30.2113 224.1263,-38.3575 227.7278,-32.355"/>
</g>
<!-- Python -->
<g id="node5" class="node">
<title>Python</title>
<ellipse fill="none" stroke="#000000" cx="277" cy="-18" rx="35.3389" ry="18"/>
<text text-anchor="middle" x="277" y="-13.8" font-family="Times,serif" font-size="14.00" fill="#000000">Python</text>
</g>
<!-- Firebase&#45;&gt;Python -->
<g id="edge4" class="edge">
<title>Firebase&#45;&gt;Python</title>
<path fill="none" stroke="#000000" d="M306.9063,-71.8314C302.2544,-63.4579 296.6459,-53.3626 291.5488,-44.1878"/>
<polygon fill="#000000" stroke="#000000" points="294.5925,-42.4595 286.6765,-35.4177 288.4734,-45.8591 294.5925,-42.4595"/>
</g>
<!-- Go -->
<g id="node6" class="node">
<title>Go</title>
<ellipse fill="none" stroke="#000000" cx="357" cy="-18" rx="27" ry="18"/>
<text text-anchor="middle" x="357" y="-13.8" font-family="Times,serif" font-size="14.00" fill="#000000">Go</text>
</g>
<!-- Firebase&#45;&gt;Go -->
<g id="edge5" class="edge">
<title>Firebase&#45;&gt;Go</title>
<path fill="none" stroke="#000000" d="M327.0937,-71.8314C331.815,-63.3329 337.5218,-53.0608 342.6791,-43.7776"/>
<polygon fill="#000000" stroke="#000000" points="345.7996,-45.3676 347.5965,-34.9263 339.6805,-41.9681 345.7996,-45.3676"/>
</g>
<!-- C -->
<g id="node7" class="node">
<title>C</title>
<ellipse fill="none" stroke="#000000" cx="429" cy="-18" rx="27" ry="18"/>
<text text-anchor="middle" x="429" y="-13.8" font-family="Times,serif" font-size="14.00" fill="#000000">C++</text>
</g>
<!-- Firebase&#45;&gt;C -->
<g id="edge6" class="edge">
<title>Firebase&#45;&gt;C</title>
<path fill="none" stroke="#000000" d="M343.5424,-72.937C360.7291,-61.8885 383.0906,-47.5132 400.6283,-36.2389"/>
<polygon fill="#000000" stroke="#000000" points="402.7876,-39.0117 409.3068,-30.6599 399.0023,-33.1234 402.7876,-39.0117"/>
</g>
<!-- Unity -->
<g id="node8" class="node">
<title>Unity</title>
<ellipse fill="none" stroke="#000000" cx="504" cy="-18" rx="30.0035" ry="18"/>
<text text-anchor="middle" x="504" y="-13.8" font-family="Times,serif" font-size="14.00" fill="#000000">Unity</text>
</g>
<!-- Firebase&#45;&gt;Unity -->
<g id="edge7" class="edge">
<title>Firebase&#45;&gt;Unity</title>
<path fill="none" stroke="#000000" d="M361.4033,-74.8758C390.9912,-64.535 430.6114,-50.1811 465,-36 466.8614,-35.2324 468.764,-34.4265 470.6783,-33.5989"/>
<polygon fill="#000000" stroke="#000000" points="472.4986,-36.6199 480.2123,-29.3571 469.6531,-30.2243 472.4986,-36.6199"/>
</g>
<!-- Web -->
<g id="node9" class="node">
<title>Web</title>
<ellipse fill="none" stroke="#000000" cx="579" cy="-18" rx="27" ry="18"/>
<text text-anchor="middle" x="579" y="-13.8" font-family="Times,serif" font-size="14.00" fill="#000000">Web</text>
</g>
<!-- Firebase&#45;&gt;Web -->
<g id="edge8" class="edge">
<title>Firebase&#45;&gt;Web</title>
<path fill="none" stroke="#000000" d="M380.9758,-78.7813C426.8673,-69.7589 489.7402,-55.3867 543,-36 544.8714,-35.3188 546.7723,-34.5662 548.6729,-33.7665"/>
<polygon fill="#000000" stroke="#000000" points="550.395,-36.8278 558.0361,-29.4885 547.486,-30.4608 550.395,-36.8278"/>
</g>
</g>
</svg>
