<?xml version="1.0" encoding="UTF-8" standalone="no"?>
<!DOCTYPE svg PUBLIC "-//W3C//DTD SVG 1.1//EN"
 "http://www.w3.org/Graphics/SVG/1.1/DTD/svg11.dtd">
<!-- Generated by graphviz version 2.40.1 (20161225.0304)
 -->
<!-- Title: %3 Pages: 1 -->
<svg width="276pt" height="98pt"
 viewBox="0.00 0.00 276.04 98.00" xmlns="http://www.w3.org/2000/svg" xmlns:xlink="http://www.w3.org/1999/xlink">
<g id="graph0" class="graph" transform="scale(1 1) rotate(0) translate(4 94)">
<title>%3</title>
<!-- file -->
<g id="node1" class="node">
<title>file</title>
<ellipse fill="none" stroke="#000000" cx="27" cy="-45" rx="27" ry="18"/>
<text text-anchor="middle" x="27" y="-40.8" font-family="Times,serif" font-size="14.00" fill="#000000">file</text>
</g>
<!-- method -->
<g id="node2" class="node">
<title>method</title>
<polygon fill="none" stroke="#000000" points="147.9897,-63 90.0034,-63 90.0034,-27 147.9897,-27 147.9897,-63"/>
<text text-anchor="middle" x="118.9966" y="-40.8" font-family="Times,serif" font-size="14.00" fill="#000000">method</text>
</g>
<!-- file&#45;&gt;method -->
<g id="edge1" class="edge">
<title>file&#45;&gt;method</title>
<path fill="none" stroke="#000000" d="M54.1044,-45C62.0927,-45 71.0012,-45 79.5959,-45"/>
<polygon fill="#000000" stroke="#000000" points="79.8409,-48.5001 89.8409,-45 79.8409,-41.5001 79.8409,-48.5001"/>
</g>
<!-- metadata -->
<g id="node3" class="node">
<title>metadata</title>
<ellipse fill="none" stroke="#000000" cx="226.0151" cy="-72" rx="42.0438" ry="18"/>
<text text-anchor="middle" x="226.0151" y="-67.8" font-family="Times,serif" font-size="14.00" fill="#000000">metadata</text>
</g>
<!-- method&#45;&gt;metadata -->
<g id="edge2" class="edge">
<title>method&#45;&gt;metadata</title>
<path fill="none" stroke="#000000" d="M148.2398,-52.3779C157.901,-54.8153 168.9011,-57.5906 179.5255,-60.271"/>
<polygon fill="#000000" stroke="#000000" points="178.9884,-63.7451 189.5407,-62.7978 180.7008,-56.9578 178.9884,-63.7451"/>
</g>
<!-- body -->
<g id="node4" class="node">
<title>body</title>
<ellipse fill="none" stroke="#000000" cx="226.0151" cy="-18" rx="27.589" ry="18"/>
<text text-anchor="middle" x="226.0151" y="-13.8" font-family="Times,serif" font-size="14.00" fill="#000000">body</text>
</g>
<!-- method&#45;&gt;body -->
<g id="edge3" class="edge">
<title>method&#45;&gt;body</title>
<path fill="none" stroke="#000000" d="M148.2398,-37.6221C161.1607,-34.3623 176.4765,-30.4982 190.0855,-27.0648"/>
<polygon fill="#000000" stroke="#000000" points="191.2518,-30.3803 200.0918,-24.5403 189.5394,-23.5929 191.2518,-30.3803"/>
</g>
</g>
</svg>
