<?xml version="1.0" encoding="UTF-8" standalone="no"?>
<!DOCTYPE svg PUBLIC "-//W3C//DTD SVG 1.1//EN"
 "http://www.w3.org/Graphics/SVG/1.1/DTD/svg11.dtd">
<!-- Generated by graphviz version 2.40.1 (20161225.0304)
 -->
<!-- Title: %3 Pages: 1 -->
<svg width="312pt" height="44pt"
 viewBox="0.00 0.00 311.94 44.00" xmlns="http://www.w3.org/2000/svg" xmlns:xlink="http://www.w3.org/1999/xlink">
<g id="graph0" class="graph" transform="scale(1 1) rotate(0) translate(4 40)">
<title>%3</title>
<!-- markdown -->
<g id="node1" class="node">
<title>markdown</title>
<ellipse fill="none" stroke="#000000" cx="47.929" cy="-18" rx="47.8582" ry="18"/>
<text text-anchor="middle" x="47.929" y="-13.8" font-family="Times,serif" font-size="14.00" fill="#000000">markdown</text>
</g>
<!-- compiler -->
<g id="node2" class="node">
<title>compiler</title>
<polygon fill="none" stroke="#000000" points="197.4967,-36 131.9783,-36 131.9783,0 197.4967,0 197.4967,-36"/>
<text text-anchor="middle" x="164.7375" y="-13.8" font-family="Times,serif" font-size="14.00" fill="#000000">compiler</text>
</g>
<!-- markdown&#45;&gt;compiler -->
<g id="edge1" class="edge">
<title>markdown&#45;&gt;compiler</title>
<path fill="none" stroke="#000000" d="M96.1139,-18C104.5979,-18 113.3788,-18 121.7102,-18"/>
<polygon fill="#000000" stroke="#000000" points="121.9668,-21.5001 131.9668,-18 121.9667,-14.5001 121.9668,-21.5001"/>
</g>
<!-- HTML -->
<g id="node3" class="node">
<title>HTML</title>
<ellipse fill="none" stroke="#000000" cx="268.7773" cy="-18" rx="35.3216" ry="18"/>
<text text-anchor="middle" x="268.7773" y="-13.8" font-family="Times,serif" font-size="14.00" fill="#000000">HTML</text>
</g>
<!-- compiler&#45;&gt;HTML -->
<g id="edge2" class="edge">
<title>compiler&#45;&gt;HTML</title>
<path fill="none" stroke="#000000" d="M197.6563,-18C205.8718,-18 214.8253,-18 223.5222,-18"/>
<polygon fill="#000000" stroke="#000000" points="223.5542,-21.5001 233.5542,-18 223.5541,-14.5001 223.5542,-21.5001"/>
</g>
</g>
</svg>
