<?xml version="1.0" encoding="UTF-8" standalone="no"?>
<!DOCTYPE svg PUBLIC "-//W3C//DTD SVG 1.1//EN"
 "http://www.w3.org/Graphics/SVG/1.1/DTD/svg11.dtd">
<!-- Generated by graphviz version 2.40.1 (20161225.0304)
 -->
<!-- Title: %3 Pages: 1 -->
<svg width="340pt" height="128pt"
 viewBox="0.00 0.00 339.83 127.91" xmlns="http://www.w3.org/2000/svg" xmlns:xlink="http://www.w3.org/1999/xlink">
<g id="graph0" class="graph" transform="scale(1 1) rotate(0) translate(4 123.9117)">
<title>%3</title>
<!-- markdown -->
<g id="node1" class="node">
<title>markdown</title>
<ellipse fill="none" stroke="#000000" cx="56.1273" cy="-94.4558" rx="56.2549" ry="25.4118"/>
<text text-anchor="middle" x="56.1273" y="-97.2558" font-family="Times,serif" font-size="14.00" fill="#000000">markdown</text>
<text text-anchor="middle" x="56.1273" y="-83.2558" font-family="Times,serif" font-size="14.00" fill="#000000">source files</text>
</g>
<!-- generator -->
<g id="node2" class="node">
<title>generator</title>
<polygon fill="none" stroke="#000000" points="217.0379,-77.4558 148.3267,-77.4558 148.3267,-41.4558 217.0379,-41.4558 217.0379,-77.4558"/>
<text text-anchor="middle" x="182.6823" y="-55.2558" font-family="Times,serif" font-size="14.00" fill="#000000">generator</text>
</g>
<!-- markdown&#45;&gt;generator -->
<g id="edge1" class="edge">
<title>markdown&#45;&gt;generator</title>
<path fill="none" stroke="#000000" d="M104.3333,-81.124C115.4573,-78.0476 127.2411,-74.7886 138.1981,-71.7584"/>
<polygon fill="#000000" stroke="#000000" points="139.2803,-75.0905 147.9855,-69.0516 137.4144,-68.3438 139.2803,-75.0905"/>
</g>
<!-- HTML -->
<g id="node3" class="node">
<title>HTML</title>
<ellipse fill="none" stroke="#000000" cx="292.4691" cy="-59.4558" rx="39.2186" ry="25.4118"/>
<text text-anchor="middle" x="292.4691" y="-62.2558" font-family="Times,serif" font-size="14.00" fill="#000000">HTML</text>
<text text-anchor="middle" x="292.4691" y="-48.2558" font-family="Times,serif" font-size="14.00" fill="#000000">files</text>
</g>
<!-- generator&#45;&gt;HTML -->
<g id="edge2" class="edge">
<title>generator&#45;&gt;HTML</title>
<path fill="none" stroke="#000000" d="M217.1183,-59.4558C225.254,-59.4558 234.0893,-59.4558 242.7512,-59.4558"/>
<polygon fill="#000000" stroke="#000000" points="242.7875,-62.9559 252.7875,-59.4558 242.7875,-55.9559 242.7875,-62.9559"/>
</g>
<!-- static -->
<g id="node4" class="node">
<title>static</title>
<ellipse fill="none" stroke="#000000" cx="56.1273" cy="-25.4558" rx="48.8868" ry="25.4118"/>
<text text-anchor="middle" x="56.1273" y="-28.2558" font-family="Times,serif" font-size="14.00" fill="#000000">static</text>
<text text-anchor="middle" x="56.1273" y="-14.2558" font-family="Times,serif" font-size="14.00" fill="#000000">resources</text>
</g>
<!-- static&#45;&gt;generator -->
<g id="edge3" class="edge">
<title>static&#45;&gt;generator</title>
<path fill="none" stroke="#000000" d="M99.6804,-37.1567C112.2051,-40.5216 125.8754,-44.1942 138.4412,-47.5701"/>
<polygon fill="#000000" stroke="#000000" points="137.6734,-50.9879 148.2391,-50.2024 139.4896,-44.2276 137.6734,-50.9879"/>
</g>
</g>
</svg>
