<?xml version="1.0" encoding="UTF-8" standalone="no"?>
<!DOCTYPE svg PUBLIC "-//W3C//DTD SVG 1.1//EN"
 "http://www.w3.org/Graphics/SVG/1.1/DTD/svg11.dtd">
<!-- Generated by graphviz version 2.40.1 (20161225.0304)
 -->
<!-- Title: %3 Pages: 1 -->
<svg width="367pt" height="98pt"
 viewBox="0.00 0.00 366.92 98.00" xmlns="http://www.w3.org/2000/svg" xmlns:xlink="http://www.w3.org/1999/xlink">
<g id="graph0" class="graph" transform="scale(1 1) rotate(0) translate(4 94)">
<title>%3</title>
<!-- pageData -->
<g id="node1" class="node">
<title>pageData</title>
<ellipse fill="none" stroke="#000000" cx="56.2716" cy="-18" rx="43.4887" ry="18"/>
<text text-anchor="middle" x="56.2716" y="-13.8" font-family="Times,serif" font-size="14.00" fill="#000000">pageData</text>
</g>
<!-- templatePost -->
<g id="node2" class="node">
<title>templatePost</title>
<polygon fill="none" stroke="#000000" points="237.0302,-36 148.3805,-36 148.3805,0 237.0302,0 237.0302,-36"/>
<text text-anchor="middle" x="192.7053" y="-13.8" font-family="Times,serif" font-size="14.00" fill="#000000">templatePost</text>
</g>
<!-- pageData&#45;&gt;templatePost -->
<g id="edge1" class="edge">
<title>pageData&#45;&gt;templatePost</title>
<path fill="none" stroke="#000000" d="M99.8152,-18C111.9991,-18 125.3967,-18 138.1327,-18"/>
<polygon fill="#000000" stroke="#000000" points="138.169,-21.5001 148.169,-18 138.169,-14.5001 138.169,-21.5001"/>
</g>
<!-- postHtml -->
<g id="node3" class="node">
<title>postHtml</title>
<ellipse fill="none" stroke="#000000" cx="315.8954" cy="-18" rx="43.056" ry="18"/>
<text text-anchor="middle" x="315.8954" y="-13.8" font-family="Times,serif" font-size="14.00" fill="#000000">postHtml</text>
</g>
<!-- templatePost&#45;&gt;postHtml -->
<g id="edge2" class="edge">
<title>templatePost&#45;&gt;postHtml</title>
<path fill="none" stroke="#000000" d="M237.1798,-18C245.4113,-18 254.0859,-18 262.5489,-18"/>
<polygon fill="#000000" stroke="#000000" points="262.723,-21.5001 272.723,-18 262.723,-14.5001 262.723,-21.5001"/>
</g>
<!-- allPagesData -->
<g id="node4" class="node">
<title>allPagesData</title>
<ellipse fill="none" stroke="#000000" cx="56.2716" cy="-72" rx="56.0441" ry="18"/>
<text text-anchor="middle" x="56.2716" y="-67.8" font-family="Times,serif" font-size="14.00" fill="#000000">allPagesData</text>
</g>
<!-- templateList -->
<g id="node5" class="node">
<title>templateList</title>
<polygon fill="none" stroke="#000000" points="235.6848,-90 149.7258,-90 149.7258,-54 235.6848,-54 235.6848,-90"/>
<text text-anchor="middle" x="192.7053" y="-67.8" font-family="Times,serif" font-size="14.00" fill="#000000">templateList</text>
</g>
<!-- allPagesData&#45;&gt;templateList -->
<g id="edge3" class="edge">
<title>allPagesData&#45;&gt;templateList</title>
<path fill="none" stroke="#000000" d="M112.5521,-72C121.4155,-72 130.5564,-72 139.3508,-72"/>
<polygon fill="#000000" stroke="#000000" points="139.4783,-75.5001 149.4783,-72 139.4783,-68.5001 139.4783,-75.5001"/>
</g>
<!-- listHtml -->
<g id="node6" class="node">
<title>listHtml</title>
<ellipse fill="none" stroke="#000000" cx="315.8954" cy="-72" rx="39.1973" ry="18"/>
<text text-anchor="middle" x="315.8954" y="-67.8" font-family="Times,serif" font-size="14.00" fill="#000000">listHtml</text>
</g>
<!-- templateList&#45;&gt;listHtml -->
<g id="edge4" class="edge">
<title>templateList&#45;&gt;listHtml</title>
<path fill="none" stroke="#000000" d="M235.7913,-72C245.7825,-72 256.4901,-72 266.7206,-72"/>
<polygon fill="#000000" stroke="#000000" points="266.7481,-75.5001 276.7481,-72 266.748,-68.5001 266.7481,-75.5001"/>
</g>
</g>
</svg>
