<?xml version="1.0" encoding="UTF-8" standalone="no"?>
<!DOCTYPE svg PUBLIC "-//W3C//DTD SVG 1.1//EN"
 "http://www.w3.org/Graphics/SVG/1.1/DTD/svg11.dtd">
<!-- Generated by graphviz version 2.40.1 (20161225.0304)
 -->
<!-- Title: %3 Pages: 1 -->
<svg width="340pt" height="59pt"
 viewBox="0.00 0.00 339.83 58.91" xmlns="http://www.w3.org/2000/svg" xmlns:xlink="http://www.w3.org/1999/xlink">
<g id="graph0" class="graph" transform="scale(1 1) rotate(0) translate(4 54.9117)">
<title>%3</title>
<!-- markdown -->
<g id="node1" class="node">
<title>markdown</title>
<ellipse fill="none" stroke="#000000" cx="56.1273" cy="-25.4558" rx="56.2549" ry="25.4118"/>
<text text-anchor="middle" x="56.1273" y="-28.2558" font-family="Times,serif" font-size="14.00" fill="#000000">markdown</text>
<text text-anchor="middle" x="56.1273" y="-14.2558" font-family="Times,serif" font-size="14.00" fill="#000000">source files</text>
</g>
<!-- generator -->
<g id="node2" class="node">
<title>generator</title>
<polygon fill="none" stroke="#000000" points="217.0379,-43.4558 148.3267,-43.4558 148.3267,-7.4558 217.0379,-7.4558 217.0379,-43.4558"/>
<text text-anchor="middle" x="182.6823" y="-21.2558" font-family="Times,serif" font-size="14.00" fill="#000000">generator</text>
</g>
<!-- markdown&#45;&gt;generator -->
<g id="edge1" class="edge">
<title>markdown&#45;&gt;generator</title>
<path fill="none" stroke="#000000" d="M112.3732,-25.4558C120.9139,-25.4558 129.6276,-25.4558 137.8816,-25.4558"/>
<polygon fill="#000000" stroke="#000000" points="138.0431,-28.9559 148.0431,-25.4558 138.043,-21.9559 138.0431,-28.9559"/>
</g>
<!-- HTML -->
<g id="node3" class="node">
<title>HTML</title>
<ellipse fill="none" stroke="#000000" cx="292.4691" cy="-25.4558" rx="39.2186" ry="25.4118"/>
<text text-anchor="middle" x="292.4691" y="-28.2558" font-family="Times,serif" font-size="14.00" fill="#000000">HTML</text>
<text text-anchor="middle" x="292.4691" y="-14.2558" font-family="Times,serif" font-size="14.00" fill="#000000">files</text>
</g>
<!-- generator&#45;&gt;HTML -->
<g id="edge2" class="edge">
<title>generator&#45;&gt;HTML</title>
<path fill="none" stroke="#000000" d="M217.1183,-25.4558C225.254,-25.4558 234.0893,-25.4558 242.7512,-25.4558"/>
<polygon fill="#000000" stroke="#000000" points="242.7875,-28.9559 252.7875,-25.4558 242.7875,-21.9559 242.7875,-28.9559"/>
</g>
</g>
</svg>
