<?xml version="1.0" encoding="UTF-8" standalone="no"?>
<!DOCTYPE svg PUBLIC "-//W3C//DTD SVG 1.1//EN"
 "http://www.w3.org/Graphics/SVG/1.1/DTD/svg11.dtd">
<!-- Generated by graphviz version 2.40.1 (20161225.0304)
 -->
<!-- Title: %3 Pages: 1 -->
<svg width="347pt" height="98pt"
 viewBox="0.00 0.00 347.32 98.00" xmlns="http://www.w3.org/2000/svg" xmlns:xlink="http://www.w3.org/1999/xlink">
<g id="graph0" class="graph" transform="scale(1 1) rotate(0) translate(4 94)">
<title>%3</title>
<!-- singlePost -->
<g id="node1" class="node">
<title>singlePost</title>
<ellipse fill="none" stroke="#000000" cx="46.4695" cy="-18" rx="46.4391" ry="18"/>
<text text-anchor="middle" x="46.4695" y="-13.8" font-family="Times,serif" font-size="14.00" fill="#000000">singlePost</text>
</g>
<!-- templatePost -->
<g id="node2" class="node">
<title>templatePost</title>
<polygon fill="none" stroke="#000000" points="217.426,-36 128.7764,-36 128.7764,0 217.426,0 217.426,-36"/>
<text text-anchor="middle" x="173.1012" y="-13.8" font-family="Times,serif" font-size="14.00" fill="#000000">templatePost</text>
</g>
<!-- singlePost&#45;&gt;templatePost -->
<g id="edge1" class="edge">
<title>singlePost&#45;&gt;templatePost</title>
<path fill="none" stroke="#000000" d="M93.2627,-18C101.4772,-18 110.0907,-18 118.4955,-18"/>
<polygon fill="#000000" stroke="#000000" points="118.6031,-21.5001 128.6031,-18 118.603,-14.5001 118.6031,-21.5001"/>
</g>
<!-- postHtml -->
<g id="node3" class="node">
<title>postHtml</title>
<ellipse fill="none" stroke="#000000" cx="296.2913" cy="-18" rx="43.056" ry="18"/>
<text text-anchor="middle" x="296.2913" y="-13.8" font-family="Times,serif" font-size="14.00" fill="#000000">postHtml</text>
</g>
<!-- templatePost&#45;&gt;postHtml -->
<g id="edge2" class="edge">
<title>templatePost&#45;&gt;postHtml</title>
<path fill="none" stroke="#000000" d="M217.5756,-18C225.8071,-18 234.4817,-18 242.9447,-18"/>
<polygon fill="#000000" stroke="#000000" points="243.1189,-21.5001 253.1188,-18 243.1188,-14.5001 243.1189,-21.5001"/>
</g>
<!-- allPosts -->
<g id="node4" class="node">
<title>allPosts</title>
<ellipse fill="none" stroke="#000000" cx="46.4695" cy="-72" rx="37.7525" ry="18"/>
<text text-anchor="middle" x="46.4695" y="-67.8" font-family="Times,serif" font-size="14.00" fill="#000000">allPosts</text>
</g>
<!-- templateList -->
<g id="node5" class="node">
<title>templateList</title>
<polygon fill="none" stroke="#000000" points="216.0807,-90 130.1217,-90 130.1217,-54 216.0807,-54 216.0807,-90"/>
<text text-anchor="middle" x="173.1012" y="-67.8" font-family="Times,serif" font-size="14.00" fill="#000000">templateList</text>
</g>
<!-- allPosts&#45;&gt;templateList -->
<g id="edge3" class="edge">
<title>allPosts&#45;&gt;templateList</title>
<path fill="none" stroke="#000000" d="M84.1203,-72C95.2851,-72 107.7315,-72 119.694,-72"/>
<polygon fill="#000000" stroke="#000000" points="120.0376,-75.5001 130.0376,-72 120.0375,-68.5001 120.0376,-75.5001"/>
</g>
<!-- listHtml -->
<g id="node6" class="node">
<title>listHtml</title>
<ellipse fill="none" stroke="#000000" cx="296.2913" cy="-72" rx="39.1973" ry="18"/>
<text text-anchor="middle" x="296.2913" y="-67.8" font-family="Times,serif" font-size="14.00" fill="#000000">listHtml</text>
</g>
<!-- templateList&#45;&gt;listHtml -->
<g id="edge4" class="edge">
<title>templateList&#45;&gt;listHtml</title>
<path fill="none" stroke="#000000" d="M216.1871,-72C226.1783,-72 236.8859,-72 247.1165,-72"/>
<polygon fill="#000000" stroke="#000000" points="247.1439,-75.5001 257.1439,-72 247.1439,-68.5001 247.1439,-75.5001"/>
</g>
</g>
</svg>
