<?xml version="1.0" encoding="UTF-8" standalone="no"?>
<!DOCTYPE svg PUBLIC "-//W3C//DTD SVG 1.1//EN"
 "http://www.w3.org/Graphics/SVG/1.1/DTD/svg11.dtd">
<!-- Generated by graphviz version 2.40.1 (20161225.0304)
 -->
<!-- Title: %3 Pages: 1 -->
<svg width="1190pt" height="112pt"
 viewBox="0.00 0.00 1190.38 112.00" xmlns="http://www.w3.org/2000/svg" xmlns:xlink="http://www.w3.org/1999/xlink">
<g id="graph0" class="graph" transform="scale(1 1) rotate(0) translate(4 108)">
<title>%3</title>
<!-- markdown -->
<g id="node1" class="node">
<title>markdown</title>
<ellipse fill="none" stroke="#000000" cx="47.929" cy="-86" rx="47.8582" ry="18"/>
<text text-anchor="middle" x="47.929" y="-81.8" font-family="Times,serif" font-size="14.00" fill="#000000">markdown</text>
</g>
<!-- reader -->
<g id="node2" class="node">
<title>reader</title>
<polygon fill="none" stroke="#000000" points="215.0104,-104 161.0104,-104 161.0104,-68 215.0104,-68 215.0104,-104"/>
<text text-anchor="middle" x="188.0104" y="-81.8" font-family="Times,serif" font-size="14.00" fill="#000000">reader</text>
</g>
<!-- markdown&#45;&gt;reader -->
<g id="edge1" class="edge">
<title>markdown&#45;&gt;reader</title>
<path fill="none" stroke="#000000" d="M96.1371,-86C113.9254,-86 133.8013,-86 150.5038,-86"/>
<polygon fill="#000000" stroke="#000000" points="150.9677,-89.5001 160.9676,-86 150.9676,-82.5001 150.9677,-89.5001"/>
</g>
<!-- JSON -->
<g id="node3" class="node">
<title>JSON</title>
<ellipse fill="none" stroke="#000000" cx="311.4024" cy="-86" rx="31.481" ry="18"/>
<text text-anchor="middle" x="311.4024" y="-81.8" font-family="Times,serif" font-size="14.00" fill="#000000">JSON</text>
</g>
<!-- reader&#45;&gt;JSON -->
<g id="edge2" class="edge">
<title>reader&#45;&gt;JSON</title>
<path fill="none" stroke="#000000" d="M215.0893,-86C231.176,-86 251.9052,-86 270.0093,-86"/>
<polygon fill="#000000" stroke="#000000" points="270.0298,-89.5001 280.0298,-86 270.0297,-82.5001 270.0298,-89.5001"/>
</g>
<!-- readerdesc -->
<g id="node10" class="node">
<title>readerdesc</title>
<polygon fill="none" stroke="#8b4513" points="244.3155,-50 131.7053,-50 131.7053,0 244.3155,0 244.3155,-50"/>
<text text-anchor="middle" x="188.0104" y="-34.8" font-family="Times,serif" font-size="14.00" fill="#8b4513">reads all files,</text>
<text text-anchor="middle" x="188.0104" y="-20.8" font-family="Times,serif" font-size="14.00" fill="#8b4513">processes YAML</text>
<text text-anchor="middle" x="188.0104" y="-6.8" font-family="Times,serif" font-size="14.00" fill="#8b4513">and markdown</text>
</g>
<!-- reader&#45;&gt;readerdesc -->
<g id="edge9" class="edge">
<title>reader&#45;&gt;readerdesc</title>
<path fill="none" stroke="#8b4513" d="M188.0104,-67.8497C188.0104,-61.9857 188.0104,-56.1218 188.0104,-50.2578"/>
</g>
<!-- templater -->
<g id="node4" class="node">
<title>templater</title>
<polygon fill="none" stroke="#000000" points="488.4683,-104 419.7434,-104 419.7434,-68 488.4683,-68 488.4683,-104"/>
<text text-anchor="middle" x="454.1058" y="-81.8" font-family="Times,serif" font-size="14.00" fill="#000000">templater</text>
</g>
<!-- JSON&#45;&gt;templater -->
<g id="edge3" class="edge">
<title>JSON&#45;&gt;templater</title>
<path fill="none" stroke="#000000" d="M342.7193,-86C362.2498,-86 387.6974,-86 409.338,-86"/>
<polygon fill="#000000" stroke="#000000" points="409.6132,-89.5001 419.6132,-86 409.6132,-82.5001 409.6132,-89.5001"/>
</g>
<!-- HTML -->
<g id="node5" class="node">
<title>HTML</title>
<ellipse fill="none" stroke="#000000" cx="600.7301" cy="-86" rx="35.3216" ry="18"/>
<text text-anchor="middle" x="600.7301" y="-81.8" font-family="Times,serif" font-size="14.00" fill="#000000">HTML</text>
</g>
<!-- templater&#45;&gt;HTML -->
<g id="edge4" class="edge">
<title>templater&#45;&gt;HTML</title>
<path fill="none" stroke="#000000" d="M488.4827,-86C508.4137,-86 533.7534,-86 555.3113,-86"/>
<polygon fill="#000000" stroke="#000000" points="555.5503,-89.5001 565.5502,-86 555.5502,-82.5001 555.5503,-89.5001"/>
</g>
<!-- templaterdesc -->
<g id="node11" class="node">
<title>templaterdesc</title>
<polygon fill="none" stroke="#8b4513" points="529.5336,-50 378.6781,-50 378.6781,0 529.5336,0 529.5336,-50"/>
<text text-anchor="middle" x="454.1058" y="-34.8" font-family="Times,serif" font-size="14.00" fill="#8b4513">surrounds processed</text>
<text text-anchor="middle" x="454.1058" y="-20.8" font-family="Times,serif" font-size="14.00" fill="#8b4513">markdown in valid html</text>
<text text-anchor="middle" x="454.1058" y="-6.8" font-family="Times,serif" font-size="14.00" fill="#8b4513">page, also index</text>
</g>
<!-- templater&#45;&gt;templaterdesc -->
<g id="edge10" class="edge">
<title>templater&#45;&gt;templaterdesc</title>
<path fill="none" stroke="#8b4513" d="M454.1058,-67.8497C454.1058,-61.9857 454.1058,-56.1218 454.1058,-50.2578"/>
</g>
<!-- pager -->
<g id="node6" class="node">
<title>pager</title>
<polygon fill="none" stroke="#000000" points="772.4028,-104 718.4028,-104 718.4028,-68 772.4028,-68 772.4028,-104"/>
<text text-anchor="middle" x="745.4028" y="-81.8" font-family="Times,serif" font-size="14.00" fill="#000000">pager</text>
</g>
<!-- HTML&#45;&gt;pager -->
<g id="edge5" class="edge">
<title>HTML&#45;&gt;pager</title>
<path fill="none" stroke="#000000" d="M636.121,-86C657.9302,-86 685.864,-86 708.0304,-86"/>
<polygon fill="#000000" stroke="#000000" points="708.0807,-89.5001 718.0807,-86 708.0807,-82.5001 708.0807,-89.5001"/>
</g>
<!-- definitions -->
<g id="node7" class="node">
<title>definitions</title>
<ellipse fill="none" stroke="#000000" cx="902.3647" cy="-86" rx="47.3995" ry="18"/>
<text text-anchor="middle" x="902.3647" y="-81.8" font-family="Times,serif" font-size="14.00" fill="#000000">definitions</text>
</g>
<!-- pager&#45;&gt;definitions -->
<g id="edge6" class="edge">
<title>pager&#45;&gt;definitions</title>
<path fill="none" stroke="#000000" d="M772.7434,-86C792.495,-86 819.9009,-86 844.4274,-86"/>
<polygon fill="#000000" stroke="#000000" points="844.7317,-89.5001 854.7317,-86 844.7317,-82.5001 844.7317,-89.5001"/>
</g>
<!-- pagerdesc -->
<g id="node12" class="node">
<title>pagerdesc</title>
<polygon fill="none" stroke="#8b4513" points="818.9272,-50 671.8783,-50 671.8783,-14 818.9272,-14 818.9272,-50"/>
<text text-anchor="middle" x="745.4028" y="-34.8" font-family="Times,serif" font-size="14.00" fill="#8b4513">generates list of</text>
<text text-anchor="middle" x="745.4028" y="-20.8" font-family="Times,serif" font-size="14.00" fill="#8b4513">file names and contents</text>
</g>
<!-- pager&#45;&gt;pagerdesc -->
<g id="edge11" class="edge">
<title>pager&#45;&gt;pagerdesc</title>
<path fill="none" stroke="#8b4513" d="M745.4028,-67.7902C745.4028,-61.907 745.4028,-56.0238 745.4028,-50.1406"/>
</g>
<!-- writer -->
<g id="node8" class="node">
<title>writer</title>
<polygon fill="none" stroke="#000000" points="1066.0957,-104 1012.0957,-104 1012.0957,-68 1066.0957,-68 1066.0957,-104"/>
<text text-anchor="middle" x="1039.0957" y="-81.8" font-family="Times,serif" font-size="14.00" fill="#000000">writer</text>
</g>
<!-- definitions&#45;&gt;writer -->
<g id="edge7" class="edge">
<title>definitions&#45;&gt;writer</title>
<path fill="none" stroke="#000000" d="M950.1866,-86C967.1168,-86 985.9001,-86 1001.8236,-86"/>
<polygon fill="#000000" stroke="#000000" points="1001.8265,-89.5001 1011.8265,-86 1001.8264,-82.5001 1001.8265,-89.5001"/>
</g>
<!-- files -->
<g id="node9" class="node">
<title>files</title>
<ellipse fill="none" stroke="#000000" cx="1155.3769" cy="-86" rx="27" ry="18"/>
<text text-anchor="middle" x="1155.3769" y="-81.8" font-family="Times,serif" font-size="14.00" fill="#000000">files</text>
</g>
<!-- writer&#45;&gt;files -->
<g id="edge8" class="edge">
<title>writer&#45;&gt;files</title>
<path fill="none" stroke="#000000" d="M1066.3585,-86C1081.8125,-86 1101.3667,-86 1118.2093,-86"/>
<polygon fill="#000000" stroke="#000000" points="1118.285,-89.5001 1128.285,-86 1118.2849,-82.5001 1118.285,-89.5001"/>
</g>
<!-- writerdesc -->
<g id="node13" class="node">
<title>writerdesc</title>
<polygon fill="none" stroke="#8b4513" points="1092.1591,-50 986.0323,-50 986.0323,-14 1092.1591,-14 1092.1591,-50"/>
<text text-anchor="middle" x="1039.0957" y="-34.8" font-family="Times,serif" font-size="14.00" fill="#8b4513">Acutally creates</text>
<text text-anchor="middle" x="1039.0957" y="-20.8" font-family="Times,serif" font-size="14.00" fill="#8b4513">the new files</text>
</g>
<!-- writer&#45;&gt;writerdesc -->
<g id="edge12" class="edge">
<title>writer&#45;&gt;writerdesc</title>
<path fill="none" stroke="#8b4513" d="M1039.0957,-67.7902C1039.0957,-61.907 1039.0957,-56.0238 1039.0957,-50.1406"/>
</g>
</g>
</svg>
