<?xml version="1.0" encoding="UTF-8" standalone="no"?>
<!DOCTYPE svg PUBLIC "-//W3C//DTD SVG 1.1//EN"
 "http://www.w3.org/Graphics/SVG/1.1/DTD/svg11.dtd">
<!-- Generated by graphviz version 2.40.1 (20161225.0304)
 -->
<!-- Title: %3 Pages: 1 -->
<svg width="1190pt" height="166pt"
 viewBox="0.00 0.00 1190.38 166.00" xmlns="http://www.w3.org/2000/svg" xmlns:xlink="http://www.w3.org/1999/xlink">
<g id="graph0" class="graph" transform="scale(1 1) rotate(0) translate(4 162)">
<title>%3</title>
<g id="clust1" class="cluster">
<title>cluster_stepA</title>
<polygon fill="transparent" stroke="#000000" points="123.8581,-8 123.8581,-150 252.1628,-150 252.1628,-8 123.8581,-8"/>
<text text-anchor="middle" x="188.0104" y="-134.8" font-family="Times,serif" font-size="14.00" fill="#000000">Part A</text>
</g>
<g id="clust3" class="cluster">
<title>cluster_stepB</title>
<polygon fill="transparent" stroke="#000000" points="370.642,-8 370.642,-150 1100.3769,-150 1100.3769,-8 370.642,-8"/>
<text text-anchor="middle" x="735.5095" y="-134.8" font-family="Times,serif" font-size="14.00" fill="#000000">Part B</text>
</g>
<!-- readerdesc -->
<g id="node1" class="node">
<title>readerdesc</title>
<polygon fill="none" stroke="#8b4513" points="244.3155,-66 131.7053,-66 131.7053,-16 244.3155,-16 244.3155,-66"/>
<text text-anchor="middle" x="188.0104" y="-50.8" font-family="Times,serif" font-size="14.00" fill="#8b4513">reads all files,</text>
<text text-anchor="middle" x="188.0104" y="-36.8" font-family="Times,serif" font-size="14.00" fill="#8b4513">processes YAML</text>
<text text-anchor="middle" x="188.0104" y="-22.8" font-family="Times,serif" font-size="14.00" fill="#8b4513">and markdown</text>
</g>
<!-- reader -->
<g id="node2" class="node">
<title>reader</title>
<polygon fill="none" stroke="#000000" points="215.0104,-120 161.0104,-120 161.0104,-84 215.0104,-84 215.0104,-120"/>
<text text-anchor="middle" x="188.0104" y="-97.8" font-family="Times,serif" font-size="14.00" fill="#000000">reader</text>
</g>
<!-- readerdesc&#45;&gt;reader -->
<g id="edge1" class="edge">
<title>readerdesc&#45;&gt;reader</title>
<path fill="none" stroke="#8b4513" d="M188.0104,-66.2578C188.0104,-72.1218 188.0104,-77.9857 188.0104,-83.8497"/>
</g>
<!-- JSON -->
<g id="node12" class="node">
<title>JSON</title>
<ellipse fill="none" stroke="#000000" cx="311.4024" cy="-102" rx="31.481" ry="18"/>
<text text-anchor="middle" x="311.4024" y="-97.8" font-family="Times,serif" font-size="14.00" fill="#000000">JSON</text>
</g>
<!-- reader&#45;&gt;JSON -->
<g id="edge6" class="edge">
<title>reader&#45;&gt;JSON</title>
<path fill="none" stroke="#000000" d="M215.0893,-102C231.176,-102 251.9052,-102 270.0093,-102"/>
<polygon fill="#000000" stroke="#000000" points="270.0298,-105.5001 280.0298,-102 270.0297,-98.5001 270.0298,-105.5001"/>
</g>
<!-- templaterdesc -->
<g id="node3" class="node">
<title>templaterdesc</title>
<polygon fill="none" stroke="#8b4513" points="529.5336,-66 378.6781,-66 378.6781,-16 529.5336,-16 529.5336,-66"/>
<text text-anchor="middle" x="454.1058" y="-50.8" font-family="Times,serif" font-size="14.00" fill="#8b4513">surrounds processed</text>
<text text-anchor="middle" x="454.1058" y="-36.8" font-family="Times,serif" font-size="14.00" fill="#8b4513">markdown in valid html</text>
<text text-anchor="middle" x="454.1058" y="-22.8" font-family="Times,serif" font-size="14.00" fill="#8b4513">page, also index</text>
</g>
<!-- templater -->
<g id="node4" class="node">
<title>templater</title>
<polygon fill="none" stroke="#000000" points="488.4683,-120 419.7434,-120 419.7434,-84 488.4683,-84 488.4683,-120"/>
<text text-anchor="middle" x="454.1058" y="-97.8" font-family="Times,serif" font-size="14.00" fill="#000000">templater</text>
</g>
<!-- templaterdesc&#45;&gt;templater -->
<g id="edge2" class="edge">
<title>templaterdesc&#45;&gt;templater</title>
<path fill="none" stroke="#8b4513" d="M454.1058,-66.2578C454.1058,-72.1218 454.1058,-77.9857 454.1058,-83.8497"/>
</g>
<!-- HTML -->
<g id="node9" class="node">
<title>HTML</title>
<ellipse fill="none" stroke="#000000" cx="600.7301" cy="-102" rx="35.3216" ry="18"/>
<text text-anchor="middle" x="600.7301" y="-97.8" font-family="Times,serif" font-size="14.00" fill="#000000">HTML</text>
</g>
<!-- templater&#45;&gt;HTML -->
<g id="edge8" class="edge">
<title>templater&#45;&gt;HTML</title>
<path fill="none" stroke="#000000" d="M488.4827,-102C508.4137,-102 533.7534,-102 555.3113,-102"/>
<polygon fill="#000000" stroke="#000000" points="555.5503,-105.5001 565.5502,-102 555.5502,-98.5001 555.5503,-105.5001"/>
</g>
<!-- pagerdesc -->
<g id="node5" class="node">
<title>pagerdesc</title>
<polygon fill="none" stroke="#8b4513" points="818.9272,-66 671.8783,-66 671.8783,-30 818.9272,-30 818.9272,-66"/>
<text text-anchor="middle" x="745.4028" y="-50.8" font-family="Times,serif" font-size="14.00" fill="#8b4513">generates list of</text>
<text text-anchor="middle" x="745.4028" y="-36.8" font-family="Times,serif" font-size="14.00" fill="#8b4513">file names and contents</text>
</g>
<!-- pager -->
<g id="node6" class="node">
<title>pager</title>
<polygon fill="none" stroke="#000000" points="772.4028,-120 718.4028,-120 718.4028,-84 772.4028,-84 772.4028,-120"/>
<text text-anchor="middle" x="745.4028" y="-97.8" font-family="Times,serif" font-size="14.00" fill="#000000">pager</text>
</g>
<!-- pagerdesc&#45;&gt;pager -->
<g id="edge3" class="edge">
<title>pagerdesc&#45;&gt;pager</title>
<path fill="none" stroke="#8b4513" d="M745.4028,-66.1406C745.4028,-72.0238 745.4028,-77.907 745.4028,-83.7902"/>
</g>
<!-- definitions -->
<g id="node10" class="node">
<title>definitions</title>
<ellipse fill="none" stroke="#000000" cx="902.3647" cy="-102" rx="47.3995" ry="18"/>
<text text-anchor="middle" x="902.3647" y="-97.8" font-family="Times,serif" font-size="14.00" fill="#000000">definitions</text>
</g>
<!-- pager&#45;&gt;definitions -->
<g id="edge10" class="edge">
<title>pager&#45;&gt;definitions</title>
<path fill="none" stroke="#000000" d="M772.7434,-102C792.495,-102 819.9009,-102 844.4274,-102"/>
<polygon fill="#000000" stroke="#000000" points="844.7317,-105.5001 854.7317,-102 844.7317,-98.5001 844.7317,-105.5001"/>
</g>
<!-- writerdesc -->
<g id="node7" class="node">
<title>writerdesc</title>
<polygon fill="none" stroke="#8b4513" points="1092.1591,-66 986.0323,-66 986.0323,-30 1092.1591,-30 1092.1591,-66"/>
<text text-anchor="middle" x="1039.0957" y="-50.8" font-family="Times,serif" font-size="14.00" fill="#8b4513">Acutally creates</text>
<text text-anchor="middle" x="1039.0957" y="-36.8" font-family="Times,serif" font-size="14.00" fill="#8b4513">the new files</text>
</g>
<!-- writer -->
<g id="node8" class="node">
<title>writer</title>
<polygon fill="none" stroke="#000000" points="1066.0957,-120 1012.0957,-120 1012.0957,-84 1066.0957,-84 1066.0957,-120"/>
<text text-anchor="middle" x="1039.0957" y="-97.8" font-family="Times,serif" font-size="14.00" fill="#000000">writer</text>
</g>
<!-- writerdesc&#45;&gt;writer -->
<g id="edge4" class="edge">
<title>writerdesc&#45;&gt;writer</title>
<path fill="none" stroke="#8b4513" d="M1039.0957,-66.1406C1039.0957,-72.0238 1039.0957,-77.907 1039.0957,-83.7902"/>
</g>
<!-- files -->
<g id="node13" class="node">
<title>files</title>
<ellipse fill="none" stroke="#000000" cx="1155.3769" cy="-102" rx="27" ry="18"/>
<text text-anchor="middle" x="1155.3769" y="-97.8" font-family="Times,serif" font-size="14.00" fill="#000000">files</text>
</g>
<!-- writer&#45;&gt;files -->
<g id="edge12" class="edge">
<title>writer&#45;&gt;files</title>
<path fill="none" stroke="#000000" d="M1066.3585,-102C1081.8125,-102 1101.3667,-102 1118.2093,-102"/>
<polygon fill="#000000" stroke="#000000" points="1118.285,-105.5001 1128.285,-102 1118.2849,-98.5001 1118.285,-105.5001"/>
</g>
<!-- HTML&#45;&gt;pager -->
<g id="edge9" class="edge">
<title>HTML&#45;&gt;pager</title>
<path fill="none" stroke="#000000" d="M636.121,-102C657.9302,-102 685.864,-102 708.0304,-102"/>
<polygon fill="#000000" stroke="#000000" points="708.0807,-105.5001 718.0807,-102 708.0807,-98.5001 708.0807,-105.5001"/>
</g>
<!-- definitions&#45;&gt;writer -->
<g id="edge11" class="edge">
<title>definitions&#45;&gt;writer</title>
<path fill="none" stroke="#000000" d="M950.1866,-102C967.1168,-102 985.9001,-102 1001.8236,-102"/>
<polygon fill="#000000" stroke="#000000" points="1001.8265,-105.5001 1011.8265,-102 1001.8264,-98.5001 1001.8265,-105.5001"/>
</g>
<!-- markdown -->
<g id="node11" class="node">
<title>markdown</title>
<ellipse fill="none" stroke="#000000" cx="47.929" cy="-102" rx="47.8582" ry="18"/>
<text text-anchor="middle" x="47.929" y="-97.8" font-family="Times,serif" font-size="14.00" fill="#000000">markdown</text>
</g>
<!-- markdown&#45;&gt;reader -->
<g id="edge5" class="edge">
<title>markdown&#45;&gt;reader</title>
<path fill="none" stroke="#000000" d="M96.1371,-102C113.9254,-102 133.8013,-102 150.5038,-102"/>
<polygon fill="#000000" stroke="#000000" points="150.9677,-105.5001 160.9676,-102 150.9676,-98.5001 150.9677,-105.5001"/>
</g>
<!-- JSON&#45;&gt;templater -->
<g id="edge7" class="edge">
<title>JSON&#45;&gt;templater</title>
<path fill="none" stroke="#000000" d="M342.7193,-102C362.2498,-102 387.6974,-102 409.338,-102"/>
<polygon fill="#000000" stroke="#000000" points="409.6132,-105.5001 419.6132,-102 409.6132,-98.5001 409.6132,-105.5001"/>
</g>
</g>
</svg>
