<?xml version="1.0" encoding="UTF-8" standalone="no"?>
<!DOCTYPE svg PUBLIC "-//W3C//DTD SVG 1.1//EN"
 "http://www.w3.org/Graphics/SVG/1.1/DTD/svg11.dtd">
<!-- Generated by graphviz version 2.40.1 (20161225.0304)
 -->
<!-- Title: %3 Pages: 1 -->
<svg width="690pt" height="206pt"
 viewBox="0.00 0.00 689.75 206.00" xmlns="http://www.w3.org/2000/svg" xmlns:xlink="http://www.w3.org/1999/xlink">
<g id="graph0" class="graph" transform="scale(1 1) rotate(0) translate(4 202)">
<title>%3</title>
<!-- pager -->
<g id="node1" class="node">
<title>pager</title>
<polygon fill="none" stroke="#000000" points="197.6452,-144 143.6452,-144 143.6452,-108 197.6452,-108 197.6452,-144"/>
<text text-anchor="middle" x="170.6452" y="-121.8" font-family="Times,serif" font-size="14.00" fill="#000000">pager</text>
</g>
<!-- definitions -->
<g id="node4" class="node">
<title>definitions</title>
<ellipse fill="none" stroke="#000000" cx="327.6071" cy="-126" rx="47.3995" ry="18"/>
<text text-anchor="middle" x="327.6071" y="-121.8" font-family="Times,serif" font-size="14.00" fill="#000000">definitions</text>
</g>
<!-- pager&#45;&gt;definitions -->
<g id="edge2" class="edge">
<title>pager&#45;&gt;definitions</title>
<path fill="none" stroke="#000000" d="M197.9859,-126C217.7374,-126 245.1433,-126 269.6698,-126"/>
<polygon fill="#000000" stroke="#000000" points="269.9741,-129.5001 279.9741,-126 269.9741,-122.5001 269.9741,-129.5001"/>
</g>
<!-- pagerdesc -->
<g id="node8" class="node">
<title>pagerdesc</title>
<polygon fill="none" stroke="#8b4513" points="244.1696,-90 97.1208,-90 97.1208,-54 244.1696,-54 244.1696,-90"/>
<text text-anchor="middle" x="170.6452" y="-74.8" font-family="Times,serif" font-size="14.00" fill="#8b4513">generates list of</text>
<text text-anchor="middle" x="170.6452" y="-60.8" font-family="Times,serif" font-size="14.00" fill="#8b4513">file names and contents</text>
</g>
<!-- pager&#45;&gt;pagerdesc -->
<g id="edge7" class="edge">
<title>pager&#45;&gt;pagerdesc</title>
<path fill="none" stroke="#8b4513" d="M170.6452,-107.7902C170.6452,-101.907 170.6452,-96.0238 170.6452,-90.1406"/>
</g>
<!-- writer -->
<g id="node2" class="node">
<title>writer</title>
<polygon fill="none" stroke="#000000" points="491.3381,-198 437.3381,-198 437.3381,-162 491.3381,-162 491.3381,-198"/>
<text text-anchor="middle" x="464.3381" y="-175.8" font-family="Times,serif" font-size="14.00" fill="#000000">writer</text>
</g>
<!-- files -->
<g id="node5" class="node">
<title>files</title>
<ellipse fill="none" stroke="#000000" cx="617.6851" cy="-180" rx="27" ry="18"/>
<text text-anchor="middle" x="617.6851" y="-175.8" font-family="Times,serif" font-size="14.00" fill="#000000">files</text>
</g>
<!-- writer&#45;&gt;files -->
<g id="edge4" class="edge">
<title>writer&#45;&gt;files</title>
<path fill="none" stroke="#000000" d="M491.4005,-180C516.1792,-180 553.0723,-180 580.5923,-180"/>
<polygon fill="#000000" stroke="#000000" points="580.6359,-183.5001 590.6358,-180 580.6358,-176.5001 580.6359,-183.5001"/>
</g>
<!-- writerdesc -->
<g id="node9" class="node">
<title>writerdesc</title>
<polygon fill="none" stroke="#8b4513" points="517.4015,-144 411.2747,-144 411.2747,-108 517.4015,-108 517.4015,-144"/>
<text text-anchor="middle" x="464.3381" y="-128.8" font-family="Times,serif" font-size="14.00" fill="#8b4513">Actually creates</text>
<text text-anchor="middle" x="464.3381" y="-114.8" font-family="Times,serif" font-size="14.00" fill="#8b4513">the new files</text>
</g>
<!-- writer&#45;&gt;writerdesc -->
<g id="edge8" class="edge">
<title>writer&#45;&gt;writerdesc</title>
<path fill="none" stroke="#8b4513" d="M464.3381,-161.7902C464.3381,-155.907 464.3381,-150.0238 464.3381,-144.1406"/>
</g>
<!-- invis -->
<!-- invis&#45;&gt;pager -->
<g id="edge1" class="edge">
<title>invis&#45;&gt;pager</title>
<path fill="none" stroke="#000000" stroke-dasharray="5,2" d="M61.3073,-126C82.443,-126 110.638,-126 133.1025,-126"/>
<polygon fill="#000000" stroke="#000000" points="133.2937,-129.5001 143.2936,-126 133.2936,-122.5001 133.2937,-129.5001"/>
</g>
<!-- definitions&#45;&gt;writer -->
<g id="edge3" class="edge">
<title>definitions&#45;&gt;writer</title>
<path fill="none" stroke="#000000" d="M360.7059,-139.0719C380.9018,-147.048 406.752,-157.2572 427.5821,-165.4837"/>
<polygon fill="#000000" stroke="#000000" points="426.4721,-168.8083 437.0586,-169.2264 429.0434,-162.2977 426.4721,-168.8083"/>
</g>
<!-- express -->
<g id="node6" class="node">
<title>express</title>
<ellipse fill="none" stroke="#000000" cx="464.3381" cy="-72" rx="36.7576" ry="18"/>
<text text-anchor="middle" x="464.3381" y="-67.8" font-family="Times,serif" font-size="14.00" fill="#000000">express</text>
</g>
<!-- definitions&#45;&gt;express -->
<g id="edge5" class="edge">
<title>definitions&#45;&gt;express</title>
<path fill="none" stroke="#000000" d="M360.7059,-112.9281C380.4924,-105.1137 405.7064,-95.1558 426.3093,-87.0189"/>
<polygon fill="#000000" stroke="#000000" points="427.696,-90.2344 435.7112,-83.3058 425.1247,-83.7238 427.696,-90.2344"/>
</g>
<!-- urls -->
<g id="node7" class="node">
<title>urls</title>
<ellipse fill="none" stroke="#000000" cx="617.6851" cy="-72" rx="64.1316" ry="18"/>
<text text-anchor="middle" x="617.6851" y="-67.8" font-family="Times,serif" font-size="14.00" fill="#000000">URL responses</text>
</g>
<!-- express&#45;&gt;urls -->
<g id="edge6" class="edge">
<title>express&#45;&gt;urls</title>
<path fill="none" stroke="#000000" d="M501.0685,-72C513.8112,-72 528.596,-72 543.2704,-72"/>
<polygon fill="#000000" stroke="#000000" points="543.3855,-75.5001 553.3855,-72 543.3855,-68.5001 543.3855,-75.5001"/>
</g>
<!-- expressdesc -->
<g id="node10" class="node">
<title>expressdesc</title>
<polygon fill="none" stroke="#8b4513" points="515.6354,-36 413.0408,-36 413.0408,0 515.6354,0 515.6354,-36"/>
<text text-anchor="middle" x="464.3381" y="-13.8" font-family="Times,serif" font-size="14.00" fill="#8b4513">Our new server</text>
</g>
<!-- express&#45;&gt;expressdesc -->
<g id="edge9" class="edge">
<title>express&#45;&gt;expressdesc</title>
<path fill="none" stroke="#8b4513" d="M464.3381,-53.7902C464.3381,-47.907 464.3381,-42.0238 464.3381,-36.1406"/>
</g>
</g>
</svg>
