<?xml version="1.0" encoding="UTF-8" standalone="no"?>
<!DOCTYPE svg PUBLIC "-//W3C//DTD SVG 1.1//EN"
 "http://www.w3.org/Graphics/SVG/1.1/DTD/svg11.dtd">
<!-- Generated by graphviz version 2.40.1 (20161225.0304)
 -->
<!-- Title: %3 Pages: 1 -->
<svg width="614pt" height="116pt"
 viewBox="0.00 0.00 614.00 116.00" xmlns="http://www.w3.org/2000/svg" xmlns:xlink="http://www.w3.org/1999/xlink">
<g id="graph0" class="graph" transform="scale(1 1) rotate(0) translate(4 112)">
<title>%3</title>
<!-- Firebase -->
<g id="node1" class="node">
<title>Firebase</title>
<ellipse fill="none" stroke="#000000" cx="317" cy="-90" rx="40.1317" ry="18"/>
<text text-anchor="middle" x="317" y="-85.8" font-family="Times,serif" font-size="14.00" fill="#000000">Firebase</text>
</g>
<!-- iOS -->
<g id="node2" class="node">
<title>iOS</title>
<ellipse fill="none" stroke="#000000" cx="27" cy="-18" rx="27" ry="18"/>
<text text-anchor="middle" x="27" y="-13.8" font-family="Times,serif" font-size="14.00" fill="#000000">iOS</text>
</g>
<!-- Firebase&#45;&gt;iOS -->
<g id="edge1" class="edge">
<title>Firebase&#45;&gt;iOS</title>
<path fill="none" stroke="#000000" d="M278.3041,-84.9019C227.7754,-77.5425 137.0429,-61.9058 63,-36 61.1202,-35.3423 59.2128,-34.608 57.3072,-33.8222"/>
<polygon fill="#000000" stroke="#000000" points="58.4845,-30.5134 47.9307,-29.5815 55.5999,-36.8914 58.4845,-30.5134"/>
</g>
<!-- Android -->
<g id="node3" class="node">
<title>Android</title>
<ellipse fill="none" stroke="#000000" cx="112" cy="-18" rx="39.6645" ry="18"/>
<text text-anchor="middle" x="112" y="-13.8" font-family="Times,serif" font-size="14.00" fill="#000000">Android</text>
</g>
<!-- Firebase&#45;&gt;Android -->
<g id="edge2" class="edge">
<title>Firebase&#45;&gt;Android</title>
<path fill="none" stroke="#000000" d="M284.9699,-79.1093C253.3908,-68.3256 203.7855,-51.2622 161,-36 158.1471,-34.9823 155.204,-33.9236 152.2428,-32.8518"/>
<polygon fill="#000000" stroke="#000000" points="153.4057,-29.5505 142.8117,-29.4188 151.0113,-36.1283 153.4057,-29.5505"/>
</g>
<!-- Java -->
<g id="node4" class="node">
<title>Java</title>
<ellipse fill="none" stroke="#000000" cx="197" cy="-18" rx="27" ry="18"/>
<text text-anchor="middle" x="197" y="-13.8" font-family="Times,serif" font-size="14.00" fill="#000000">Java</text>
</g>
<!-- Firebase&#45;&gt;Java -->
<g id="edge3" class="edge">
<title>Firebase&#45;&gt;Java</title>
<path fill="none" stroke="#000000" d="M292.7162,-75.4297C273.3874,-63.8324 246.2834,-47.57 225.8496,-35.3097"/>
<polygon fill="#000000" stroke="#000000" points="227.6387,-32.3016 217.263,-30.1578 224.0372,-38.3041 227.6387,-32.3016"/>
</g>
<!-- Python -->
<g id="node5" class="node">
<title>Python</title>
<ellipse fill="none" stroke="#000000" cx="277" cy="-18" rx="35.3389" ry="18"/>
<text text-anchor="middle" x="277" y="-13.8" font-family="Times,serif" font-size="14.00" fill="#000000">Python</text>
</g>
<!-- Firebase&#45;&gt;Python -->
<g id="edge4" class="edge">
<title>Firebase&#45;&gt;Python</title>
<path fill="none" stroke="#000000" d="M307.1124,-72.2022C302.4275,-63.7695 296.7381,-53.5285 291.5715,-44.2288"/>
<polygon fill="#000000" stroke="#000000" points="294.5519,-42.3864 286.6359,-35.3446 288.4328,-45.7859 294.5519,-42.3864"/>
</g>
<!-- Go -->
<g id="node6" class="node">
<title>Go</title>
<ellipse fill="none" stroke="#000000" cx="357" cy="-18" rx="27" ry="18"/>
<text text-anchor="middle" x="357" y="-13.8" font-family="Times,serif" font-size="14.00" fill="#000000">Go</text>
</g>
<!-- Firebase&#45;&gt;Go -->
<g id="edge5" class="edge">
<title>Firebase&#45;&gt;Go</title>
<path fill="none" stroke="#000000" d="M326.8876,-72.2022C331.6072,-63.7071 337.3463,-53.3767 342.5432,-44.0223"/>
<polygon fill="#000000" stroke="#000000" points="345.7046,-45.5386 347.5015,-35.0972 339.5855,-42.139 345.7046,-45.5386"/>
</g>
<!-- C -->
<g id="node7" class="node">
<title>C</title>
<ellipse fill="none" stroke="#000000" cx="429" cy="-18" rx="27" ry="18"/>
<text text-anchor="middle" x="429" y="-13.8" font-family="Times,serif" font-size="14.00" fill="#000000">C++</text>
</g>
<!-- Firebase&#45;&gt;C -->
<g id="edge6" class="edge">
<title>Firebase&#45;&gt;C</title>
<path fill="none" stroke="#000000" d="M340.2065,-75.0816C357.9067,-63.7028 382.3557,-47.9856 401.1181,-35.9241"/>
<polygon fill="#000000" stroke="#000000" points="403.0359,-38.8521 409.5551,-30.5003 399.2506,-32.9638 403.0359,-38.8521"/>
</g>
<!-- Unity -->
<g id="node8" class="node">
<title>Unity</title>
<ellipse fill="none" stroke="#000000" cx="504" cy="-18" rx="30.0035" ry="18"/>
<text text-anchor="middle" x="504" y="-13.8" font-family="Times,serif" font-size="14.00" fill="#000000">Unity</text>
</g>
<!-- Firebase&#45;&gt;Unity -->
<g id="edge7" class="edge">
<title>Firebase&#45;&gt;Unity</title>
<path fill="none" stroke="#000000" d="M349.0492,-79.1643C379.225,-68.7605 425.5543,-52.2666 465,-36 466.8614,-35.2324 468.764,-34.4265 470.6783,-33.5989"/>
<polygon fill="#000000" stroke="#000000" points="472.4986,-36.6199 480.2123,-29.3571 469.6531,-30.2243 472.4986,-36.6199"/>
</g>
<!-- Web -->
<g id="node9" class="node">
<title>Web</title>
<ellipse fill="none" stroke="#000000" cx="579" cy="-18" rx="27" ry="18"/>
<text text-anchor="middle" x="579" y="-13.8" font-family="Times,serif" font-size="14.00" fill="#000000">Web</text>
</g>
<!-- Firebase&#45;&gt;Web -->
<g id="edge8" class="edge">
<title>Firebase&#45;&gt;Web</title>
<path fill="none" stroke="#000000" d="M354.9632,-83.6815C400.5032,-75.4783 478.747,-59.3882 543,-36 544.8714,-35.3188 546.7723,-34.5662 548.6729,-33.7665"/>
<polygon fill="#000000" stroke="#000000" points="550.395,-36.8278 558.0361,-29.4885 547.486,-30.4608 550.395,-36.8278"/>
</g>
</g>
</svg>
