<?xml version="1.0" encoding="UTF-8" standalone="no"?>
<!DOCTYPE svg PUBLIC "-//W3C//DTD SVG 1.1//EN"
 "http://www.w3.org/Graphics/SVG/1.1/DTD/svg11.dtd">
<!-- Generated by graphviz version 2.40.1 (20161225.0304)
 -->
<!-- Title: %3 Pages: 1 -->
<svg width="726pt" height="188pt"
 viewBox="0.00 0.00 726.22 188.00" xmlns="http://www.w3.org/2000/svg" xmlns:xlink="http://www.w3.org/1999/xlink">
<g id="graph0" class="graph" transform="scale(1 1) rotate(0) translate(4 184)">
<title>%3</title>
<!-- Firebase -->
<g id="node1" class="node">
<title>Firebase</title>
<ellipse fill="none" stroke="#000000" cx="366.4053" cy="-162" rx="40.1317" ry="18"/>
<text text-anchor="middle" x="366.4053" y="-157.8" font-family="Times,serif" font-size="14.00" fill="#000000">Firebase</text>
</g>
<!-- Auth -->
<g id="node2" class="node">
<title>Auth</title>
<ellipse fill="none" stroke="#000000" cx="90.4053" cy="-90" rx="27.589" ry="18"/>
<text text-anchor="middle" x="90.4053" y="-85.8" font-family="Times,serif" font-size="14.00" fill="#000000">Auth</text>
</g>
<!-- Firebase&#45;&gt;Auth -->
<g id="edge1" class="edge">
<title>Firebase&#45;&gt;Auth</title>
<path fill="none" stroke="#000000" d="M330.3626,-153.7494C286.9959,-143.6663 212.0677,-125.7473 148.4053,-108 140.8494,-105.8936 132.7866,-103.4913 125.1498,-101.1429"/>
<polygon fill="#000000" stroke="#000000" points="126.0226,-97.749 115.4342,-98.1163 123.9406,-104.4322 126.0226,-97.749"/>
</g>
<!-- Functions -->
<g id="node3" class="node">
<title>Functions</title>
<ellipse fill="none" stroke="#000000" cx="202.4053" cy="-90" rx="44.9855" ry="18"/>
<text text-anchor="middle" x="202.4053" y="-85.8" font-family="Times,serif" font-size="14.00" fill="#000000">Functions</text>
</g>
<!-- Firebase&#45;&gt;Functions -->
<g id="edge2" class="edge">
<title>Firebase&#45;&gt;Functions</title>
<path fill="none" stroke="#000000" d="M337.4629,-149.2936C310.9108,-137.6366 271.3516,-120.2691 241.9016,-107.3398"/>
<polygon fill="#000000" stroke="#000000" points="243.2878,-104.126 232.7244,-103.3108 240.4738,-110.5355 243.2878,-104.126"/>
</g>
<!-- Storage -->
<g id="node4" class="node">
<title>Storage</title>
<ellipse fill="none" stroke="#000000" cx="320.4053" cy="-90" rx="37.2421" ry="18"/>
<text text-anchor="middle" x="320.4053" y="-85.8" font-family="Times,serif" font-size="14.00" fill="#000000">Storage</text>
</g>
<!-- Firebase&#45;&gt;Storage -->
<g id="edge3" class="edge">
<title>Firebase&#45;&gt;Storage</title>
<path fill="none" stroke="#000000" d="M355.27,-144.5708C349.7892,-135.9922 343.0706,-125.4762 336.9993,-115.9732"/>
<polygon fill="#000000" stroke="#000000" points="339.7714,-113.8113 331.438,-107.2687 333.8725,-117.58 339.7714,-113.8113"/>
</g>
<!-- Hosting -->
<g id="node5" class="node">
<title>Hosting</title>
<ellipse fill="none" stroke="#000000" cx="422.4053" cy="-90" rx="38.2284" ry="18"/>
<text text-anchor="middle" x="422.4053" y="-85.8" font-family="Times,serif" font-size="14.00" fill="#000000">Hosting</text>
</g>
<!-- Firebase&#45;&gt;Hosting -->
<g id="edge4" class="edge">
<title>Firebase&#45;&gt;Hosting</title>
<path fill="none" stroke="#000000" d="M379.6765,-144.937C386.6506,-135.9703 395.3289,-124.8124 403.0391,-114.8993"/>
<polygon fill="#000000" stroke="#000000" points="405.8526,-116.9829 409.2293,-106.9405 400.3271,-112.6853 405.8526,-116.9829"/>
</g>
<!-- Realtime -->
<g id="node6" class="node">
<title>Realtime</title>
<ellipse fill="none" stroke="#000000" cx="534.4053" cy="-90" rx="42.0611" ry="18"/>
<text text-anchor="middle" x="534.4053" y="-85.8" font-family="Times,serif" font-size="14.00" fill="#000000">Realtime</text>
</g>
<!-- Firebase&#45;&gt;Realtime -->
<g id="edge5" class="edge">
<title>Firebase&#45;&gt;Realtime</title>
<path fill="none" stroke="#000000" d="M395.6686,-149.4586C423.2382,-137.643 464.7411,-119.8561 495.1712,-106.8146"/>
<polygon fill="#000000" stroke="#000000" points="496.8175,-109.917 504.6303,-102.7607 494.0601,-103.483 496.8175,-109.917"/>
</g>
<!-- Firestore -->
<g id="node7" class="node">
<title>Firestore</title>
<ellipse fill="none" stroke="#000000" cx="654.4053" cy="-90" rx="41.5852" ry="18"/>
<text text-anchor="middle" x="654.4053" y="-85.8" font-family="Times,serif" font-size="14.00" fill="#000000">Firestore</text>
</g>
<!-- Firebase&#45;&gt;Firestore -->
<g id="edge6" class="edge">
<title>Firebase&#45;&gt;Firestore</title>
<path fill="none" stroke="#000000" d="M401.7167,-153.4476C445.0332,-142.9207 520.6885,-124.4193 585.4053,-108 592.9989,-106.0734 601.0546,-103.9994 608.8798,-101.9686"/>
<polygon fill="#000000" stroke="#000000" points="609.8209,-105.3404 618.6165,-99.4337 608.0572,-98.5662 609.8209,-105.3404"/>
</g>
<!-- Authdesc -->
<g id="node8" class="node">
<title>Authdesc</title>
<polygon fill="none" stroke="#8b4513" points="112.716,-36 .0946,-36 .0946,0 112.716,0 112.716,-36"/>
<text text-anchor="middle" x="56.4053" y="-20.8" font-family="Times,serif" font-size="14.00" fill="#8b4513">Authentication</text>
<text text-anchor="middle" x="56.4053" y="-6.8" font-family="Times,serif" font-size="14.00" fill="#8b4513">and authorisation</text>
</g>
<!-- Auth&#45;&gt;Authdesc -->
<g id="edge7" class="edge">
<title>Auth&#45;&gt;Authdesc</title>
<path fill="none" stroke="#8b4513" d="M82.1748,-72.5708C76.9471,-61.5003 70.1958,-47.2034 64.915,-36.0206"/>
</g>
<!-- Functionsdesc -->
<g id="node9" class="node">
<title>Functionsdesc</title>
<polygon fill="none" stroke="#8b4513" points="248.0153,-36 130.7953,-36 130.7953,0 248.0153,0 248.0153,-36"/>
<text text-anchor="middle" x="189.4053" y="-13.8" font-family="Times,serif" font-size="14.00" fill="#8b4513">&quot;server&quot; side code</text>
</g>
<!-- Functions&#45;&gt;Functionsdesc -->
<g id="edge8" class="edge">
<title>Functions&#45;&gt;Functionsdesc</title>
<path fill="none" stroke="#8b4513" d="M199.1248,-71.8314C197.1692,-61 194.6933,-47.2876 192.7299,-36.4133"/>
</g>
<!-- Storagedesc -->
<g id="node11" class="node">
<title>Storagedesc</title>
<polygon fill="none" stroke="#8b4513" points="366.7477,-36 266.0629,-36 266.0629,0 366.7477,0 366.7477,-36"/>
<text text-anchor="middle" x="316.4053" y="-20.8" font-family="Times,serif" font-size="14.00" fill="#8b4513">User generated</text>
<text text-anchor="middle" x="316.4053" y="-6.8" font-family="Times,serif" font-size="14.00" fill="#8b4513">file hosting</text>
</g>
<!-- Storage&#45;&gt;Storagedesc -->
<g id="edge10" class="edge">
<title>Storage&#45;&gt;Storagedesc</title>
<path fill="none" stroke="#8b4513" d="M319.3959,-71.8314C318.7942,-61 318.0324,-47.2876 317.4282,-36.4133"/>
</g>
<!-- Hostingdesc -->
<g id="node10" class="node">
<title>Hostingdesc</title>
<polygon fill="none" stroke="#8b4513" points="470.4258,-36 384.3848,-36 384.3848,0 470.4258,0 470.4258,-36"/>
<text text-anchor="middle" x="427.4053" y="-20.8" font-family="Times,serif" font-size="14.00" fill="#8b4513">Web content</text>
<text text-anchor="middle" x="427.4053" y="-6.8" font-family="Times,serif" font-size="14.00" fill="#8b4513">hosting</text>
</g>
<!-- Hosting&#45;&gt;Hostingdesc -->
<g id="edge9" class="edge">
<title>Hosting&#45;&gt;Hostingdesc</title>
<path fill="none" stroke="#8b4513" d="M423.667,-71.8314C424.4192,-61 425.3714,-47.2876 426.1266,-36.4133"/>
</g>
<!-- Realtimedesc -->
<g id="node12" class="node">
<title>Realtimedesc</title>
<polygon fill="none" stroke="#8b4513" points="602.7544,-36 488.0561,-36 488.0561,0 602.7544,0 602.7544,-36"/>
<text text-anchor="middle" x="545.4053" y="-13.8" font-family="Times,serif" font-size="14.00" fill="#8b4513">Original database</text>
</g>
<!-- Realtime&#45;&gt;Realtimedesc -->
<g id="edge11" class="edge">
<title>Realtime&#45;&gt;Realtimedesc</title>
<path fill="none" stroke="#8b4513" d="M537.181,-71.8314C538.8358,-61 540.9308,-47.2876 542.5921,-36.4133"/>
</g>
<!-- Firestoredesc -->
<g id="node13" class="node">
<title>Firestoredesc</title>
<polygon fill="none" stroke="#8b4513" points="718.0339,-36 620.7766,-36 620.7766,0 718.0339,0 718.0339,-36"/>
<text text-anchor="middle" x="669.4053" y="-20.8" font-family="Times,serif" font-size="14.00" fill="#8b4513">New database,</text>
<text text-anchor="middle" x="669.4053" y="-6.8" font-family="Times,serif" font-size="14.00" fill="#8b4513">still beta</text>
</g>
<!-- Firestore&#45;&gt;Firestoredesc -->
<g id="edge12" class="edge">
<title>Firestore&#45;&gt;Firestoredesc</title>
<path fill="none" stroke="#8b4513" d="M658.1904,-71.8314C660.4469,-61 663.3037,-47.2876 665.5692,-36.4133"/>
</g>
</g>
</svg>
