<?xml version="1.0" encoding="UTF-8" standalone="no"?>
<!DOCTYPE svg PUBLIC "-//W3C//DTD SVG 1.1//EN"
 "http://www.w3.org/Graphics/SVG/1.1/DTD/svg11.dtd">
<!-- Generated by graphviz version 2.40.1 (20161225.0304)
 -->
<!-- Title: %3 Pages: 1 -->
<svg width="368pt" height="59pt"
 viewBox="0.00 0.00 368.25 58.91" xmlns="http://www.w3.org/2000/svg" xmlns:xlink="http://www.w3.org/1999/xlink">
<g id="graph0" class="graph" transform="scale(1 1) rotate(0) translate(4 54.9117)">
<title>%3</title>
<!-- myFunc -->
<g id="node1" class="node">
<title>myFunc</title>
<polygon fill="none" stroke="#000000" points="189.267,-43.4558 126.9545,-43.4558 126.9545,-7.4558 189.267,-7.4558 189.267,-43.4558"/>
<text text-anchor="middle" x="158.1108" y="-21.2558" font-family="Times,serif" font-size="14.00" fill="#000000">function</text>
</g>
<!-- DB_manipulations -->
<g id="node3" class="node">
<title>DB_manipulations</title>
<ellipse fill="none" stroke="#000000" cx="292.8428" cy="-25.4558" rx="67.3089" ry="25.4118"/>
<text text-anchor="middle" x="292.8428" y="-28.2558" font-family="Times,serif" font-size="14.00" fill="#000000">database</text>
<text text-anchor="middle" x="292.8428" y="-14.2558" font-family="Times,serif" font-size="14.00" fill="#000000">manipulations</text>
</g>
<!-- myFunc&#45;&gt;DB_manipulations -->
<g id="edge2" class="edge">
<title>myFunc&#45;&gt;DB_manipulations</title>
<path fill="none" stroke="#000000" d="M189.3596,-25.4558C197.2104,-25.4558 205.9904,-25.4558 215.0275,-25.4558"/>
<polygon fill="#000000" stroke="#000000" points="215.3041,-28.9559 225.3041,-25.4558 215.3041,-21.9559 215.3041,-28.9559"/>
</g>
<!-- DB_events -->
<g id="node2" class="node">
<title>DB_events</title>
<ellipse fill="none" stroke="#000000" cx="45.3916" cy="-25.4558" rx="45.2834" ry="25.4118"/>
<text text-anchor="middle" x="45.3916" y="-28.2558" font-family="Times,serif" font-size="14.00" fill="#000000">database</text>
<text text-anchor="middle" x="45.3916" y="-14.2558" font-family="Times,serif" font-size="14.00" fill="#000000">mevents</text>
</g>
<!-- DB_events&#45;&gt;myFunc -->
<g id="edge1" class="edge">
<title>DB_events&#45;&gt;myFunc</title>
<path fill="none" stroke="#000000" d="M90.9139,-25.4558C99.5148,-25.4558 108.4656,-25.4558 116.9239,-25.4558"/>
<polygon fill="#000000" stroke="#000000" points="116.9402,-28.9559 126.9401,-25.4558 116.9401,-21.9559 116.9402,-28.9559"/>
</g>
</g>
</svg>
