<?xml version="1.0" encoding="UTF-8" standalone="no"?>
<!DOCTYPE svg PUBLIC "-//W3C//DTD SVG 1.1//EN"
 "http://www.w3.org/Graphics/SVG/1.1/DTD/svg11.dtd">
<!-- Generated by graphviz version 2.40.1 (20161225.0304)
 -->
<!-- Title: %3 Pages: 1 -->
<svg width="188pt" height="206pt"
 viewBox="0.00 0.00 187.75 206.00" xmlns="http://www.w3.org/2000/svg" xmlns:xlink="http://www.w3.org/1999/xlink">
<g id="graph0" class="graph" transform="scale(1 1) rotate(0) translate(4 202)">
<title>%3</title>
<!-- func -->
<g id="node1" class="node">
<title>func</title>
<polygon fill="none" stroke="#000000" points="62.4839,-117 .1714,-117 .1714,-81 62.4839,-81 62.4839,-117"/>
<text text-anchor="middle" x="31.3276" y="-94.8" font-family="Times,serif" font-size="14.00" fill="#000000">function</text>
</g>
<!-- request -->
<g id="node2" class="node">
<title>request</title>
<ellipse fill="none" stroke="#000000" cx="139.2047" cy="-180" rx="35.7887" ry="18"/>
<text text-anchor="middle" x="139.2047" y="-175.8" font-family="Times,serif" font-size="14.00" fill="#000000">request</text>
</g>
<!-- func&#45;&gt;request -->
<g id="edge1" class="edge">
<title>func:e&#45;&gt;request</title>
<path fill="none" stroke="#000000" d="M62.3276,-99C91.2531,-99 78.1534,-132.5953 98.6553,-153 101.2667,-155.599 104.1635,-158.0954 107.173,-160.4487"/>
<polygon fill="#000000" stroke="#000000" points="105.1302,-163.2907 115.2838,-166.3163 109.2332,-157.6192 105.1302,-163.2907"/>
</g>
<!-- database -->
<g id="node3" class="node">
<title>database</title>
<ellipse fill="none" stroke="#000000" cx="139.2047" cy="-126" rx="40.5989" ry="18"/>
<text text-anchor="middle" x="139.2047" y="-121.8" font-family="Times,serif" font-size="14.00" fill="#000000">database</text>
</g>
<!-- func&#45;&gt;database -->
<g id="edge2" class="edge">
<title>func:e&#45;&gt;database</title>
<path fill="none" stroke="#000000" d="M62.3276,-99C76.4183,-99 91.1827,-103.0877 103.9632,-108.0822"/>
<polygon fill="#000000" stroke="#000000" points="102.7318,-111.3614 113.3058,-112.0255 105.4538,-104.9123 102.7318,-111.3614"/>
</g>
<!-- message -->
<g id="node4" class="node">
<title>message</title>
<ellipse fill="none" stroke="#000000" cx="139.2047" cy="-72" rx="40.1317" ry="18"/>
<text text-anchor="middle" x="139.2047" y="-67.8" font-family="Times,serif" font-size="14.00" fill="#000000">message</text>
</g>
<!-- func&#45;&gt;message -->
<g id="edge3" class="edge">
<title>func:e&#45;&gt;message</title>
<path fill="none" stroke="#000000" d="M62.3276,-99C76.4183,-99 91.1827,-94.9123 103.9632,-89.9178"/>
<polygon fill="#000000" stroke="#000000" points="105.4538,-93.0877 113.3058,-85.9745 102.7318,-86.6386 105.4538,-93.0877"/>
</g>
<!-- outside -->
<g id="node5" class="node">
<title>outside</title>
<ellipse fill="none" stroke="#000000" cx="139.2047" cy="-18" rx="35.806" ry="18"/>
<text text-anchor="middle" x="139.2047" y="-13.8" font-family="Times,serif" font-size="14.00" fill="#000000">outside</text>
</g>
<!-- func&#45;&gt;outside -->
<g id="edge4" class="edge">
<title>func:e&#45;&gt;outside</title>
<path fill="none" stroke="#000000" d="M62.3276,-99C91.2531,-99 78.1534,-65.4047 98.6553,-45 101.2667,-42.401 104.1635,-39.9046 107.173,-37.5513"/>
<polygon fill="#000000" stroke="#000000" points="109.2332,-40.3808 115.2838,-31.6837 105.1302,-34.7093 109.2332,-40.3808"/>
</g>
</g>
</svg>
