<?xml version="1.0" encoding="UTF-8" standalone="no"?>
<!DOCTYPE svg PUBLIC "-//W3C//DTD SVG 1.1//EN"
 "http://www.w3.org/Graphics/SVG/1.1/DTD/svg11.dtd">
<!-- Generated by graphviz version 2.40.1 (20161225.0304)
 -->
<!-- Title: %3 Pages: 1 -->
<svg width="188pt" height="260pt"
 viewBox="0.00 0.00 187.75 260.00" xmlns="http://www.w3.org/2000/svg" xmlns:xlink="http://www.w3.org/1999/xlink">
<g id="graph0" class="graph" transform="scale(1 1) rotate(0) translate(4 256)">
<title>%3</title>
<!-- func -->
<g id="node1" class="node">
<title>func</title>
<polygon fill="none" stroke="#000000" points="179.5827,-144 117.2703,-144 117.2703,-108 179.5827,-108 179.5827,-144"/>
<text text-anchor="middle" x="148.4265" y="-121.8" font-family="Times,serif" font-size="14.00" fill="#000000">function</text>
</g>
<!-- request -->
<g id="node2" class="node">
<title>request</title>
<ellipse fill="none" stroke="#000000" cx="40.5494" cy="-234" rx="35.7887" ry="18"/>
<text text-anchor="middle" x="40.5494" y="-229.8" font-family="Times,serif" font-size="14.00" fill="#000000">request</text>
</g>
<!-- request&#45;&gt;func -->
<g id="edge1" class="edge">
<title>request&#45;&gt;func:w</title>
<path fill="none" stroke="#000000" d="M65.0727,-220.8721C70.8472,-216.9658 76.6179,-212.2933 81.0988,-207 104.0019,-179.9448 83.2268,-136.122 107.3836,-127.4996"/>
<polygon fill="#000000" stroke="#000000" points="108.053,-130.9385 117.4265,-126 107.0192,-124.0153 108.053,-130.9385"/>
</g>
<!-- CRON -->
<g id="node3" class="node">
<title>CRON</title>
<ellipse fill="none" stroke="#000000" cx="40.5494" cy="-180" rx="34.8545" ry="18"/>
<text text-anchor="middle" x="40.5494" y="-175.8" font-family="Times,serif" font-size="14.00" fill="#000000">CRON</text>
</g>
<!-- CRON&#45;&gt;func -->
<g id="edge2" class="edge">
<title>CRON&#45;&gt;func:w</title>
<path fill="none" stroke="#000000" d="M62.155,-165.9125C68.319,-161.8129 75.0125,-157.2838 81.0988,-153 94.2078,-143.7734 96.7185,-132.1064 107.3771,-127.7474"/>
<polygon fill="#000000" stroke="#000000" points="108.1739,-131.1615 117.4265,-126 106.9747,-124.2649 108.1739,-131.1615"/>
</g>
<!-- storage -->
<g id="node4" class="node">
<title>storage</title>
<ellipse fill="none" stroke="#000000" cx="40.5494" cy="-126" rx="35.7887" ry="18"/>
<text text-anchor="middle" x="40.5494" y="-121.8" font-family="Times,serif" font-size="14.00" fill="#000000">storage</text>
</g>
<!-- storage&#45;&gt;func -->
<g id="edge3" class="edge">
<title>storage&#45;&gt;func:w</title>
<path fill="none" stroke="#000000" d="M76.531,-126C86.205,-126 96.8642,-126 107.2198,-126"/>
<polygon fill="#000000" stroke="#000000" points="107.4265,-129.5001 117.4265,-126 107.4264,-122.5001 107.4265,-129.5001"/>
</g>
<!-- database -->
<g id="node5" class="node">
<title>database</title>
<ellipse fill="none" stroke="#000000" cx="40.5494" cy="-72" rx="40.5989" ry="18"/>
<text text-anchor="middle" x="40.5494" y="-67.8" font-family="Times,serif" font-size="14.00" fill="#000000">database</text>
</g>
<!-- database&#45;&gt;func -->
<g id="edge4" class="edge">
<title>database&#45;&gt;func:w</title>
<path fill="none" stroke="#000000" d="M63.4229,-86.9318C69.229,-90.8035 75.4275,-95.0083 81.0988,-99 94.2078,-108.2266 96.7185,-119.8936 107.3771,-124.2526"/>
<polygon fill="#000000" stroke="#000000" points="106.9747,-127.7351 117.4265,-126 108.1739,-120.8385 106.9747,-127.7351"/>
</g>
<!-- outside -->
<g id="node6" class="node">
<title>outside</title>
<ellipse fill="none" stroke="#000000" cx="40.5494" cy="-18" rx="35.806" ry="18"/>
<text text-anchor="middle" x="40.5494" y="-13.8" font-family="Times,serif" font-size="14.00" fill="#000000">outside</text>
</g>
<!-- outside&#45;&gt;func -->
<g id="edge5" class="edge">
<title>outside&#45;&gt;func:w</title>
<path fill="none" stroke="#000000" d="M65.0727,-31.1279C70.8472,-35.0342 76.6179,-39.7067 81.0988,-45 104.0019,-72.0552 83.2268,-115.878 107.3836,-124.5004"/>
<polygon fill="#000000" stroke="#000000" points="107.0192,-127.9847 117.4265,-126 108.053,-121.0615 107.0192,-127.9847"/>
</g>
</g>
</svg>
