<?xml version="1.0" encoding="UTF-8" standalone="no"?>
<!DOCTYPE svg PUBLIC "-//W3C//DTD SVG 1.1//EN"
 "http://www.w3.org/Graphics/SVG/1.1/DTD/svg11.dtd">
<!-- Generated by graphviz version 2.40.1 (20161225.0304)
 -->
<!-- Title: %3 Pages: 1 -->
<svg width="204pt" height="206pt"
 viewBox="0.00 0.00 204.25 206.00" xmlns="http://www.w3.org/2000/svg" xmlns:xlink="http://www.w3.org/1999/xlink">
<g id="graph0" class="graph" transform="scale(1 1) rotate(0) translate(4 202)">
<title>%3</title>
<!-- CRON -->
<g id="node1" class="node">
<title>CRON</title>
<ellipse fill="none" stroke="#000000" cx="40.5494" cy="-180" rx="34.8545" ry="18"/>
<text text-anchor="middle" x="40.5494" y="-175.8" font-family="Times,serif" font-size="14.00" fill="#000000">CRON</text>
</g>
<!-- function -->
<g id="node2" class="node">
<title>function</title>
<ellipse fill="none" stroke="#000000" cx="156.6767" cy="-99" rx="39.6558" ry="18"/>
<text text-anchor="middle" x="156.6767" y="-94.8" font-family="Times,serif" font-size="14.00" fill="#000000">function</text>
</g>
<!-- CRON&#45;&gt;function -->
<g id="edge1" class="edge">
<title>CRON&#45;&gt;function</title>
<path fill="none" stroke="#000000" d="M62.1034,-165.8385C68.2666,-161.7377 74.9726,-157.2265 81.0988,-153 96.4882,-142.3829 113.4395,-130.3069 127.3817,-120.271"/>
<polygon fill="#000000" stroke="#000000" points="129.5717,-123.0069 135.633,-114.3172 125.4756,-117.3304 129.5717,-123.0069"/>
</g>
<!-- storage -->
<g id="node3" class="node">
<title>storage</title>
<ellipse fill="none" stroke="#000000" cx="40.5494" cy="-126" rx="35.7887" ry="18"/>
<text text-anchor="middle" x="40.5494" y="-121.8" font-family="Times,serif" font-size="14.00" fill="#000000">storage</text>
</g>
<!-- storage&#45;&gt;function -->
<g id="edge2" class="edge">
<title>storage&#45;&gt;function</title>
<path fill="none" stroke="#000000" d="M73.2064,-118.4071C85.0637,-115.6503 98.6817,-112.484 111.4319,-109.5196"/>
<polygon fill="#000000" stroke="#000000" points="112.4733,-112.8709 121.4209,-107.1971 110.888,-106.0527 112.4733,-112.8709"/>
</g>
<!-- database -->
<g id="node4" class="node">
<title>database</title>
<ellipse fill="none" stroke="#000000" cx="40.5494" cy="-72" rx="40.5989" ry="18"/>
<text text-anchor="middle" x="40.5494" y="-67.8" font-family="Times,serif" font-size="14.00" fill="#000000">database</text>
</g>
<!-- database&#45;&gt;function -->
<g id="edge3" class="edge">
<title>database&#45;&gt;function</title>
<path fill="none" stroke="#000000" d="M76.6562,-80.395C87.6764,-82.9572 99.9341,-85.8072 111.4775,-88.491"/>
<polygon fill="#000000" stroke="#000000" points="110.856,-91.9398 121.3888,-90.7955 112.4413,-85.1217 110.856,-91.9398"/>
</g>
<!-- outside -->
<g id="node5" class="node">
<title>outside</title>
<ellipse fill="none" stroke="#000000" cx="40.5494" cy="-18" rx="35.806" ry="18"/>
<text text-anchor="middle" x="40.5494" y="-13.8" font-family="Times,serif" font-size="14.00" fill="#000000">outside</text>
</g>
<!-- outside&#45;&gt;function -->
<g id="edge4" class="edge">
<title>outside&#45;&gt;function</title>
<path fill="none" stroke="#000000" d="M62.5245,-32.4418C68.5712,-36.4672 75.1118,-40.8696 81.0988,-45 96.4882,-55.6171 113.4395,-67.6931 127.3817,-77.729"/>
<polygon fill="#000000" stroke="#000000" points="125.4756,-80.6696 135.633,-83.6828 129.5717,-74.9931 125.4756,-80.6696"/>
</g>
</g>
</svg>
