<?xml version="1.0" encoding="UTF-8" standalone="no"?>
<!DOCTYPE svg PUBLIC "-//W3C//DTD SVG 1.1//EN"
 "http://www.w3.org/Graphics/SVG/1.1/DTD/svg11.dtd">
<!-- Generated by graphviz version 2.40.1 (20161225.0304)
 -->
<!-- Title: %3 Pages: 1 -->
<svg width="398pt" height="240pt"
 viewBox="0.00 0.00 397.53 240.36" xmlns="http://www.w3.org/2000/svg" xmlns:xlink="http://www.w3.org/1999/xlink">
<g id="graph0" class="graph" transform="scale(1 1) rotate(0) translate(4 236.3553)">
<title>%3</title>
<!-- user -->
<g id="node1" class="node">
<title>user</title>
<ellipse fill="none" stroke="#000000" cx="27" cy="-99" rx="27" ry="18"/>
<text text-anchor="middle" x="27" y="-94.8" font-family="Times,serif" font-size="14.00" fill="#000000">user</text>
</g>
<!-- auth -->
<g id="node2" class="node">
<title>auth</title>
<ellipse fill="none" stroke="#000000" cx="160.1451" cy="-99" rx="70.2906" ry="25.4118"/>
<text text-anchor="middle" x="160.1451" y="-101.8" font-family="Times,serif" font-size="14.00" fill="#000000">Firebase</text>
<text text-anchor="middle" x="160.1451" y="-87.8" font-family="Times,serif" font-size="14.00" fill="#000000">Authentication</text>
</g>
<!-- user&#45;&gt;auth -->
<g id="edge1" class="edge">
<title>user&#45;&gt;auth</title>
<path fill="none" stroke="#000000" d="M54.2652,-99C61.8382,-99 70.4685,-99 79.4587,-99"/>
<polygon fill="#000000" stroke="#000000" points="79.7248,-102.5001 89.7248,-99 79.7247,-95.5001 79.7248,-102.5001"/>
</g>
<!-- FireUser -->
<g id="node3" class="node">
<title>FireUser</title>
<ellipse fill="none" stroke="#000000" cx="327.9087" cy="-197" rx="61.7371" ry="35.2113"/>
<text text-anchor="middle" x="327.9087" y="-206.8" font-family="Times,serif" font-size="14.00" fill="#000000">Internal</text>
<text text-anchor="middle" x="327.9087" y="-192.8" font-family="Times,serif" font-size="14.00" fill="#000000">Firebase app</text>
<text text-anchor="middle" x="327.9087" y="-178.8" font-family="Times,serif" font-size="14.00" fill="#000000">user</text>
</g>
<!-- auth&#45;&gt;FireUser -->
<g id="edge2" class="edge">
<title>auth&#45;&gt;FireUser</title>
<path fill="none" stroke="#000000" d="M197.3773,-120.7494C220.433,-134.2175 250.3831,-151.713 275.7782,-166.5477"/>
<polygon fill="#000000" stroke="#000000" points="274.1519,-169.6511 284.552,-171.673 277.6827,-163.6068 274.1519,-169.6511"/>
</g>
<!-- Facebook -->
<g id="node4" class="node">
<title>Facebook</title>
<ellipse fill="none" stroke="#000000" cx="327.9087" cy="-126" rx="44.475" ry="18"/>
<text text-anchor="middle" x="327.9087" y="-121.8" font-family="Times,serif" font-size="14.00" fill="#000000">Facebook</text>
</g>
<!-- auth&#45;&gt;Facebook -->
<g id="edge3" class="edge">
<title>auth&#45;&gt;Facebook</title>
<path fill="none" stroke="#000000" d="M224.5271,-109.3617C241.6678,-112.1203 259.9586,-115.0641 276.316,-117.6966"/>
<polygon fill="#000000" stroke="#000000" points="275.7944,-121.1576 286.2235,-119.2912 276.9067,-114.2466 275.7944,-121.1576"/>
</g>
<!-- Github -->
<g id="node5" class="node">
<title>Github</title>
<ellipse fill="none" stroke="#000000" cx="327.9087" cy="-72" rx="34.8458" ry="18"/>
<text text-anchor="middle" x="327.9087" y="-67.8" font-family="Times,serif" font-size="14.00" fill="#000000">Github</text>
</g>
<!-- auth&#45;&gt;Github -->
<g id="edge4" class="edge">
<title>auth&#45;&gt;Github</title>
<path fill="none" stroke="#000000" d="M224.5271,-88.6383C244.5489,-85.416 266.1398,-81.9411 284.3859,-79.0046"/>
<polygon fill="#000000" stroke="#000000" points="285.1085,-82.4334 294.4253,-77.3888 283.9962,-75.5224 285.1085,-82.4334"/>
</g>
<!-- Google -->
<g id="node6" class="node">
<title>Google</title>
<ellipse fill="none" stroke="#000000" cx="327.9087" cy="-18" rx="36.2818" ry="18"/>
<text text-anchor="middle" x="327.9087" y="-13.8" font-family="Times,serif" font-size="14.00" fill="#000000">Google</text>
</g>
<!-- auth&#45;&gt;Google -->
<g id="edge5" class="edge">
<title>auth&#45;&gt;Google</title>
<path fill="none" stroke="#000000" d="M200.198,-77.9361C219.9606,-67.7194 244.2355,-55.4314 266.2903,-45 274.1825,-41.2672 282.7193,-37.4122 290.8514,-33.8248"/>
<polygon fill="#000000" stroke="#000000" points="292.3887,-36.9726 300.1491,-29.7596 289.5844,-30.5589 292.3887,-36.9726"/>
</g>
</g>
</svg>
